<svg width="220" height="36" viewBox="0 0 220 36" fill="none" xmlns="http://www.w3.org/2000/svg">
<path d="M0 8C0 3.58172 3.58172 0 8 0H212C216.418 0 220 3.58172 220 8V28C220 32.4183 216.418 36 212 36H8.00001C3.58173 36 0 32.4183 0 28V8Z" fill="#2C3C4F"/>
<path d="M21.5667 14.432V23H19.8587V14.432H16.8067V12.962H24.6047V14.432H21.5667ZM29.1787 17.302C28.6467 17.2927 28.166 17.3767 27.7367 17.554C27.3073 17.7313 26.9807 18.0113 26.7567 18.394V23H25.1327V15.734H26.6167L26.7287 17.246H26.7567C26.99 16.798 27.3073 16.4247 27.7087 16.126C28.1193 15.8273 28.6093 15.65 29.1787 15.594V17.302ZM33.5053 23.14C32.992 23.14 32.516 23.056 32.0773 22.888C31.6386 22.72 31.256 22.4773 30.9293 22.16C30.612 21.8333 30.36 21.4367 30.1733 20.97C29.996 20.5033 29.9073 19.9667 29.9073 19.36C29.9073 18.7533 29.996 18.2167 30.1733 17.75C30.36 17.2833 30.612 16.8913 30.9293 16.574C31.256 16.2473 31.6386 16.0047 32.0773 15.846C32.516 15.678 32.992 15.594 33.5053 15.594C34.0186 15.594 34.4946 15.678 34.9333 15.846C35.372 16.0047 35.7546 16.2473 36.0813 16.574C36.408 16.8913 36.6646 17.2833 36.8513 17.75C37.038 18.2167 37.1313 18.7533 37.1313 19.36C37.1313 19.9667 37.038 20.5033 36.8513 20.97C36.6646 21.4367 36.408 21.8333 36.0813 22.16C35.7546 22.4773 35.372 22.72 34.9333 22.888C34.4946 23.056 34.0186 23.14 33.5053 23.14ZM33.5053 21.782C34.0653 21.782 34.5273 21.586 34.8913 21.194C35.2646 20.802 35.4513 20.1907 35.4513 19.36C35.4513 18.5387 35.2646 17.932 34.8913 17.54C34.5273 17.1387 34.0653 16.938 33.5053 16.938C32.9546 16.938 32.4926 17.1387 32.1193 17.54C31.7553 17.932 31.5733 18.5387 31.5733 19.36C31.5733 20.1907 31.7553 20.802 32.1193 21.194C32.4926 21.586 32.9546 21.782 33.5053 21.782ZM43.1241 21.81C42.9281 22.1833 42.6341 22.5007 42.2421 22.762C41.8594 23.014 41.3554 23.14 40.7301 23.14C40.0487 23.14 39.4934 22.944 39.0641 22.552C38.6347 22.16 38.4201 21.5627 38.4201 20.76V15.734H40.0581V20.718C40.0581 21.138 40.1747 21.4227 40.4081 21.572C40.6414 21.712 40.9261 21.782 41.2621 21.782C41.7194 21.782 42.0927 21.6887 42.3821 21.502C42.6714 21.306 42.9187 21.0447 43.1241 20.718V15.734H44.7341V23H43.2501L43.1521 21.81H43.1241ZM53.7942 19.36C53.7942 20.004 53.7055 20.564 53.5282 21.04C53.3602 21.5067 53.1268 21.8987 52.8282 22.216C52.5388 22.524 52.1982 22.7573 51.8062 22.916C51.4142 23.0653 51.0035 23.14 50.5742 23.14C50.0142 23.14 49.5288 23.014 49.1182 22.762C48.7168 22.5007 48.3948 22.146 48.1522 21.698L48.1102 23H46.5702V12.962H48.1942L48.1802 17.008C48.4228 16.5693 48.7448 16.224 49.1462 15.972C49.5475 15.72 50.0328 15.594 50.6022 15.594C51.0315 15.594 51.4375 15.6733 51.8202 15.832C52.2122 15.9813 52.5528 16.2147 52.8422 16.532C53.1315 16.84 53.3602 17.232 53.5282 17.708C53.7055 18.1747 53.7942 18.7253 53.7942 19.36ZM50.1822 21.782C50.7608 21.782 51.2275 21.586 51.5822 21.194C51.9462 20.7927 52.1282 20.1813 52.1282 19.36C52.1282 18.548 51.9462 17.9413 51.5822 17.54C51.2275 17.1387 50.7655 16.938 50.1962 16.938C49.9068 16.938 49.6408 16.9893 49.3982 17.092C49.1555 17.1853 48.9408 17.3347 48.7542 17.54C48.5768 17.7453 48.4368 18.002 48.3342 18.31C48.2315 18.6087 48.1802 18.9587 48.1802 19.36C48.1802 19.7707 48.2315 20.13 48.3342 20.438C48.4368 20.7367 48.5768 20.9887 48.7542 21.194C48.9315 21.39 49.1415 21.5393 49.3842 21.642C49.6362 21.7353 49.9022 21.782 50.1822 21.782ZM56.7938 12.962V23H55.1698V12.962H56.7938ZM64.6911 22.468C64.5884 22.5333 64.4624 22.608 64.3131 22.692C64.1637 22.7667 63.9864 22.8367 63.7811 22.902C63.5757 22.9673 63.3377 23.0233 63.0671 23.07C62.7964 23.1167 62.4884 23.14 62.1431 23.14C60.8084 23.14 59.8097 22.8087 59.1471 22.146C58.4937 21.4833 58.1671 20.5547 58.1671 19.36C58.1671 18.772 58.2557 18.2447 58.4331 17.778C58.6104 17.3113 58.8577 16.9193 59.1751 16.602C59.4924 16.2753 59.8704 16.028 60.3091 15.86C60.7477 15.6827 61.2284 15.594 61.7511 15.594C62.2924 15.594 62.7777 15.6827 63.2071 15.86C63.6457 16.0373 64.0051 16.3033 64.2851 16.658C64.5651 17.0127 64.7564 17.4513 64.8591 17.974C64.9711 18.4967 64.9757 19.108 64.8731 19.808H59.8471C59.9124 20.4707 60.1317 20.97 60.5051 21.306C60.8784 21.6327 61.4617 21.796 62.2551 21.796C62.8337 21.796 63.3144 21.726 63.6971 21.586C64.0891 21.4367 64.4204 21.2827 64.6911 21.124V22.468ZM61.7511 16.882C61.2751 16.882 60.8737 17.0267 60.5471 17.316C60.2204 17.6053 60.0057 18.0347 59.9031 18.604H63.3191C63.3377 18.016 63.2071 17.582 62.9271 17.302C62.6471 17.022 62.2551 16.882 61.7511 16.882ZM68.7063 23.14C68.3423 23.14 68.011 23.1073 67.7123 23.042C67.423 22.986 67.1663 22.916 66.9423 22.832C66.7183 22.748 66.527 22.6593 66.3683 22.566C66.219 22.4727 66.0977 22.3887 66.0043 22.314V21.026C66.0977 21.11 66.2237 21.2033 66.3823 21.306C66.5503 21.3993 66.7417 21.4927 66.9563 21.586C67.1803 21.67 67.4323 21.74 67.7123 21.796C67.9923 21.852 68.305 21.88 68.6503 21.88C69.1637 21.88 69.537 21.8053 69.7703 21.656C70.013 21.4973 70.1343 21.2687 70.1343 20.97C70.1343 20.774 70.0877 20.62 69.9943 20.508C69.901 20.396 69.775 20.3073 69.6163 20.242C69.4577 20.1767 69.271 20.13 69.0563 20.102C68.851 20.0647 68.6363 20.0227 68.4123 19.976C68.123 19.92 67.8337 19.85 67.5443 19.766C67.2643 19.6727 67.0077 19.5467 66.7743 19.388C66.5503 19.2293 66.3637 19.024 66.2143 18.772C66.0743 18.52 66.0043 18.198 66.0043 17.806C66.0043 17.1153 66.261 16.574 66.7743 16.182C67.2877 15.79 68.0203 15.594 68.9723 15.594C69.5137 15.594 69.9803 15.65 70.3723 15.762C70.7737 15.874 71.0677 15.9907 71.2543 16.112V17.4C71.0303 17.2507 70.741 17.12 70.3863 17.008C70.0317 16.896 69.5837 16.84 69.0423 16.84C68.5103 16.84 68.123 16.91 67.8803 17.05C67.6377 17.19 67.5163 17.4093 67.5163 17.708C67.5163 17.876 67.5583 18.0113 67.6423 18.114C67.7357 18.2073 67.8523 18.282 67.9923 18.338C68.1417 18.394 68.3097 18.4407 68.4963 18.478C68.6923 18.506 68.893 18.5387 69.0983 18.576C69.3877 18.632 69.6817 18.702 69.9803 18.786C70.2883 18.8607 70.5637 18.982 70.8063 19.15C71.0583 19.3087 71.2637 19.5233 71.4223 19.794C71.581 20.0647 71.6603 20.4147 71.6603 20.844C71.6603 21.2827 71.5763 21.6513 71.4083 21.95C71.2403 22.2393 71.0163 22.4727 70.7363 22.65C70.4563 22.8273 70.139 22.9533 69.7843 23.028C69.4297 23.1027 69.0703 23.14 68.7063 23.14ZM76.5676 16.938C76.0916 16.938 75.6996 17.0407 75.3916 17.246C75.0836 17.442 74.8316 17.6987 74.6356 18.016V23H73.0116V12.962H74.6356V15.65L74.6216 16.924H74.6356C74.8409 16.5507 75.1396 16.238 75.5316 15.986C75.9236 15.7247 76.4276 15.594 77.0436 15.594C77.7529 15.594 78.3316 15.7853 78.7796 16.168C79.2369 16.5507 79.4656 17.134 79.4656 17.918V23H77.8276V18.086C77.8276 17.666 77.7156 17.372 77.4916 17.204C77.2676 17.0267 76.9596 16.938 76.5676 16.938ZM84.351 23.14C83.8377 23.14 83.3617 23.056 82.923 22.888C82.4843 22.72 82.1017 22.4773 81.775 22.16C81.4577 21.8333 81.2057 21.4367 81.019 20.97C80.8417 20.5033 80.753 19.9667 80.753 19.36C80.753 18.7533 80.8417 18.2167 81.019 17.75C81.2057 17.2833 81.4577 16.8913 81.775 16.574C82.1017 16.2473 82.4843 16.0047 82.923 15.846C83.3617 15.678 83.8377 15.594 84.351 15.594C84.8643 15.594 85.3403 15.678 85.779 15.846C86.2177 16.0047 86.6003 16.2473 86.927 16.574C87.2537 16.8913 87.5103 17.2833 87.697 17.75C87.8837 18.2167 87.977 18.7533 87.977 19.36C87.977 19.9667 87.8837 20.5033 87.697 20.97C87.5103 21.4367 87.2537 21.8333 86.927 22.16C86.6003 22.4773 86.2177 22.72 85.779 22.888C85.3403 23.056 84.8643 23.14 84.351 23.14ZM84.351 21.782C84.911 21.782 85.373 21.586 85.737 21.194C86.1103 20.802 86.297 20.1907 86.297 19.36C86.297 18.5387 86.1103 17.932 85.737 17.54C85.373 17.1387 84.911 16.938 84.351 16.938C83.8003 16.938 83.3383 17.1387 82.965 17.54C82.601 17.932 82.419 18.5387 82.419 19.36C82.419 20.1907 82.601 20.802 82.965 21.194C83.3383 21.586 83.8003 21.782 84.351 21.782ZM92.4858 23.14C91.9724 23.14 91.4964 23.056 91.0578 22.888C90.6191 22.72 90.2364 22.4773 89.9098 22.16C89.5924 21.8333 89.3404 21.4367 89.1538 20.97C88.9764 20.5033 88.8878 19.9667 88.8878 19.36C88.8878 18.7533 88.9764 18.2167 89.1538 17.75C89.3404 17.2833 89.5924 16.8913 89.9098 16.574C90.2364 16.2473 90.6191 16.0047 91.0578 15.846C91.4964 15.678 91.9724 15.594 92.4858 15.594C92.9991 15.594 93.4751 15.678 93.9138 15.846C94.3524 16.0047 94.7351 16.2473 95.0618 16.574C95.3884 16.8913 95.6451 17.2833 95.8318 17.75C96.0184 18.2167 96.1118 18.7533 96.1118 19.36C96.1118 19.9667 96.0184 20.5033 95.8318 20.97C95.6451 21.4367 95.3884 21.8333 95.0618 22.16C94.7351 22.4773 94.3524 22.72 93.9138 22.888C93.4751 23.056 92.9991 23.14 92.4858 23.14ZM92.4858 21.782C93.0458 21.782 93.5078 21.586 93.8718 21.194C94.2451 20.802 94.4318 20.1907 94.4318 19.36C94.4318 18.5387 94.2451 17.932 93.8718 17.54C93.5078 17.1387 93.0458 16.938 92.4858 16.938C91.9351 16.938 91.4731 17.1387 91.0998 17.54C90.7358 17.932 90.5538 18.5387 90.5538 19.36C90.5538 20.1907 90.7358 20.802 91.0998 21.194C91.4731 21.586 91.9351 21.782 92.4858 21.782ZM101.377 22.776C101.209 22.8787 100.999 22.9627 100.747 23.028C100.495 23.1027 100.205 23.14 99.8785 23.14C99.4865 23.14 99.1552 23.0887 98.8845 22.986C98.6232 22.874 98.4085 22.7247 98.2405 22.538C98.0725 22.3513 97.9512 22.1367 97.8765 21.894C97.8019 21.642 97.7645 21.376 97.7645 21.096V17.05H96.8965V15.734H97.7645V14.208H99.3885V15.734H101.475V17.05H99.3885V20.914C99.3885 21.2127 99.4585 21.432 99.5985 21.572C99.7479 21.712 99.9905 21.782 100.327 21.782C100.551 21.782 100.747 21.7493 100.915 21.684C101.083 21.6187 101.237 21.53 101.377 21.418V22.776ZM103.711 14.81C103.412 14.81 103.165 14.712 102.969 14.516C102.782 14.32 102.689 14.0867 102.689 13.816C102.689 13.5453 102.782 13.312 102.969 13.116C103.165 12.92 103.412 12.822 103.711 12.822C104 12.822 104.238 12.92 104.425 13.116C104.621 13.312 104.719 13.5453 104.719 13.816C104.719 14.0867 104.621 14.32 104.425 14.516C104.238 14.712 104 14.81 103.711 14.81ZM104.523 15.734V23H102.899V15.734H104.523ZM109.9 16.938C109.424 16.938 109.032 17.0407 108.724 17.246C108.416 17.442 108.164 17.6987 107.968 18.016V23H106.344V15.734H107.884L107.94 16.924H107.968C108.164 16.5413 108.458 16.224 108.85 15.972C109.251 15.72 109.76 15.594 110.376 15.594C111.085 15.594 111.664 15.7853 112.112 16.168C112.569 16.5507 112.798 17.134 112.798 17.918V23H111.16V18.086C111.16 17.666 111.048 17.372 110.824 17.204C110.6 17.0267 110.292 16.938 109.9 16.938ZM121.169 22.062C121.169 22.594 121.094 23.07 120.945 23.49C120.805 23.9193 120.576 24.2833 120.259 24.582C119.942 24.8807 119.531 25.1093 119.027 25.268C118.532 25.4267 117.93 25.506 117.221 25.506C116.848 25.506 116.521 25.4827 116.241 25.436C115.961 25.3987 115.718 25.3473 115.513 25.282C115.308 25.226 115.13 25.1607 114.981 25.086C114.841 25.0207 114.72 24.9553 114.617 24.89V23.546C114.757 23.63 114.906 23.7093 115.065 23.784C115.233 23.8587 115.42 23.924 115.625 23.98C115.84 24.036 116.078 24.078 116.339 24.106C116.6 24.1433 116.899 24.162 117.235 24.162C118.038 24.162 118.621 24.0127 118.985 23.714C119.358 23.4153 119.545 22.8833 119.545 22.118V21.39C119.321 21.7913 119.022 22.1133 118.649 22.356C118.276 22.5893 117.814 22.706 117.263 22.706C116.843 22.706 116.437 22.6313 116.045 22.482C115.662 22.3327 115.322 22.1133 115.023 21.824C114.734 21.5253 114.5 21.1567 114.323 20.718C114.155 20.27 114.071 19.752 114.071 19.164C114.071 18.5667 114.155 18.0487 114.323 17.61C114.5 17.162 114.734 16.7887 115.023 16.49C115.322 16.1913 115.667 15.9673 116.059 15.818C116.451 15.6687 116.862 15.594 117.291 15.594C117.851 15.594 118.322 15.7153 118.705 15.958C119.088 16.1913 119.396 16.518 119.629 16.938V16.896C119.629 16.728 119.638 16.5273 119.657 16.294C119.685 16.0513 119.713 15.8647 119.741 15.734H121.239C121.22 15.8647 121.202 16.0513 121.183 16.294C121.174 16.5367 121.169 16.7373 121.169 16.896V22.062ZM117.669 21.348C118.22 21.348 118.672 21.1707 119.027 20.816C119.382 20.452 119.559 19.9013 119.559 19.164C119.559 18.4173 119.377 17.862 119.013 17.498C118.658 17.1247 118.206 16.938 117.655 16.938C117.384 16.938 117.132 16.9847 116.899 17.078C116.666 17.1713 116.46 17.3113 116.283 17.498C116.115 17.6847 115.98 17.918 115.877 18.198C115.784 18.4687 115.737 18.7907 115.737 19.164C115.737 19.892 115.919 20.438 116.283 20.802C116.647 21.166 117.109 21.348 117.669 21.348ZM130.285 21.726C130.211 21.894 130.108 22.062 129.977 22.23C129.856 22.398 129.702 22.552 129.515 22.692C129.338 22.8227 129.123 22.93 128.871 23.014C128.619 23.098 128.325 23.14 127.989 23.14C127.672 23.14 127.378 23.0933 127.107 23C126.837 22.916 126.599 22.7853 126.393 22.608C126.197 22.4307 126.039 22.2113 125.917 21.95C125.805 21.6793 125.749 21.3713 125.749 21.026C125.749 20.2327 126.043 19.64 126.631 19.248C127.219 18.8467 128.05 18.646 129.123 18.646H130.229V18.198C130.229 17.722 130.108 17.3953 129.865 17.218C129.623 17.0313 129.221 16.938 128.661 16.938C128.185 16.938 127.737 17.008 127.317 17.148C126.907 17.2787 126.543 17.4327 126.225 17.61V16.252C126.515 16.0933 126.897 15.944 127.373 15.804C127.849 15.664 128.367 15.594 128.927 15.594C129.861 15.594 130.579 15.79 131.083 16.182C131.597 16.5647 131.853 17.1807 131.853 18.03V21.824C131.853 21.908 131.853 22.006 131.853 22.118C131.863 22.2207 131.867 22.328 131.867 22.44C131.877 22.552 131.886 22.6593 131.895 22.762C131.905 22.8553 131.914 22.9347 131.923 23H130.425C130.397 22.8693 130.369 22.6873 130.341 22.454C130.323 22.2207 130.309 22.0107 130.299 21.824L130.285 21.726ZM128.437 21.88C128.783 21.88 129.067 21.81 129.291 21.67C129.525 21.5207 129.711 21.3527 129.851 21.166C129.991 20.97 130.089 20.7787 130.145 20.592C130.201 20.4053 130.229 20.2747 130.229 20.2V19.71H129.221C128.577 19.71 128.106 19.8127 127.807 20.018C127.509 20.214 127.359 20.494 127.359 20.858C127.359 21.1753 127.448 21.4273 127.625 21.614C127.812 21.7913 128.083 21.88 128.437 21.88ZM137.161 16.938C136.685 16.938 136.293 17.0407 135.985 17.246C135.677 17.442 135.425 17.6987 135.229 18.016V23H133.605V15.734H135.145L135.201 16.924H135.229C135.425 16.5413 135.719 16.224 136.111 15.972C136.513 15.72 137.021 15.594 137.637 15.594C138.347 15.594 138.925 15.7853 139.373 16.168C139.831 16.5507 140.059 17.134 140.059 17.918V23H138.421V18.086C138.421 17.666 138.309 17.372 138.085 17.204C137.861 17.0267 137.553 16.938 137.161 16.938ZM147.003 21.642C146.769 22.0993 146.457 22.4633 146.065 22.734C145.673 23.0047 145.183 23.14 144.595 23.14C144.165 23.14 143.755 23.0653 143.363 22.916C142.971 22.7573 142.625 22.524 142.327 22.216C142.028 21.8987 141.79 21.5067 141.613 21.04C141.435 20.564 141.347 20.004 141.347 19.36C141.347 18.7253 141.435 18.1747 141.613 17.708C141.79 17.232 142.028 16.84 142.327 16.532C142.635 16.2147 142.985 15.9813 143.377 15.832C143.769 15.6733 144.179 15.594 144.609 15.594C145.15 15.594 145.612 15.7013 145.995 15.916C146.387 16.1307 146.704 16.434 146.947 16.826V12.962H148.557V23H147.087L147.003 21.642ZM144.973 21.782C145.253 21.782 145.509 21.7353 145.743 21.642C145.985 21.5393 146.195 21.39 146.373 21.194C146.559 20.9887 146.704 20.7367 146.807 20.438C146.909 20.13 146.961 19.7707 146.961 19.36C146.961 18.9493 146.909 18.5947 146.807 18.296C146.704 17.988 146.564 17.736 146.387 17.54C146.209 17.3347 145.999 17.1853 145.757 17.092C145.514 16.9893 145.253 16.938 144.973 16.938C144.403 16.938 143.932 17.1433 143.559 17.554C143.195 17.9647 143.013 18.5667 143.013 19.36C143.013 20.172 143.195 20.7787 143.559 21.18C143.923 21.5813 144.394 21.782 144.973 21.782ZM155.865 23.14C155.501 23.14 155.169 23.1073 154.871 23.042C154.581 22.986 154.325 22.916 154.101 22.832C153.877 22.748 153.685 22.6593 153.527 22.566C153.377 22.4727 153.256 22.3887 153.163 22.314V21.026C153.256 21.11 153.382 21.2033 153.541 21.306C153.709 21.3993 153.9 21.4927 154.115 21.586C154.339 21.67 154.591 21.74 154.871 21.796C155.151 21.852 155.463 21.88 155.809 21.88C156.322 21.88 156.695 21.8053 156.929 21.656C157.171 21.4973 157.293 21.2687 157.293 20.97C157.293 20.774 157.246 20.62 157.153 20.508C157.059 20.396 156.933 20.3073 156.775 20.242C156.616 20.1767 156.429 20.13 156.215 20.102C156.009 20.0647 155.795 20.0227 155.571 19.976C155.281 19.92 154.992 19.85 154.703 19.766C154.423 19.6727 154.166 19.5467 153.933 19.388C153.709 19.2293 153.522 19.024 153.373 18.772C153.233 18.52 153.163 18.198 153.163 17.806C153.163 17.1153 153.419 16.574 153.933 16.182C154.446 15.79 155.179 15.594 156.131 15.594C156.672 15.594 157.139 15.65 157.531 15.762C157.932 15.874 158.226 15.9907 158.413 16.112V17.4C158.189 17.2507 157.899 17.12 157.545 17.008C157.19 16.896 156.742 16.84 156.201 16.84C155.669 16.84 155.281 16.91 155.039 17.05C154.796 17.19 154.675 17.4093 154.675 17.708C154.675 17.876 154.717 18.0113 154.801 18.114C154.894 18.2073 155.011 18.282 155.151 18.338C155.3 18.394 155.468 18.4407 155.655 18.478C155.851 18.506 156.051 18.5387 156.257 18.576C156.546 18.632 156.84 18.702 157.139 18.786C157.447 18.8607 157.722 18.982 157.965 19.15C158.217 19.3087 158.422 19.5233 158.581 19.794C158.739 20.0647 158.819 20.4147 158.819 20.844C158.819 21.2827 158.735 21.6513 158.567 21.95C158.399 22.2393 158.175 22.4727 157.895 22.65C157.615 22.8273 157.297 22.9533 156.943 23.028C156.588 23.1027 156.229 23.14 155.865 23.14ZM164.804 21.81C164.608 22.1833 164.314 22.5007 163.922 22.762C163.539 23.014 163.035 23.14 162.41 23.14C161.728 23.14 161.173 22.944 160.744 22.552C160.314 22.16 160.1 21.5627 160.1 20.76V15.734H161.738V20.718C161.738 21.138 161.854 21.4227 162.088 21.572C162.321 21.712 162.606 21.782 162.942 21.782C163.399 21.782 163.772 21.6887 164.062 21.502C164.351 21.306 164.598 21.0447 164.804 20.718V15.734H166.414V23H164.93L164.832 21.81H164.804ZM172.254 23.14C171.703 23.14 171.227 23.0187 170.826 22.776C170.434 22.524 170.117 22.188 169.874 21.768V25.478H168.25V15.734H169.734L169.846 17.022C170.089 16.5833 170.411 16.238 170.812 15.986C171.213 15.7247 171.703 15.594 172.282 15.594C172.711 15.594 173.117 15.6733 173.5 15.832C173.892 15.9813 174.233 16.2147 174.522 16.532C174.811 16.84 175.04 17.232 175.208 17.708C175.385 18.1747 175.474 18.7253 175.474 19.36C175.474 20.004 175.385 20.564 175.208 21.04C175.04 21.5067 174.807 21.8987 174.508 22.216C174.219 22.524 173.878 22.7573 173.486 22.916C173.094 23.0653 172.683 23.14 172.254 23.14ZM171.862 21.782C172.441 21.782 172.907 21.586 173.262 21.194C173.626 20.7927 173.808 20.1813 173.808 19.36C173.808 18.548 173.626 17.9413 173.262 17.54C172.907 17.1387 172.445 16.938 171.876 16.938C171.587 16.938 171.321 16.9893 171.078 17.092C170.835 17.1853 170.621 17.3347 170.434 17.54C170.257 17.7453 170.117 18.002 170.014 18.31C169.911 18.6087 169.86 18.9587 169.86 19.36C169.86 19.7707 169.911 20.13 170.014 20.438C170.117 20.7367 170.257 20.9887 170.434 21.194C170.611 21.39 170.821 21.5393 171.064 21.642C171.316 21.7353 171.582 21.782 171.862 21.782ZM180.853 23.14C180.303 23.14 179.827 23.0187 179.425 22.776C179.033 22.524 178.716 22.188 178.473 21.768V25.478H176.849V15.734H178.333L178.445 17.022C178.688 16.5833 179.01 16.238 179.411 15.986C179.813 15.7247 180.303 15.594 180.881 15.594C181.311 15.594 181.717 15.6733 182.099 15.832C182.491 15.9813 182.832 16.2147 183.121 16.532C183.411 16.84 183.639 17.232 183.807 17.708C183.985 18.1747 184.073 18.7253 184.073 19.36C184.073 20.004 183.985 20.564 183.807 21.04C183.639 21.5067 183.406 21.8987 183.107 22.216C182.818 22.524 182.477 22.7573 182.085 22.916C181.693 23.0653 181.283 23.14 180.853 23.14ZM180.461 21.782C181.04 21.782 181.507 21.586 181.861 21.194C182.225 20.7927 182.407 20.1813 182.407 19.36C182.407 18.548 182.225 17.9413 181.861 17.54C181.507 17.1387 181.045 16.938 180.475 16.938C180.186 16.938 179.92 16.9893 179.677 17.092C179.435 17.1853 179.22 17.3347 179.033 17.54C178.856 17.7453 178.716 18.002 178.613 18.31C178.511 18.6087 178.459 18.9587 178.459 19.36C178.459 19.7707 178.511 20.13 178.613 20.438C178.716 20.7367 178.856 20.9887 179.033 21.194C179.211 21.39 179.421 21.5393 179.663 21.642C179.915 21.7353 180.181 21.782 180.461 21.782ZM188.599 23.14C188.086 23.14 187.61 23.056 187.171 22.888C186.732 22.72 186.35 22.4773 186.023 22.16C185.706 21.8333 185.454 21.4367 185.267 20.97C185.09 20.5033 185.001 19.9667 185.001 19.36C185.001 18.7533 185.09 18.2167 185.267 17.75C185.454 17.2833 185.706 16.8913 186.023 16.574C186.35 16.2473 186.732 16.0047 187.171 15.846C187.61 15.678 188.086 15.594 188.599 15.594C189.112 15.594 189.588 15.678 190.027 15.846C190.466 16.0047 190.848 16.2473 191.175 16.574C191.502 16.8913 191.758 17.2833 191.945 17.75C192.132 18.2167 192.225 18.7533 192.225 19.36C192.225 19.9667 192.132 20.5033 191.945 20.97C191.758 21.4367 191.502 21.8333 191.175 22.16C190.848 22.4773 190.466 22.72 190.027 22.888C189.588 23.056 189.112 23.14 188.599 23.14ZM188.599 21.782C189.159 21.782 189.621 21.586 189.985 21.194C190.358 20.802 190.545 20.1907 190.545 19.36C190.545 18.5387 190.358 17.932 189.985 17.54C189.621 17.1387 189.159 16.938 188.599 16.938C188.048 16.938 187.586 17.1387 187.213 17.54C186.849 17.932 186.667 18.5387 186.667 19.36C186.667 20.1907 186.849 20.802 187.213 21.194C187.586 21.586 188.048 21.782 188.599 21.782ZM197.63 17.302C197.098 17.2927 196.617 17.3767 196.188 17.554C195.758 17.7313 195.432 18.0113 195.208 18.394V23H193.584V15.734H195.068L195.18 17.246H195.208C195.441 16.798 195.758 16.4247 196.16 16.126C196.57 15.8273 197.06 15.65 197.63 15.594V17.302ZM202.931 22.776C202.763 22.8787 202.553 22.9627 202.301 23.028C202.049 23.1027 201.76 23.14 201.433 23.14C201.041 23.14 200.71 23.0887 200.439 22.986C200.178 22.874 199.963 22.7247 199.795 22.538C199.627 22.3513 199.506 22.1367 199.431 21.894C199.357 21.642 199.319 21.376 199.319 21.096V17.05H198.451V15.734H199.319V14.208H200.943V15.734H203.029V17.05H200.943V20.914C200.943 21.2127 201.013 21.432 201.153 21.572C201.303 21.712 201.545 21.782 201.881 21.782C202.105 21.782 202.301 21.7493 202.469 21.684C202.637 21.6187 202.791 21.53 202.931 21.418V22.776Z" fill="white"/>
</svg>
