<svg width="30" height="30" viewBox="0 0 30 30" fill="none" xmlns="http://www.w3.org/2000/svg">
<path fill-rule="evenodd" clip-rule="evenodd" d="M15 0C23.2846 0 30 6.71543 30 15C30 23.2846 23.2846 30 15 30C6.71543 30 0 23.2846 0 15C0 6.71543 6.71543 0 15 0Z" fill="url(#paint0_linear_9_22)"/>
<path d="M21.7512 9.58066L19.6154 20.3473C19.6154 20.3473 19.3166 21.0938 18.4957 20.7357L13.568 16.9576L13.5451 16.9465C14.2107 16.3488 19.3723 11.7082 19.5979 11.4979C19.9471 11.1721 19.7303 10.9781 19.3248 11.2242L11.7006 16.0658L8.75918 15.0762C8.75918 15.0762 8.29629 14.9115 8.25176 14.5535C8.20664 14.1949 8.77441 14.001 8.77441 14.001L20.7656 9.29707C20.7656 9.29707 21.7512 8.86406 21.7512 9.58066V9.58066Z" fill="#FEFEFE"/>
<defs>
<linearGradient id="paint0_linear_9_22" x1="3.97441" y1="4.8293" x2="27.7846" y2="22.8504" gradientUnits="userSpaceOnUse">
<stop stop-color="#28AAE0"/>
<stop offset="1" stop-color="#23B7EC"/>
</linearGradient>
</defs>
</svg>
