<svg width="30" height="30" viewBox="0 0 30 30" fill="none" xmlns="http://www.w3.org/2000/svg">
<path d="M15 1.152C7.35181 1.152 1.15201 7.3518 1.15201 15C1.15201 22.6482 7.35181 28.848 15 28.848C22.6482 28.848 28.848 22.6482 28.848 15C28.848 7.3518 22.6482 1.152 15 1.152ZM22.4424 20.2551C21.8514 20.6247 19.4499 20.7348 18.8685 20.3124C18.5496 20.0808 18.258 19.791 17.9811 19.515C17.7873 19.3221 17.5674 19.2285 17.4009 19.0191C17.265 18.8478 17.1717 18.6456 17.0286 18.4764C16.7871 18.1926 16.4154 17.9511 16.1214 18.2979C15.6786 18.8196 16.191 19.8441 15.6006 20.2338C15.4026 20.3646 15.2028 20.4024 14.9553 20.3838L14.4072 20.4087C14.0853 20.415 13.5753 20.418 13.209 20.352C12.8004 20.2782 12.4629 20.055 12.0933 19.8912C11.3919 19.5801 10.7238 19.1562 10.2153 18.5691C8.83141 16.9701 6.97261 14.7711 6.25051 12.7608C6.10201 12.3477 5.70961 11.5296 6.08161 11.1753C6.58741 10.8078 9.06991 10.7043 9.45721 11.2725C9.61441 11.5035 9.71371 11.8413 9.82501 12.1032C9.96361 12.4296 10.0386 12.7371 10.2552 13.026C10.4469 13.2822 10.5882 13.5399 10.7364 13.8207C10.9029 14.136 11.0601 14.4384 11.2626 14.7285C11.4 14.9259 11.7633 15.3186 11.9928 15.3477C12.5532 15.4194 12.5184 14.0577 12.4767 13.7253C12.4368 13.4049 12.4266 13.065 12.4371 12.7401C12.4461 12.4629 12.471 12.0723 12.3069 11.8461C12.0393 11.4771 11.4432 11.7531 11.3967 11.2572C11.4951 11.1165 11.4744 10.9917 12.1317 10.7751C12.6495 10.605 12.984 10.6104 13.3254 10.6377C14.0214 10.6935 14.7594 10.5051 15.4314 10.7307C16.0734 10.947 15.9741 11.8593 15.9525 12.4059C15.9234 13.152 15.9546 13.8804 15.9525 14.6379C15.9516 14.9826 15.9378 15.3183 16.3584 15.2901C16.7526 15.264 16.7928 14.9322 16.9809 14.6586C17.2425 14.277 17.4828 13.89 17.7492 13.5099C18.1083 12.996 18.2169 12.4185 18.555 11.892C18.6759 11.7039 18.78 11.3031 18.9663 11.1543C19.1073 11.0412 19.3752 11.1003 19.5459 11.1003H19.9518C20.2623 11.1003 20.5791 11.0979 20.8983 11.109C21.3579 11.1249 21.8727 11.0193 22.3284 11.0838C24.2949 11.3613 19.8567 15.5652 20.0877 16.3158C20.2473 16.8342 21.2598 17.4135 21.6252 17.838C22.1103 18.4035 23.6037 19.5276 22.4424 20.2551Z" fill="#4C75A3"/>
</svg>
