<svg width="120" height="120" viewBox="0 0 120 120" fill="none" xmlns="http://www.w3.org/2000/svg">
<path d="M81.0062 112.758C55.1802 127.668 22.1558 118.818 7.24411 92.9913C-7.66761 67.1645 1.18015 34.1409 27.0061 19.2309C52.8321 4.3209 85.8565 13.1707 100.768 38.9974C115.68 64.8242 106.832 97.8478 81.0062 112.758Z" fill="url(#paint0_linear)"/>
<path fill-rule="evenodd" clip-rule="evenodd" d="M120 3.99964L120 39.9964C120 42.2096 118.208 43.9961 116.006 43.9961L79.9886 43.9961C77.786 43.9961 75.9941 42.2096 75.9941 39.9964L75.9941 3.99964C75.9941 1.79984 77.786 -3.69064e-06 79.9886 -3.49807e-06L116.006 -3.49225e-07C118.208 -1.56662e-07 120 1.79984 120 3.99964Z" fill="url(#paint1_linear)"/>
<path d="M87.0869 21.0511L95.2865 29.2502L108.875 15.0249" stroke="#D95D2B" stroke-width="2" stroke-miterlimit="79.8403" stroke-linecap="round" stroke-linejoin="round"/>
<path d="M16.8472 95.7385C17.7896 91.9754 18.9279 88.7454 22.2584 87.1304C27.9661 84.4022 33.7693 82.2386 39.9458 80.2786C44.4476 78.5695 45.8228 75.6059 45.4951 70.7296C43.1477 69.3654 41.2912 66.5746 40.2029 63.3759C38.6741 58.4368 37.4918 50.8477 38.0673 44.8268C39.3343 35.3876 46.243 30.9976 54.2212 30.9976C62.1993 30.9976 69.1144 35.3876 70.3813 44.8268C70.9568 50.8477 69.7745 58.4368 68.2457 63.3759C67.1575 66.5746 65.3009 69.3654 62.9536 70.7296C62.6259 75.6059 64.001 78.5695 68.5028 80.2786C74.6793 82.2386 80.4826 84.4022 86.1902 87.1304C89.5207 88.7454 90.6591 91.9754 91.6015 95.7385" stroke="#D95D2B" stroke-width="2"/>
<defs>
<linearGradient id="paint0_linear" x1="53.9932" y1="14.029" x2="53.9932" y2="118.017" gradientUnits="userSpaceOnUse">
<stop offset="0.02" stop-color="#FF8C5E"/>
<stop offset="0.06" stop-color="#FF8C5E" stop-opacity="0.86"/>
<stop offset="0.11" stop-color="#FF8C5E" stop-opacity="0.72"/>
<stop offset="0.17" stop-color="#FF8C5E" stop-opacity="0.59"/>
<stop offset="0.23" stop-color="#FF8C5E" stop-opacity="0.48"/>
<stop offset="0.3" stop-color="#FF8C5E" stop-opacity="0.4"/>
<stop offset="0.38" stop-color="#FF8C5E" stop-opacity="0.33"/>
<stop offset="0.48" stop-color="#FF8C5E" stop-opacity="0.28"/>
<stop offset="0.61" stop-color="#FF8C5E" stop-opacity="0.26"/>
<stop offset="1" stop-color="#FF945E" stop-opacity="0.25"/>
</linearGradient>
<linearGradient id="paint1_linear" x1="98.0023" y1="-5.49973" x2="98.0024" y2="184.233" gradientUnits="userSpaceOnUse">
<stop offset="0.02" stop-color="#FF8C5E"/>
<stop offset="0.06" stop-color="#FF8C5E" stop-opacity="0.86"/>
<stop offset="0.11" stop-color="#FF8C5E" stop-opacity="0.72"/>
<stop offset="0.17" stop-color="#FF8C5E" stop-opacity="0.59"/>
<stop offset="0.23" stop-color="#FF8C5E" stop-opacity="0.48"/>
<stop offset="0.3" stop-color="#FF8C5E" stop-opacity="0.4"/>
<stop offset="0.38" stop-color="#FF8C5E" stop-opacity="0.33"/>
<stop offset="0.48" stop-color="#FF8C5E" stop-opacity="0.28"/>
<stop offset="0.61" stop-color="#FF8C5E" stop-opacity="0.26"/>
<stop offset="1" stop-color="#FF945E" stop-opacity="0.25"/>
</linearGradient>
</defs>
</svg>
