<svg width="121" height="120" viewBox="0 0 121 120" fill="none" xmlns="http://www.w3.org/2000/svg">
<path fill-rule="evenodd" clip-rule="evenodd" d="M29.4097 114V110.61C29.4097 104.959 32.6426 102.698 37.341 101.568V95.2666C47.78 86.361 50.9374 87.3555 50.9374 70.4031C46.5881 68.0825 42.5001 64.0591 39.607 59.1015C12.3236 48.4647 9.16844 20.757 8.94688 10.7086C8.90074 8.61587 10.62 7.00322 12.7132 7.00739L107.306 7.19566C109.393 7.19982 111.103 8.80921 111.056 10.8952C110.834 20.8953 107.678 48.4655 80.3964 59.1015C77.4535 64.029 73.37 68.0524 69.066 70.4031C69.066 87.3555 72.2234 86.361 82.6625 95.2666V101.568C87.3608 102.698 90.5937 104.959 90.5937 110.61V114H29.4097ZM30.5095 15.0253H17.0017C17.0017 15.0253 16.5017 37 34.7682 49.3068C31.0322 39.4819 29.2949 27.4872 30.5095 15.0253ZM103.041 15.0253H89.6133H89.4939C90.7085 27.4872 88.9712 39.4819 85.2352 49.3068C104.041 36.5 103.041 15.0253 103.041 15.0253Z" fill="url(#paint0_linear)"/>
<path fill-rule="evenodd" clip-rule="evenodd" d="M66.6701 50.2849C68.1377 51.0545 69.8509 49.8078 69.57 48.1746L68.2971 40.7737L73.6859 35.5287C74.8748 34.3716 74.2191 32.3534 72.5771 32.1161L65.1276 31.0393L61.7927 24.2963C61.0585 22.8119 58.9416 22.8118 58.2073 24.2961L54.8713 31.0393L47.4218 32.1161C45.7798 32.3534 45.1241 34.3716 46.3129 35.5287L51.7018 40.7737L50.4289 48.1743C50.148 49.8075 51.8613 51.0542 53.3289 50.2845L59.9986 46.7862L66.6701 50.2849Z" stroke="#D95D2B" stroke-width="2"/>
<defs>
<linearGradient id="paint0_linear" x1="60.0017" y1="-6.00001" x2="60.0017" y2="206" gradientUnits="userSpaceOnUse">
<stop offset="0.02" stop-color="#FF8C5E"/>
<stop offset="0.06" stop-color="#FF8C5E" stop-opacity="0.86"/>
<stop offset="0.11" stop-color="#FF8C5E" stop-opacity="0.72"/>
<stop offset="0.17" stop-color="#FF8C5E" stop-opacity="0.59"/>
<stop offset="0.23" stop-color="#FF8C5E" stop-opacity="0.48"/>
<stop offset="0.3" stop-color="#FF8C5E" stop-opacity="0.4"/>
<stop offset="0.38" stop-color="#FF8C5E" stop-opacity="0.33"/>
<stop offset="0.48" stop-color="#FF8C5E" stop-opacity="0.28"/>
<stop offset="0.61" stop-color="#FF8C5E" stop-opacity="0.26"/>
<stop offset="1" stop-color="#FF8C5E" stop-opacity="0.25"/>
</linearGradient>
</defs>
</svg>
