<svg width="120" height="120" viewBox="0 0 120 120" fill="none" xmlns="http://www.w3.org/2000/svg">
<path d="M3.99756 60.0027C3.99755 29.0732 29.0696 3.99994 59.9976 3.99994C90.9255 3.99994 115.998 29.0732 115.998 60.0027C115.998 90.9321 90.9255 116.005 59.9976 116.005C29.0696 116.005 3.99756 90.9321 3.99756 60.0027Z" fill="url(#paint0_linear)"/>
<path d="M13.9951 60.0029C13.9951 34.5978 34.5912 14.0029 59.9978 14.0029C85.4044 14.0029 106 34.5978 106 60.0029C106 85.408 85.4044 106.003 59.9978 106.003C34.5912 106.003 13.9951 85.408 13.9951 60.0029Z" fill="url(#paint1_linear)"/>
<path d="M35.9561 84.0445C22.6793 70.7678 22.6801 49.241 35.958 35.9632C49.2358 22.6853 70.7626 22.6845 84.0394 35.9612C97.3162 49.238 97.3153 70.7648 84.0374 84.0426C70.7596 97.3205 49.2329 97.3213 35.9561 84.0445Z" fill="url(#paint2_linear)"/>
<path d="M59.9817 39.5361V34.2827" stroke="#D95D2B" stroke-width="2" stroke-miterlimit="79.8403" stroke-linecap="round" stroke-linejoin="round"/>
<path d="M71.5284 44.7494C68.667 42.0826 65.7817 39.6826 59.9577 39.6826C54.1257 39.6826 48.667 43.016 48.667 49.4694C48.9203 54.776 53.547 57.7095 60.699 58.4561C68.8563 59.3895 74.0404 62.9894 72.9924 70.3494C72.0964 75.2294 67.8644 79.7093 60.1017 79.6025C53.0803 79.3093 49.027 75.7894 46.6003 70.6426" stroke="#D95D2B" stroke-width="2" stroke-miterlimit="79.8403" stroke-linecap="round" stroke-linejoin="round"/>
<path d="M59.9817 85.6826V80.4561" stroke="#D95D2B" stroke-width="2" stroke-miterlimit="79.8403" stroke-linecap="round" stroke-linejoin="round"/>
<defs>
<linearGradient id="paint0_linear" x1="133" y1="-30" x2="20.9999" y2="111" gradientUnits="userSpaceOnUse">
<stop offset="0.02" stop-color="#FF8C5E"/>
<stop offset="0.06" stop-color="#FF8C5E" stop-opacity="0.86"/>
<stop offset="0.11" stop-color="#FF8C5E" stop-opacity="0.72"/>
<stop offset="0.17" stop-color="#FF8C5E" stop-opacity="0.59"/>
<stop offset="0.23" stop-color="#FF8C5E" stop-opacity="0.48"/>
<stop offset="0.3" stop-color="#FF8C5E" stop-opacity="0.4"/>
<stop offset="0.38" stop-color="#FF8C5E" stop-opacity="0.33"/>
<stop offset="0.48" stop-color="#FF8C5E" stop-opacity="0.28"/>
<stop offset="0.61" stop-color="#FF8C5E" stop-opacity="0.26"/>
<stop offset="1" stop-color="#FF945E" stop-opacity="0.25"/>
</linearGradient>
<linearGradient id="paint1_linear" x1="106" y1="8.00025" x2="31" y2="97.0002" gradientUnits="userSpaceOnUse">
<stop offset="0.02" stop-color="#FF8C5E"/>
<stop offset="0.06" stop-color="#FF8C5E" stop-opacity="0.86"/>
<stop offset="0.11" stop-color="#FF8C5E" stop-opacity="0.72"/>
<stop offset="0.17" stop-color="#FF8C5E" stop-opacity="0.59"/>
<stop offset="0.23" stop-color="#FF8C5E" stop-opacity="0.48"/>
<stop offset="0.3" stop-color="#FF8C5E" stop-opacity="0.4"/>
<stop offset="0.38" stop-color="#FF8C5E" stop-opacity="0.33"/>
<stop offset="0.48" stop-color="#FF8C5E" stop-opacity="0.28"/>
<stop offset="0.61" stop-color="#FF8C5E" stop-opacity="0.26"/>
<stop offset="1" stop-color="#FF945E" stop-opacity="0.25"/>
</linearGradient>
<linearGradient id="paint2_linear" x1="86" y1="34" x2="-17.5" y2="137.5" gradientUnits="userSpaceOnUse">
<stop offset="0.02" stop-color="#FF8C5E"/>
<stop offset="0.06" stop-color="#FF8C5E" stop-opacity="0.86"/>
<stop offset="0.11" stop-color="#FF8C5E" stop-opacity="0.72"/>
<stop offset="0.17" stop-color="#FF8C5E" stop-opacity="0.59"/>
<stop offset="0.23" stop-color="#FF8C5E" stop-opacity="0.48"/>
<stop offset="0.3" stop-color="#FF8C5E" stop-opacity="0.4"/>
<stop offset="0.38" stop-color="#FF8C5E" stop-opacity="0.33"/>
<stop offset="0.48" stop-color="#FF8C5E" stop-opacity="0.28"/>
<stop offset="0.61" stop-color="#FF8C5E" stop-opacity="0.26"/>
<stop offset="1" stop-color="#FF945E" stop-opacity="0.25"/>
</linearGradient>
</defs>
</svg>
