<svg width="120" height="120" viewBox="0 0 120 120" fill="none" xmlns="http://www.w3.org/2000/svg">
<circle cx="60" cy="60" r="60" fill="url(#paint0_linear)"/>
<path fill-rule="evenodd" clip-rule="evenodd" d="M30.3687 82.6641C31.1001 79.7766 31.9836 77.2982 34.5684 76.059C38.9982 73.9656 43.5021 72.3055 48.2957 70.8016C51.7896 69.4902 52.8569 67.2162 52.6025 63.4746C50.7807 62.4279 49.3399 60.2864 48.4953 57.832C47.3088 54.0423 46.3912 48.2191 46.8378 43.5992C47.8211 36.3565 53.1867 33 59.3786 33C65.5705 33 70.9337 36.3565 71.917 43.5992C72.3636 48.2191 71.446 54.0423 70.2595 57.832C69.4149 60.2864 67.974 62.4279 66.1522 63.4746C65.8979 67.2162 66.9652 69.4902 70.4591 70.8016C75.2527 72.3055 79.7566 73.9656 84.1864 76.059C86.7712 77.2982 87.6547 79.7766 88.3861 82.6641C88.6684 85.0102 88.1269 86.6104 85.8463 86.6946H59.3774H32.9085C30.6279 86.6104 30.0864 85.0102 30.3687 82.6641Z" stroke="#D95D2B" stroke-width="2"/>
<path fill-rule="evenodd" clip-rule="evenodd" d="M31.1516 86.1151H15.3644C14.6892 86.0882 14.3754 85.853 14.207 85.5451C14.0126 85.1899 13.9499 84.6288 14.0415 83.8402C14.5606 81.7988 15.1492 80.2716 16.7502 79.5035C19.8734 78.0276 23.0532 76.855 26.4466 75.7905L26.4597 75.7863L26.4726 75.7815C27.7903 75.2869 28.7126 74.5856 29.264 73.6005C29.8091 72.6268 29.9519 71.4455 29.8584 70.0691L29.8403 69.8026L29.6086 69.6695C28.4592 69.0091 27.4934 67.6149 26.9139 65.9345C26.0867 63.2892 25.4497 59.2263 25.7569 56.0271C26.092 53.5745 27.1598 51.8155 28.6375 50.6638C30.1243 49.5051 32.064 48.9322 34.178 48.9322C36.292 48.9322 38.2314 49.5051 39.7177 50.6638C41.195 51.8154 42.2624 53.5745 42.5975 56.0271C42.9047 59.2263 42.2677 63.2892 41.4405 65.9345C40.861 67.6149 39.8952 69.0091 38.7458 69.6695L38.5141 69.8026L38.496 70.0691C38.4025 71.4455 38.5453 72.6268 39.0904 73.6005C39.1637 73.7314 39.2435 73.8574 39.33 73.9785C39.6515 73.8487 39.9738 73.7206 40.2969 73.5941C40.168 73.4414 40.0574 73.2808 39.963 73.1121C39.5802 72.4283 39.4273 71.5493 39.4793 70.3921C40.8022 69.5266 41.8008 67.9608 42.3884 66.2533L42.3929 66.24L42.3927 66.24C43.2513 63.4978 43.9174 59.2885 43.5919 55.9213L43.591 55.9117L43.5897 55.9022C43.2241 53.2094 42.0358 51.203 40.3325 49.8751C38.6363 48.5528 36.4672 47.9322 34.178 47.9322C31.8889 47.9322 29.7194 48.5528 28.0228 49.8751C26.319 51.2029 25.1303 53.2094 24.7647 55.9022L24.7634 55.9117L24.7625 55.9213C24.4369 59.2885 25.1031 63.4978 25.9617 66.24L25.9658 66.2533L25.966 66.2533C26.5536 67.9608 27.5522 69.5266 28.8751 70.3921C28.9271 71.5493 28.7742 72.4283 28.3914 73.1121C27.9889 73.8312 27.2931 74.4031 26.1339 74.8405C22.7151 75.9135 19.4939 77.1008 16.3216 78.5999L16.3191 78.6011C14.2531 79.5916 13.5831 81.5773 13.0641 83.6262L13.0562 83.6573L13.0524 83.6892C12.9485 84.5523 12.979 85.3841 13.3298 86.0252C13.7083 86.717 14.396 87.08 15.3364 87.1147L15.3456 87.1151H15.3549H52.9995H53.0088L53.018 87.1147C53.5844 87.0938 54.0591 86.9538 54.4299 86.6946H32.9085C32.1345 86.666 31.5608 86.4628 31.1516 86.1151Z" fill="#D95D2B"/>
<path d="M31.1516 86.1151L31.4754 85.7341L31.3354 85.6151H31.1516V86.1151ZM15.3644 86.1151L15.3445 86.6147L15.3545 86.6151H15.3644V86.1151ZM14.207 85.5451L14.6456 85.3051L14.6456 85.3051L14.207 85.5451ZM14.0415 83.8402L13.5569 83.717L13.5487 83.7493L13.5448 83.7825L14.0415 83.8402ZM16.7502 79.5035L16.5365 79.0514L16.5339 79.0527L16.7502 79.5035ZM26.4466 75.7905L26.2969 75.3134L26.2969 75.3134L26.4466 75.7905ZM26.4597 75.7863L26.6094 76.2634L26.6225 76.2593L26.6354 76.2544L26.4597 75.7863ZM26.4726 75.7815L26.2969 75.3134L26.2969 75.3134L26.4726 75.7815ZM29.264 73.6005L29.7003 73.8447L29.7003 73.8447L29.264 73.6005ZM29.8584 70.0691L29.3595 70.103L29.3595 70.103L29.8584 70.0691ZM29.8403 69.8026L30.3391 69.7687L30.321 69.5021L30.0893 69.3691L29.8403 69.8026ZM29.6086 69.6695L29.8577 69.236L29.8577 69.236L29.6086 69.6695ZM26.9139 65.9345L26.4367 66.0837L26.4388 66.0906L26.4412 66.0975L26.9139 65.9345ZM25.7569 56.0271L25.2615 55.9595L25.2602 55.9694L25.2592 55.9794L25.7569 56.0271ZM28.6375 50.6638L28.9449 51.0582L28.9449 51.0582L28.6375 50.6638ZM39.7177 50.6638L39.4103 51.0581L39.4103 51.0581L39.7177 50.6638ZM42.5975 56.0271L43.0952 55.9794L43.0942 55.9694L43.0929 55.9595L42.5975 56.0271ZM41.4405 65.9345L41.9132 66.0975L41.9156 66.0906L41.9177 66.0837L41.4405 65.9345ZM38.7458 69.6695L38.4967 69.236L38.4967 69.236L38.7458 69.6695ZM38.5141 69.8026L38.2651 69.3691L38.0334 69.5021L38.0153 69.7687L38.5141 69.8026ZM38.496 70.0691L38.9949 70.103L38.9949 70.103L38.496 70.0691ZM39.0904 73.6005L39.5267 73.3563L39.5267 73.3563L39.0904 73.6005ZM39.33 73.9785L38.923 74.269L39.1519 74.5896L39.5171 74.4421L39.33 73.9785ZM40.2969 73.5941L40.4792 74.0597L41.1296 73.8051L40.679 73.2715L40.2969 73.5941ZM39.963 73.1121L39.5267 73.3563L39.5267 73.3563L39.963 73.1121ZM39.4793 70.3921L39.2055 69.9737L38.9913 70.1139L38.9798 70.3697L39.4793 70.3921ZM42.3884 66.2533L41.9156 66.0906L41.9156 66.0906L42.3884 66.2533ZM42.3929 66.24L42.8657 66.4027L43.0325 65.9179L42.5437 65.7633L42.3929 66.24ZM42.3927 66.24L41.9156 66.0906L41.7666 66.5663L42.2419 66.7167L42.3927 66.24ZM43.5919 55.9213L43.0942 55.9694L43.0942 55.9694L43.5919 55.9213ZM43.591 55.9117L44.0887 55.8637L44.0877 55.854L44.0864 55.8444L43.591 55.9117ZM43.5897 55.9022L43.0942 55.9694L43.0943 55.9695L43.5897 55.9022ZM40.3325 49.8751L40.0251 50.2694L40.0251 50.2694L40.3325 49.8751ZM28.0228 49.8751L28.3301 50.2694L28.3301 50.2694L28.0228 49.8751ZM24.7647 55.9022L25.2601 55.9695L25.2602 55.9694L24.7647 55.9022ZM24.7634 55.9117L24.2679 55.8444L24.2666 55.854L24.2657 55.8636L24.7634 55.9117ZM24.7625 55.9213L24.2648 55.8732L24.2648 55.8732L24.7625 55.9213ZM25.9617 66.24L26.4388 66.0906L26.4388 66.0906L25.9617 66.24ZM25.9658 66.2533L25.4887 66.4027L25.6429 66.8955L26.1305 66.7255L25.9658 66.2533ZM25.966 66.2533L26.4388 66.0906L26.2755 65.6158L25.8014 65.7812L25.966 66.2533ZM28.8751 70.3921L29.3746 70.3697L29.3631 70.1139L29.1489 69.9737L28.8751 70.3921ZM28.3914 73.1121L28.8277 73.3563L28.8277 73.3563L28.3914 73.1121ZM26.1339 74.8405L26.2836 75.3176L26.2971 75.3133L26.3104 75.3083L26.1339 74.8405ZM16.3216 78.5999L16.108 78.1479L16.1067 78.1485L16.3216 78.5999ZM16.3191 78.6011L16.1041 78.1497L16.103 78.1503L16.3191 78.6011ZM13.0641 83.6262L12.5794 83.5034L12.5794 83.5034L13.0641 83.6262ZM13.0562 83.6573L12.5715 83.5345L12.5636 83.5657L12.5598 83.5976L13.0562 83.6573ZM13.0524 83.6892L12.556 83.6294L12.556 83.6294L13.0524 83.6892ZM13.3298 86.0252L13.7684 85.7852L13.7684 85.7852L13.3298 86.0252ZM15.3364 87.1147L15.3179 87.6144L15.318 87.6144L15.3364 87.1147ZM15.3456 87.1151L15.3272 87.6147L15.3364 87.6151H15.3456V87.1151ZM53.0088 87.1151V87.6151H53.018L53.0272 87.6147L53.0088 87.1151ZM53.018 87.1147L53.0364 87.6144L53.0364 87.6144L53.018 87.1147ZM54.4299 86.6946L54.7164 87.1044L56.0175 86.1946H54.4299V86.6946ZM32.9085 86.6946L32.89 87.1943L32.8993 87.1946H32.9085V86.6946ZM31.1516 85.6151H15.3644V86.6151H31.1516V85.6151ZM15.3843 85.6155C15.0993 85.6041 14.9333 85.5502 14.8357 85.4969C14.7453 85.4473 14.6895 85.3854 14.6456 85.3051L13.7684 85.7852C13.8929 86.0127 14.0783 86.2223 14.3556 86.3741C14.6259 86.522 14.9544 86.5992 15.3445 86.6147L15.3843 85.6155ZM14.6456 85.3051C14.5274 85.089 14.45 84.6569 14.5382 83.8978L13.5448 83.7825C13.4498 84.6007 13.4978 85.2907 13.7684 85.7852L14.6456 85.3051ZM14.5261 83.9634C15.0459 81.919 15.5924 80.6135 16.9665 79.9543L16.5339 79.0527C14.7059 79.9297 14.0753 81.6785 13.5569 83.717L14.5261 83.9634ZM16.9638 79.9555C20.0607 78.4921 23.2178 77.3274 26.5962 76.2675L26.2969 75.3134C22.8886 76.3827 19.6862 77.563 16.5365 79.0514L16.9638 79.9555ZM26.5962 76.2675L26.6094 76.2634L26.31 75.3093L26.2969 75.3134L26.5962 76.2675ZM26.6354 76.2544L26.6483 76.2496L26.2969 75.3134L26.284 75.3182L26.6354 76.2544ZM26.6483 76.2496C28.0412 75.7268 29.0751 74.9616 29.7003 73.8447L28.8277 73.3563C28.3501 74.2096 27.5393 74.8471 26.2969 75.3134L26.6483 76.2496ZM29.7003 73.8447C30.3127 72.7507 30.4539 71.4575 30.3572 70.0352L29.3595 70.103C29.45 71.4334 29.3054 72.5029 28.8277 73.3563L29.7003 73.8447ZM30.3572 70.0352L30.3391 69.7687L29.3414 69.8365L29.3595 70.103L30.3572 70.0352ZM30.0893 69.3691L29.8577 69.236L29.3595 70.103L29.5912 70.2361L30.0893 69.3691ZM29.8577 69.236C28.8526 68.6585 27.9447 67.3898 27.3866 65.7715L26.4412 66.0975C27.0421 67.8399 28.0658 69.3597 29.3595 70.103L29.8577 69.236ZM27.3911 65.7853C26.5787 63.1871 25.9552 59.1924 26.2546 56.0749L25.2592 55.9794C24.9441 59.2602 25.5948 63.3913 26.4367 66.0837L27.3911 65.7853ZM26.2523 56.0948C26.5714 53.7598 27.579 52.1227 28.9449 51.0582L28.3301 50.2694C26.7406 51.5083 25.6127 53.3893 25.2615 55.9595L26.2523 56.0948ZM28.9449 51.0582C30.3267 49.9812 32.1517 49.4322 34.178 49.4322V48.4322C31.9764 48.4322 29.9218 49.029 28.3301 50.2694L28.9449 51.0582ZM34.178 49.4322C36.2044 49.4322 38.0289 49.9812 39.4103 51.0581L40.0251 50.2694C38.4339 49.029 36.3797 48.4322 34.178 48.4322V49.4322ZM39.4103 51.0581C40.7757 52.1226 41.783 53.7596 42.1021 56.0948L43.0929 55.9595C42.7417 53.3893 41.6142 51.5083 40.0251 50.2694L39.4103 51.0581ZM42.0998 56.0749C42.3992 59.1924 41.7757 63.1871 40.9633 65.7853L41.9177 66.0837C42.7596 63.3913 43.4103 59.2602 43.0952 55.9794L42.0998 56.0749ZM40.9678 65.7715C40.4097 67.3898 39.5018 68.6585 38.4967 69.236L38.9949 70.103C40.2886 69.3597 41.3123 67.8399 41.9132 66.0975L40.9678 65.7715ZM38.4967 69.236L38.2651 69.3691L38.7632 70.2361L38.9949 70.103L38.4967 69.236ZM38.0153 69.7687L37.9972 70.0352L38.9949 70.103L39.013 69.8365L38.0153 69.7687ZM37.9972 70.0352C37.9005 71.4575 38.0417 72.7507 38.6541 73.8447L39.5267 73.3563C39.049 72.5029 38.9044 71.4334 38.9949 70.103L37.9972 70.0352ZM38.6541 73.8447C38.7362 73.9915 38.8259 74.133 38.923 74.269L39.7369 73.6879C39.6611 73.5818 39.5911 73.4713 39.5267 73.3563L38.6541 73.8447ZM39.5171 74.4421C39.837 74.313 40.1577 74.1856 40.4792 74.0597L40.1147 73.1285C39.7899 73.2556 39.466 73.3844 39.1428 73.5148L39.5171 74.4421ZM40.679 73.2715C40.5708 73.1435 40.4783 73.0091 40.3993 72.8679L39.5267 73.3563C39.6365 73.5525 39.7652 73.7394 39.9149 73.9167L40.679 73.2715ZM40.3993 72.8679C40.0795 72.2967 39.929 71.5227 39.9788 70.4145L38.9798 70.3697C38.9256 71.576 39.0809 72.5599 39.5267 73.3563L40.3993 72.8679ZM39.753 70.8105C41.2015 69.8629 42.2527 68.1843 42.8612 66.416L41.9156 66.0906C41.349 67.7372 40.4029 69.1903 39.2055 69.9737L39.753 70.8105ZM42.8612 66.416L42.8657 66.4027L41.9201 66.0773L41.9156 66.0906L42.8612 66.416ZM42.5437 65.7633L42.5435 65.7633L42.2419 66.7167L42.2421 66.7168L42.5437 65.7633ZM42.8699 66.3894C43.7432 63.6001 44.423 59.3224 44.0896 55.8732L43.0942 55.9694C43.4118 59.2547 42.7593 63.3956 41.9156 66.0906L42.8699 66.3894ZM44.0896 55.8732L44.0887 55.8637L43.0933 55.9598L43.0942 55.9694L44.0896 55.8732ZM44.0864 55.8444L44.0851 55.8348L43.0943 55.9695L43.0956 55.9791L44.0864 55.8444ZM44.0852 55.8349C43.7036 53.0247 42.4553 50.896 40.6399 49.4808L40.0251 50.2694C41.6163 51.5099 42.7446 53.3942 43.0942 55.9694L44.0852 55.8349ZM40.6399 49.4808C38.8388 48.0766 36.5547 47.4322 34.178 47.4322V48.4322C36.3797 48.4322 38.4339 49.029 40.0251 50.2694L40.6399 49.4808ZM34.178 47.4322C31.8014 47.4322 29.517 48.0766 27.7154 49.4807L28.3301 50.2694C29.9218 49.029 31.9764 48.4322 34.178 48.4322V47.4322ZM27.7154 49.4807C25.8996 50.8959 24.6508 53.0246 24.2692 55.8349L25.2602 55.9694C25.6098 53.3942 26.7385 51.5099 28.3301 50.2694L27.7154 49.4807ZM24.2692 55.8349L24.2679 55.8444L25.2588 55.979L25.2601 55.9695L24.2692 55.8349ZM24.2657 55.8636L24.2648 55.8732L25.2601 55.9694L25.2611 55.9598L24.2657 55.8636ZM24.2648 55.8732C23.9313 59.3224 24.6112 63.6001 25.4845 66.3894L26.4388 66.0906C25.5951 63.3956 24.9426 59.2547 25.2602 55.9694L24.2648 55.8732ZM25.4845 66.3894L25.4887 66.4027L26.443 66.104L26.4388 66.0906L25.4845 66.3894ZM26.1305 66.7255L26.1307 66.7254L25.8014 65.7812L25.8012 65.7812L26.1305 66.7255ZM25.4932 66.416C26.1017 68.1843 27.1529 69.8629 28.6014 70.8105L29.1489 69.9737C27.9515 69.1903 27.0054 67.7372 26.4388 66.0906L25.4932 66.416ZM28.3756 70.4145C28.4254 71.5227 28.2749 72.2967 27.9551 72.8678L28.8277 73.3563C29.2735 72.5599 29.4288 71.576 29.3746 70.3697L28.3756 70.4145ZM27.9551 72.8678C27.626 73.4559 27.041 73.9639 25.9574 74.3727L26.3104 75.3083C27.5452 74.8424 28.3519 74.2064 28.8277 73.3563L27.9551 72.8678ZM25.9841 74.3634C22.5504 75.4412 19.3066 76.6363 16.108 78.1479L16.5353 79.052C19.6812 77.5653 22.8798 76.3859 26.2836 75.3176L25.9841 74.3634ZM16.1067 78.1485L16.1041 78.1497L16.5341 79.0526L16.5366 79.0514L16.1067 78.1485ZM16.103 78.1503C13.809 79.25 13.0973 81.4588 12.5794 83.5034L13.5488 83.7489C14.0688 81.6958 14.6971 79.9332 16.5353 79.052L16.103 78.1503ZM12.5794 83.5034L12.5715 83.5345L13.5409 83.7801L13.5488 83.7489L12.5794 83.5034ZM12.5598 83.5976L12.556 83.6294L13.5488 83.7489L13.5526 83.717L12.5598 83.5976ZM12.556 83.6294C12.4486 84.5216 12.4635 85.4837 12.8911 86.2652L13.7684 85.7852C13.4945 85.2846 13.4484 84.583 13.5488 83.7489L12.556 83.6294ZM12.8911 86.2652C13.3749 87.1492 14.2491 87.5749 15.3179 87.6144L15.3549 86.6151C14.5429 86.5851 14.0418 86.2849 13.7684 85.7852L12.8911 86.2652ZM15.318 87.6144L15.3272 87.6147L15.364 86.6154L15.3548 86.6151L15.318 87.6144ZM15.3456 87.6151H15.3549V86.6151H15.3456V87.6151ZM15.3549 87.6151H52.9995V86.6151H15.3549V87.6151ZM52.9995 87.6151H53.0088V86.6151H52.9995V87.6151ZM53.0272 87.6147L53.0364 87.6144L52.9996 86.6151L52.9904 86.6154L53.0272 87.6147ZM53.0364 87.6144C53.6733 87.5909 54.2481 87.4318 54.7164 87.1044L54.1433 86.2849C53.8702 86.4758 53.4955 86.5968 52.9995 86.6151L53.0364 87.6144ZM54.4299 86.1946H32.9085V87.1946H54.4299V86.1946ZM32.927 86.195C32.2301 86.1692 31.7756 85.9892 31.4754 85.7341L30.8278 86.4961C31.3459 86.9364 32.0389 87.1628 32.89 87.1943L32.927 86.195Z" fill="#D95D2B"/>
<path fill-rule="evenodd" clip-rule="evenodd" d="M65.6174 86.6946C65.9881 86.9538 66.4628 87.0938 67.0292 87.1147L67.0385 87.1151H67.0477H104.692H104.702L104.711 87.1147C105.651 87.08 106.339 86.717 106.717 86.0252C107.068 85.3841 107.099 84.5523 106.995 83.6892L106.991 83.6573L106.983 83.6262C106.464 81.5773 105.794 79.5916 103.728 78.6011L103.726 78.5999C100.553 77.1008 97.3322 75.9135 93.9134 74.8405C92.7541 74.4031 92.0583 73.8312 91.6558 73.1121C91.273 72.4283 91.1201 71.5493 91.1721 70.3921C92.495 69.5266 93.4936 67.9608 94.0812 66.2533L94.0858 66.24L94.0856 66.24C94.9441 63.4978 95.6103 59.2885 95.2848 55.9213L95.2838 55.9117L95.2825 55.9022C94.917 53.2094 93.7287 51.203 92.0253 49.8751C90.3292 48.5528 88.16 47.9322 85.8709 47.9322C83.5817 47.9322 81.4122 48.5528 79.7156 49.8751C78.0119 51.2029 76.8231 53.2094 76.4575 55.9022L76.4562 55.9117L76.4553 55.9213C76.1298 59.2885 76.796 63.4978 77.6545 66.24L77.6587 66.2533L77.6589 66.2533C78.2464 67.9608 79.245 69.5266 80.568 70.3921C80.6199 71.5493 80.467 72.4283 80.0843 73.1121C79.9104 73.4226 79.6819 73.7057 79.385 73.9624C79.7221 74.0983 80.0584 74.2361 80.394 74.3759C80.6122 74.1393 80.7996 73.8815 80.9569 73.6005C81.5019 72.6268 81.6448 71.4455 81.5512 70.0691L81.5331 69.8026L81.3014 69.6695C80.152 69.0091 79.1862 67.6149 78.6067 65.9345C77.7796 63.2892 77.1425 59.2263 77.4497 56.0271C77.7849 53.5745 78.8526 51.8155 80.3303 50.6638C81.8171 49.5051 83.7569 48.9322 85.8709 48.9322C87.9849 48.9322 89.9242 49.5051 91.4105 50.6638C92.8878 51.8154 93.9552 53.5745 94.2903 56.0271C94.5975 59.2263 93.9605 63.2892 93.1333 65.9345C92.5538 67.6149 91.588 69.0091 90.4386 69.6695L90.207 69.8026L90.1889 70.0691C90.0953 71.4455 90.2382 72.6268 90.7832 73.6005C91.3346 74.5856 92.257 75.2869 93.5746 75.7815L93.5875 75.7863L93.6007 75.7905C96.9941 76.855 100.174 78.0276 103.297 79.5035C104.898 80.2717 105.487 81.7988 106.006 83.8402C106.097 84.6288 106.035 85.1899 105.84 85.5451C105.672 85.853 105.358 86.0882 104.683 86.1151H87.6033C87.1941 86.4628 86.6204 86.6661 85.8463 86.6946H65.6174Z" fill="#D95D2B"/>
<path d="M65.6174 86.6946V86.1946H64.0297L65.3309 87.1044L65.6174 86.6946ZM67.0292 87.1147L67.0108 87.6144L67.0108 87.6144L67.0292 87.1147ZM67.0385 87.1151L67.0201 87.6147L67.0293 87.6151H67.0385V87.1151ZM104.702 87.1151V87.6151H104.711L104.72 87.6147L104.702 87.1151ZM104.711 87.1147L104.729 87.6144L104.729 87.6144L104.711 87.1147ZM106.717 86.0252L106.279 85.7852L106.279 85.7852L106.717 86.0252ZM106.995 83.6892L106.498 83.7489L106.498 83.7489L106.995 83.6892ZM106.991 83.6573L107.487 83.5976L107.484 83.5657L107.476 83.5346L106.991 83.6573ZM106.983 83.6262L107.468 83.5034L107.468 83.5034L106.983 83.6262ZM103.728 78.6011L103.944 78.1503L103.943 78.1498L103.728 78.6011ZM103.726 78.5999L103.941 78.1486L103.939 78.1479L103.726 78.5999ZM93.9134 74.8405L93.7369 75.3083L93.7501 75.3133L93.7637 75.3176L93.9134 74.8405ZM91.6558 73.1121L91.2195 73.3563L91.2195 73.3563L91.6558 73.1121ZM91.1721 70.3921L90.8984 69.9737L90.6841 70.1139L90.6726 70.3697L91.1721 70.3921ZM94.0812 66.2533L93.6084 66.0906L93.6084 66.0906L94.0812 66.2533ZM94.0858 66.24L94.5585 66.4027L94.7254 65.9179L94.2366 65.7633L94.0858 66.24ZM94.0856 66.24L93.6084 66.0906L93.4595 66.5663L93.9348 66.7167L94.0856 66.24ZM95.2848 55.9213L94.7871 55.9694L94.7871 55.9694L95.2848 55.9213ZM95.2838 55.9117L95.7815 55.8637L95.7806 55.854L95.7793 55.8444L95.2838 55.9117ZM95.2825 55.9022L94.7871 55.9694L94.7871 55.9695L95.2825 55.9022ZM92.0253 49.8751L91.7179 50.2694L91.7179 50.2694L92.0253 49.8751ZM79.7156 49.8751L80.023 50.2694L80.023 50.2694L79.7156 49.8751ZM76.4575 55.9022L76.953 55.9695L76.953 55.9694L76.4575 55.9022ZM76.4562 55.9117L75.9608 55.8444L75.9595 55.854L75.9585 55.8636L76.4562 55.9117ZM76.4553 55.9213L75.9576 55.8732L75.9576 55.8732L76.4553 55.9213ZM77.6545 66.24L78.1317 66.0906L78.1316 66.0906L77.6545 66.24ZM77.6587 66.2533L77.1815 66.4027L77.3358 66.8955L77.8233 66.7255L77.6587 66.2533ZM77.6589 66.2533L78.1316 66.0906L77.9683 65.6158L77.4942 65.7812L77.6589 66.2533ZM80.568 70.3921L81.0675 70.3697L81.056 70.1139L80.8417 69.9737L80.568 70.3921ZM80.0843 73.1121L80.5206 73.3563L80.5206 73.3563L80.0843 73.1121ZM79.385 73.9624L79.058 73.5841L78.4383 74.1199L79.198 74.4261L79.385 73.9624ZM80.394 74.3759L80.2017 74.8375L80.5245 74.9719L80.7616 74.7149L80.394 74.3759ZM80.9569 73.6005L81.3932 73.8447L81.3932 73.8447L80.9569 73.6005ZM81.5512 70.0691L81.0524 70.103L81.0524 70.103L81.5512 70.0691ZM81.5331 69.8026L82.0319 69.7687L82.0138 69.5021L81.7822 69.3691L81.5331 69.8026ZM81.3014 69.6695L81.5505 69.236L81.5505 69.236L81.3014 69.6695ZM78.6067 65.9345L78.1295 66.0837L78.1317 66.0906L78.134 66.0975L78.6067 65.9345ZM77.4497 56.0271L76.9543 55.9595L76.953 55.9694L76.952 55.9794L77.4497 56.0271ZM80.3303 50.6638L80.6377 51.0582L80.6377 51.0582L80.3303 50.6638ZM91.4105 50.6638L91.1031 51.0581L91.1031 51.0581L91.4105 50.6638ZM94.2903 56.0271L94.788 55.9794L94.7871 55.9694L94.7857 55.9595L94.2903 56.0271ZM93.1333 65.9345L93.606 66.0975L93.6084 66.0906L93.6106 66.0837L93.1333 65.9345ZM90.4386 69.6695L90.1895 69.236L90.1895 69.236L90.4386 69.6695ZM90.207 69.8026L89.9579 69.3691L89.7262 69.5021L89.7081 69.7687L90.207 69.8026ZM90.1889 70.0691L90.6877 70.103L90.6877 70.103L90.1889 70.0691ZM90.7832 73.6005L90.3469 73.8447L90.3469 73.8447L90.7832 73.6005ZM93.5746 75.7815L93.7503 75.3134L93.7503 75.3134L93.5746 75.7815ZM93.5875 75.7863L93.4118 76.2544L93.4247 76.2593L93.4379 76.2634L93.5875 75.7863ZM93.6007 75.7905L93.451 76.2675L93.451 76.2675L93.6007 75.7905ZM103.297 79.5035L103.513 79.0527L103.511 79.0514L103.297 79.5035ZM106.006 83.8402L106.502 83.7825L106.499 83.7493L106.49 83.7169L106.006 83.8402ZM105.84 85.5451L106.279 85.7852L106.279 85.7852L105.84 85.5451ZM104.683 86.1151V86.6151H104.693L104.703 86.6147L104.683 86.1151ZM87.6033 86.1151V85.6151H87.4195L87.2795 85.7341L87.6033 86.1151ZM85.8463 86.6946V87.1946H85.8556L85.8648 87.1943L85.8463 86.6946ZM65.3309 87.1044C65.7992 87.4318 66.3739 87.5909 67.0108 87.6144L67.0477 86.6151C66.5517 86.5968 66.1771 86.4759 65.9039 86.2849L65.3309 87.1044ZM67.0108 87.6144L67.0201 87.6147L67.0568 86.6154L67.0476 86.6151L67.0108 87.6144ZM67.0385 87.6151H67.0477V86.6151H67.0385V87.6151ZM67.0477 87.6151H104.692V86.6151H67.0477V87.6151ZM104.692 87.6151H104.702V86.6151H104.692V87.6151ZM104.72 87.6147L104.729 87.6144L104.692 86.6151L104.683 86.6154L104.72 87.6147ZM104.729 87.6144C105.798 87.5749 106.672 87.1492 107.156 86.2652L106.279 85.7852C106.005 86.2849 105.504 86.5851 104.692 86.6151L104.729 87.6144ZM107.156 86.2652C107.584 85.4837 107.599 84.5216 107.491 83.6294L106.498 83.7489C106.599 84.583 106.553 85.2846 106.279 85.7852L107.156 86.2652ZM107.491 83.6294L107.487 83.5976L106.495 83.717L106.498 83.7489L107.491 83.6294ZM107.476 83.5346L107.468 83.5034L106.498 83.7489L106.506 83.78L107.476 83.5346ZM107.468 83.5034C106.95 81.4588 106.238 79.25 103.944 78.1503L103.512 79.052C105.35 79.9332 105.978 81.6958 106.498 83.7489L107.468 83.5034ZM103.943 78.1498L103.941 78.1486L103.511 79.0513L103.513 79.0525L103.943 78.1498ZM103.939 78.1479C100.741 76.6363 97.4969 75.4412 94.0631 74.3634L93.7637 75.3176C97.1675 76.3859 100.366 77.5653 103.512 79.052L103.939 78.1479ZM94.0899 74.3727C93.0062 73.9639 92.4212 73.4559 92.0921 72.8679L91.2195 73.3563C91.6954 74.2064 92.502 74.8424 93.7369 75.3083L94.0899 74.3727ZM92.0921 72.8679C91.7724 72.2967 91.6218 71.5227 91.6716 70.4145L90.6726 70.3697C90.6184 71.576 90.7737 72.5599 91.2195 73.3563L92.0921 72.8679ZM91.4458 70.8105C92.8943 69.8629 93.9455 68.1843 94.554 66.416L93.6084 66.0906C93.0418 67.7372 92.0957 69.1903 90.8984 69.9737L91.4458 70.8105ZM94.554 66.416L94.5585 66.4027L93.613 66.0773L93.6084 66.0906L94.554 66.416ZM94.2366 65.7633L94.2364 65.7633L93.9348 66.7167L93.935 66.7168L94.2366 65.7633ZM94.5627 66.3894C95.436 63.6001 96.1159 59.3224 95.7824 55.8732L94.7871 55.9694C95.1047 59.2547 94.4522 63.3956 93.6084 66.0906L94.5627 66.3894ZM95.7824 55.8732L95.7815 55.8637L94.7861 55.9598L94.7871 55.9694L95.7824 55.8732ZM95.7793 55.8444L95.778 55.8348L94.7871 55.9695L94.7884 55.9791L95.7793 55.8444ZM95.778 55.8349C95.3965 53.0247 94.1482 50.896 92.3328 49.4808L91.7179 50.2694C93.3092 51.5099 94.4374 53.3942 94.7871 55.9694L95.778 55.8349ZM92.3328 49.4808C90.5316 48.0766 88.2475 47.4322 85.8709 47.4322V48.4322C88.0725 48.4322 90.1267 49.029 91.7179 50.2694L92.3328 49.4808ZM85.8709 47.4322C83.4942 47.4322 81.2098 48.0766 79.4082 49.4807L80.023 50.2694C81.6146 49.029 83.6693 48.4322 85.8709 48.4322V47.4322ZM79.4082 49.4807C77.5924 50.8959 76.3436 53.0246 75.9621 55.8349L76.953 55.9694C77.3026 53.3942 78.4313 51.5099 80.023 50.2694L79.4082 49.4807ZM75.9621 55.8349L75.9608 55.8444L76.9517 55.979L76.953 55.9695L75.9621 55.8349ZM75.9585 55.8636L75.9576 55.8732L76.953 55.9694L76.9539 55.9598L75.9585 55.8636ZM75.9576 55.8732C75.6242 59.3224 76.304 63.6001 77.1773 66.3894L78.1316 66.0906C77.2879 63.3956 76.6354 59.2547 76.953 55.9694L75.9576 55.8732ZM77.1773 66.3894L77.1815 66.4027L78.1358 66.104L78.1317 66.0906L77.1773 66.3894ZM77.8233 66.7255L77.8235 66.7254L77.4942 65.7812L77.494 65.7812L77.8233 66.7255ZM77.1861 66.416C77.7946 68.1843 78.8457 69.8629 80.2942 70.8105L80.8417 69.9737C79.6443 69.1903 78.6983 67.7372 78.1316 66.0906L77.1861 66.416ZM80.0685 70.4145C80.1182 71.5227 79.9677 72.2967 79.648 72.8678L80.5206 73.3563C80.9663 72.5599 81.1216 71.576 81.0675 70.3697L80.0685 70.4145ZM79.648 72.8678C79.5031 73.1266 79.3119 73.3646 79.058 73.5841L79.712 74.3407C80.0519 74.0468 80.3178 73.7186 80.5206 73.3563L79.648 72.8678ZM79.198 74.4261C79.5334 74.5614 79.868 74.6984 80.2017 74.8375L80.5863 73.9143C80.2489 73.7738 79.9108 73.6353 79.5719 73.4987L79.198 74.4261ZM80.7616 74.7149C81.0061 74.4497 81.2166 74.1601 81.3932 73.8447L80.5206 73.3563C80.3826 73.6028 80.2183 73.8289 80.0264 74.0369L80.7616 74.7149ZM81.3932 73.8447C82.0055 72.7507 82.1467 71.4575 82.0501 70.0352L81.0524 70.103C81.1428 71.4334 80.9983 72.5029 80.5206 73.3563L81.3932 73.8447ZM82.0501 70.0352L82.0319 69.7687L81.0342 69.8365L81.0524 70.103L82.0501 70.0352ZM81.7822 69.3691L81.5505 69.236L81.0524 70.103L81.284 70.2361L81.7822 69.3691ZM81.5505 69.236C80.5455 68.6585 79.6375 67.3898 79.0794 65.7715L78.134 66.0975C78.7349 67.8399 79.7586 69.3597 81.0524 70.103L81.5505 69.236ZM79.0839 65.7853C78.2715 63.1871 77.6481 59.1924 77.9474 56.0749L76.952 55.9794C76.637 59.2602 77.2876 63.3913 78.1295 66.0837L79.0839 65.7853ZM77.9451 56.0948C78.2642 53.7598 79.2718 52.1227 80.6377 51.0582L80.023 50.2694C78.4334 51.5083 77.3055 53.3893 76.9543 55.9595L77.9451 56.0948ZM80.6377 51.0582C82.0196 49.9812 83.8445 49.4322 85.8709 49.4322V48.4322C83.6693 48.4322 81.6146 49.029 80.023 50.2694L80.6377 51.0582ZM85.8709 49.4322C87.8972 49.4322 89.7217 49.9812 91.1031 51.0581L91.7179 50.2694C90.1267 49.029 88.0725 48.4322 85.8709 48.4322V49.4322ZM91.1031 51.0581C92.4685 52.1226 93.4758 53.7596 93.7949 56.0948L94.7857 55.9595C94.4345 53.3893 93.3071 51.5083 91.7179 50.2694L91.1031 51.0581ZM93.7926 56.0749C94.092 59.1924 93.4685 63.1871 92.6561 65.7853L93.6106 66.0837C94.4524 63.3913 95.1031 59.2602 94.788 55.9794L93.7926 56.0749ZM92.6607 65.7715C92.1026 67.3898 91.1946 68.6585 90.1895 69.236L90.6877 70.103C91.9815 69.3597 93.0051 67.8399 93.606 66.0975L92.6607 65.7715ZM90.1895 69.236L89.9579 69.3691L90.4561 70.2361L90.6877 70.103L90.1895 69.236ZM89.7081 69.7687L89.69 70.0352L90.6877 70.103L90.7058 69.8365L89.7081 69.7687ZM89.69 70.0352C89.5933 71.4575 89.7345 72.7507 90.3469 73.8447L91.2195 73.3563C90.7418 72.5029 90.5973 71.4334 90.6877 70.103L89.69 70.0352ZM90.3469 73.8447C90.9721 74.9616 92.006 75.7268 93.3989 76.2496L93.7503 75.3134C92.5079 74.8471 91.6971 74.2096 91.2195 73.3563L90.3469 73.8447ZM93.3989 76.2496L93.4118 76.2544L93.7632 75.3182L93.7503 75.3134L93.3989 76.2496ZM93.4379 76.2634L93.451 76.2675L93.7503 75.3134L93.7372 75.3093L93.4379 76.2634ZM93.451 76.2675C96.8294 77.3274 99.9866 78.4921 103.084 79.9556L103.511 79.0514C100.361 77.5631 97.1587 76.3827 93.7503 75.3134L93.451 76.2675ZM103.081 79.9543C104.455 80.6136 105.001 81.9191 105.521 83.9634L106.49 83.7169C105.972 81.6785 105.341 79.9298 103.513 79.0527L103.081 79.9543ZM105.509 83.8978C105.597 84.6569 105.52 85.089 105.402 85.3051L106.279 85.7852C106.549 85.2907 106.597 84.6007 106.502 83.7825L105.509 83.8978ZM105.402 85.3051C105.358 85.3854 105.302 85.4473 105.211 85.4969C105.114 85.5502 104.948 85.6041 104.663 85.6155L104.703 86.6147C105.093 86.5992 105.421 86.522 105.692 86.3741C105.969 86.2223 106.154 86.0127 106.279 85.7852L105.402 85.3051ZM104.683 85.6151H87.6033V86.6151H104.683V85.6151ZM87.2795 85.7341C86.9792 85.9893 86.5248 86.1693 85.8279 86.195L85.8648 87.1943C86.716 87.1629 87.409 86.9364 87.9271 86.4961L87.2795 85.7341ZM85.8463 86.1946H65.6174V87.1946H85.8463V86.1946Z" fill="#D95D2B"/>
<defs>
<linearGradient id="paint0_linear" x1="59.9856" y1="0" x2="59.9856" y2="516" gradientUnits="userSpaceOnUse">
<stop offset="0.02" stop-color="#FF8C5E" stop-opacity="0.87"/>
<stop offset="0.06" stop-color="#FF8C5E" stop-opacity="0.67"/>
<stop offset="0.11" stop-color="#FF8C5E" stop-opacity="0.53"/>
<stop offset="0.17" stop-color="#FF8C5E" stop-opacity="0.27"/>
<stop offset="0.23" stop-color="#FF8C5E" stop-opacity="0.26"/>
<stop offset="0.3" stop-color="#FF8C5E" stop-opacity="0.4"/>
<stop offset="0.38" stop-color="#FF8C5E" stop-opacity="0.33"/>
<stop offset="0.48" stop-color="#FF8C5E" stop-opacity="0.28"/>
<stop offset="0.61" stop-color="#FF8C5E" stop-opacity="0.26"/>
<stop offset="1" stop-color="#FF945E" stop-opacity="0.25"/>
</linearGradient>
</defs>
</svg>
