<?xml version="1.0" encoding="UTF-8"?>
<svg width="24px" height="22px" viewBox="0 0 24 22" version="1.1" xmlns="http://www.w3.org/2000/svg" xmlns:xlink="http://www.w3.org/1999/xlink">
    <!-- Generator: Sketch 48.2 (47327) - http://www.bohemiancoding.com/sketch -->
    <title>common_navbar_map</title>
    <desc>Created with Sketch.</desc>
    <defs></defs>
    <g id="3.-Navbar-glyphs" stroke="none" stroke-width="1" fill="none" fill-rule="evenodd" transform="translate(-60.000000, -925.000000)">
        <g id="icons" transform="translate(60.000000, 348.000000)" fill="#666666">
            <g id="common_navbar_map" transform="translate(0.000000, 577.000000)">
                <path d="M9.68054111,4.08184948 L2.51580926,2.57348488 C2.14364225,2.49513393 2,2.61188557 2,2.99420208 L2,18.0092049 C2,18.1611141 2.21246063,18.4219404 2.36890823,18.4548767 L9.30000305,19.9000244 L14.3194589,17.9181505 L21.4841907,19.4265151 C21.8563578,19.5048661 22,19.3881144 22,19.0057979 L22,3.99079514 C22,3.83888593 21.7875394,3.57805964 21.6310918,3.5451233 L14.701871,2.09997559 L9.68054111,4.08184948 Z M14.5,0 L14.5,0 L22.0431127,1.58802373 C23.123291,1.81542969 24,2.89130934 24,3.99079514 L24,19.0057979 C24,20.656688 22.6891658,21.7240349 21.0721698,21.3836147 L14.5,20 L9.5,22 L1.95688727,20.4119763 C0.876708984,20.1845703 0,19.1086907 0,18.0092049 L0,2.99420208 C0,1.34331197 1.31083424,0.275965104 2.92783023,0.616385311 L9.5,2 L14.5,0 Z" id="Shape"></path>
                <rect id="Rectangle-1006" x="8" y="2.5" width="2" height="18.5"></rect>
                <rect id="Rectangle-1007" x="14" y="0.5" width="2" height="18.5"></rect>
            </g>
        </g>
    </g>
</svg>