<svg width="30" height="30" viewBox="0 0 30 30" fill="none" xmlns="http://www.w3.org/2000/svg">
<rect width="30" height="30" fill="white"/>
<path d="M0 15C0 6.71575 6.71575 0 15 0C23.2843 0 30 6.71575 30 15C30 23.2843 23.2843 30 15 30C6.71575 30 0 23.2843 0 15Z" fill="#73148B"/>
<path d="M10.3347 17.1231C10.3347 18.0535 9.57455 18.8136 8.64412 18.8136C7.71369 18.8136 6.95363 18.0535 6.95363 17.1231C6.95363 16.1925 7.71369 15.4325 8.64412 15.4325H10.3347V17.1231Z" fill="#E01E5A"/>
<path d="M11.1865 17.1231C11.1865 16.1925 11.9466 15.4325 12.877 15.4325C13.8075 15.4325 14.5676 16.1925 14.5676 17.1231V21.3559C14.5676 22.2863 13.8075 23.0464 12.877 23.0464C11.9466 23.0464 11.1865 22.2863 11.1865 21.3559V17.1231Z" fill="#E01E5A"/>
<path d="M12.877 10.3347C11.9466 10.3347 11.1865 9.57463 11.1865 8.6442C11.1865 7.71375 11.9466 6.95369 12.877 6.95369C13.8075 6.95369 14.5676 7.71375 14.5676 8.6442V10.3347H12.877Z" fill="#36C5F0"/>
<path d="M12.877 11.1865C13.8075 11.1865 14.5676 11.9466 14.5676 12.877C14.5676 13.8075 13.8075 14.5676 12.877 14.5676H8.64412C7.71369 14.5676 6.95363 13.8075 6.95363 12.877C6.95363 11.9466 7.71369 11.1865 8.64412 11.1865H12.877Z" fill="#36C5F0"/>
<path d="M19.6653 12.877C19.6653 11.9466 20.4254 11.1865 21.3558 11.1865C22.2863 11.1865 23.0463 11.9466 23.0463 12.877C23.0463 13.8075 22.2863 14.5676 21.3558 14.5676H19.6653V12.877Z" fill="#2EB67D"/>
<path d="M18.8135 12.877C18.8135 13.8075 18.0534 14.5676 17.123 14.5676C16.1925 14.5676 15.4324 13.8075 15.4324 12.877V8.6442C15.4324 7.71375 16.1925 6.95369 17.123 6.95369C18.0534 6.95369 18.8135 7.71375 18.8135 8.6442V12.877Z" fill="#2EB67D"/>
<path d="M17.123 19.6653C18.0534 19.6653 18.8135 20.4255 18.8135 21.3559C18.8135 22.2863 18.0534 23.0464 17.123 23.0464C16.1925 23.0464 15.4324 22.2863 15.4324 21.3559V19.6653H17.123Z" fill="#ECB22E"/>
<path d="M17.123 18.8136C16.1925 18.8136 15.4324 18.0535 15.4324 17.1231C15.4324 16.1925 16.1925 15.4325 17.123 15.4325H21.3558C22.2863 15.4325 23.0463 16.1925 23.0463 17.1231C23.0463 18.0535 22.2863 18.8136 21.3558 18.8136H17.123Z" fill="#ECB22E"/>
</svg>
