<svg width="36" height="36" viewBox="0 0 36 36" fill="none" xmlns="http://www.w3.org/2000/svg">
<path fill-rule="evenodd" clip-rule="evenodd" d="M28.8007 15.2173C29.4685 14.6699 30.3033 13.9855 31.9682 13.9855C34.1852 13.9855 35.9873 15.7897 35.9873 18.0041C35.9873 20.2186 34.1894 22.0186 31.9682 22.0186C30.322 22.0186 29.4877 21.3377 28.8179 20.7911C28.3673 20.4234 27.9911 20.1164 27.4923 20.1181H23.1128L26.2057 23.2074C26.556 23.5556 27.0343 23.6025 27.6077 23.6588C28.468 23.7432 29.5423 23.8486 30.7193 25.0241C32.2909 26.5939 32.2909 29.1348 30.7193 30.7046C29.1477 32.2744 26.6038 32.2744 25.0322 30.7046C23.8699 29.5411 23.7617 28.4719 23.6747 27.613C23.6162 27.035 23.5674 26.5524 23.2133 26.2004C22.832 25.8237 21.5034 24.4967 20.1163 23.1069V27.4772C20.1163 27.9717 20.4214 28.3434 20.7874 28.7891C21.3351 29.4562 22.0189 30.2891 22.0189 31.9479C22.0189 34.1665 20.221 35.9623 17.9998 35.9623C15.7828 35.9623 13.9807 34.1665 13.9807 31.9479C13.9807 30.3066 14.6619 29.4743 15.2091 28.8057C15.5775 28.3557 15.8851 27.9798 15.8834 27.4814V23.1027L12.7905 26.1921C12.4419 26.542 12.3949 27.0197 12.3386 27.5925C12.2541 28.4518 12.1486 29.5249 10.9717 30.7004C9.40007 32.2702 6.85618 32.2702 5.28459 30.7004C3.71299 29.1307 3.71299 26.5897 5.28459 25.02C6.44942 23.859 7.51993 23.7509 8.37975 23.6641C8.95842 23.6056 9.44166 23.5568 9.79402 23.2032C10.1712 22.8223 11.4997 21.4953 12.8911 20.1097H8.5116C8.01645 20.1097 7.64432 20.4146 7.19814 20.7801C6.53025 21.3272 5.69643 22.0102 4.03569 22.0102C1.81451 22.0102 0.0166016 20.2102 0.0166016 17.9958C0.0166016 15.7814 1.81451 13.9814 4.03569 13.9814C5.67888 13.9814 6.51213 14.6618 7.18148 15.2083C7.63203 15.5762 8.00833 15.8835 8.50741 15.8818H12.8911L9.79402 12.7883C9.44315 12.4379 8.96384 12.391 8.38923 12.3349C7.52936 12.2508 6.45608 12.1459 5.2804 10.9716C3.7088 9.40182 3.7088 6.86089 5.2804 5.29112C6.85199 3.72554 9.40007 3.72135 10.9675 5.29112C12.1298 6.4546 12.238 7.52386 12.3249 8.38269C12.3834 8.96068 12.4323 9.44337 12.7863 9.79531L15.8876 12.893V8.51856C15.8876 8.0264 15.5833 7.65607 15.2181 7.21161C14.6701 6.54468 13.9849 5.71081 13.9849 4.04787C13.9849 1.83345 15.7828 0.0334473 18.004 0.0334473C20.221 0.0334473 22.0231 1.82926 22.0231 4.04787C22.0231 5.69215 21.3415 6.52544 20.7942 7.19452C20.4261 7.64455 20.1188 8.0203 20.1204 8.51856V12.893L23.2175 9.79531C23.5685 9.44647 23.6153 8.96863 23.6716 8.39517C23.7557 7.53725 23.8608 6.46531 25.0364 5.29112C26.608 3.72135 29.1519 3.72135 30.7235 5.29112C32.2909 6.86089 32.2951 9.40601 30.7235 10.9716C29.5586 12.1326 28.4881 12.2407 27.6283 12.3275C27.0496 12.3859 26.5664 12.4347 26.214 12.7883L23.1128 15.886H27.4923C27.985 15.886 28.3558 15.5821 28.8007 15.2173ZM17.9202 18.2218H18.0795L18.2136 18.0879V17.8995L18.1004 17.7865H17.8993L17.7777 17.9079V18.0795L17.9202 18.2218Z" fill="#FFCC00"/>
<path fill-rule="evenodd" clip-rule="evenodd" d="M18.0922 25.1874C21.973 25.1874 25.1958 21.9683 25.1958 18.092C25.1958 14.0274 21.973 10.8125 18.0922 10.8125C14.0228 10.8125 10.8042 14.0316 10.8042 18.092C10.8042 21.9683 14.027 25.1874 18.0922 25.1874Z" fill="#FF0000"/>
</svg>
