<svg width="16" height="15" viewBox="0 0 12 11" xmlns="http://www.w3.org/2000/svg" fill="#000">
    <path d="M8.9.338C9.16.128 9.49 0 9.85 0c.828 0 1.5.672 1.5 1.5 0 .463-.21.878-.54 1.153-.342-.98-1.026-1.8-1.91-2.315zM6.2 4.55h1.5v1.5h-3v-3h1.5v1.5zM.62 2.714C.243 2.442 0 2 0 1.5 0 .672.672 0 1.5 0c.38 0 .726.14.99.373C1.618.903.946 1.73.62 2.713zM.7 5.05c0-2.76 2.24-5 5-5s5 2.24 5 5-2.24 5-5 5-5-2.24-5-5zm8.61.005c0-1.988-1.617-3.605-3.605-3.605S2.1 3.067 2.1 5.055 3.717 8.66 5.705 8.66 9.31 7.043 9.31 5.055z" fill-rule="evenodd"/>
</svg>