<?xml version="1.0" encoding="UTF-8" standalone="no"?>
<svg
   xmlns:dc="http://purl.org/dc/elements/1.1/"
   xmlns:cc="http://creativecommons.org/ns#"
   xmlns:rdf="http://www.w3.org/1999/02/22-rdf-syntax-ns#"
   xmlns:svg="http://www.w3.org/2000/svg"
   xmlns="http://www.w3.org/2000/svg"
   xmlns:sodipodi="http://sodipodi.sourceforge.net/DTD/sodipodi-0.dtd"
   xmlns:inkscape="http://www.inkscape.org/namespaces/inkscape"
   viewBox="0 -256 18 15"
   id="svg3025"
   version="1.1"
   inkscape:version="0.91 r13725"
   width="14.4pt"
   height="12pt"
   sodipodi:docname="menu.svg">
  <metadata
     id="metadata3035">
    <rdf:RDF>
      <cc:Work
         rdf:about="">
        <dc:format>image/svg+xml</dc:format>
        <dc:type
           rdf:resource="http://purl.org/dc/dcmitype/StillImage" />
        <dc:title></dc:title>
      </cc:Work>
    </rdf:RDF>
  </metadata>
  <defs
     id="defs3033" />
  <sodipodi:namedview
     pagecolor="#ffffff"
     bordercolor="#666666"
     borderopacity="1"
     objecttolerance="10"
     gridtolerance="10"
     guidetolerance="10"
     inkscape:pageopacity="0"
     inkscape:pageshadow="2"
     inkscape:window-width="1280"
     inkscape:window-height="694"
     id="namedview3031"
     showgrid="false"
     inkscape:zoom="0.8"
     inkscape:cx="277.89585"
     inkscape:cy="311.96617"
     inkscape:window-x="0"
     inkscape:window-y="1"
     inkscape:window-maximized="1"
     inkscape:current-layer="svg3025"
     inkscape:document-units="pt"
     units="pt"
     fit-margin-top="0"
     fit-margin-left="0"
     fit-margin-right="0"
     fit-margin-bottom="0" />
  <g
     transform="matrix(0.01171875,0,0,-0.01171875,0,-241)"
     id="g3027">
    <path
       d="m 1536,192 0,-128 Q 1536,38 1517,19 1498,0 1472,0 L 64,0 Q 38,0 19,19 0,38 0,64 l 0,128 q 0,26 19,45 19,19 45,19 l 1408,0 q 26,0 45,-19 19,-19 19,-45 z m 0,512 0,-128 q 0,-26 -19,-45 -19,-19 -45,-19 L 64,512 Q 38,512 19,531 0,550 0,576 l 0,128 q 0,26 19,45 19,19 45,19 l 1408,0 q 26,0 45,-19 19,-19 19,-45 z m 0,512 0,-128 q 0,-26 -19,-45 -19,-19 -45,-19 l -1408,0 q -26,0 -45,19 -19,19 -19,45 l 0,128 q 0,26 19,45 19,19 45,19 l 1408,0 q 26,0 45,-19 19,-19 19,-45 z"
       id="path3029"
       inkscape:connector-curvature="0"
       style="fill:currentColor" />
  </g>
</svg>
