<svg xmlns="http://www.w3.org/2000/svg" xmlns:xlink="http://www.w3.org/1999/xlink" viewBox="0 0 75 75"><defs><style>.a{fill:url(#a);}.b{fill:url(#b);}.c{fill:url(#c);}.d{fill:url(#d);}.e{fill:url(#e);}.f{fill:url(#f);}.g{fill:none;}.aa,.ab,.ac,.ad,.ae,.af,.ag,.ah,.ai,.aj,.ak,.al,.am,.an,.ao,.ap,.aq,.ar,.as,.at,.au,.av,.aw,.ax,.ay,.ba,.bb,.bc,.bd,.be,.bf,.bg,.bh,.bi,.bj,.bk,.bl,.bm,.bn,.bo,.bp,.bq,.br,.bs,.bt,.bu,.bv,.bw,.bx,.bz,.h,.i,.j,.k,.l,.m,.n,.o,.p,.q,.r,.s,.t,.u,.v,.w,.x,.y,.z{fill-rule:evenodd;}.h{fill:url(#g);}.i{fill:url(#h);}.j{fill:url(#i);}.k{fill:url(#j);}.l{fill:red;}.ag,.br,.l{fill-opacity:0;}.m{fill:#f70000;}.ah,.m{fill-opacity:0.01;}.n{fill:#ef0000;fill-opacity:0.01;}.o{fill:#e80101;fill-opacity:0.02;}.p{fill:#e00101;}.aj,.p{fill-opacity:0.02;}.q{fill:#d80101;}.ak,.q{fill-opacity:0.03;}.r{fill:#d00101;fill-opacity:0.04;}.s{fill:#c80202;fill-opacity:0.04;}.t{fill:#c00202;}.am,.bq,.t{fill-opacity:0.05;}.u{fill:#b90202;}.an,.u{fill-opacity:0.05;}.v{fill:#b10202;fill-opacity:0.06;}.w{fill:#a90202;}.ao,.w{fill-opacity:0.07;}.x{fill:#a10303;fill-opacity:0.07;}.y{fill:#990303;fill-opacity:0.08;}.z{fill:#910303;}.aq,.z{fill-opacity:0.08;}.aa{fill:#8a0303;fill-opacity:0.09;}.ab{fill:#820404;}.ab,.ar,.bp{fill-opacity:0.09;}.ac{fill:#7a0404;fill-opacity:0.1;}.ad{fill:#720404;}.ad,.as{fill-opacity:0.11;}.ae{fill:#6a0404;fill-opacity:0.11;}.af{fill:url(#k);}.ag,.ah,.ai,.aj,.ak,.al,.am,.an,.ao,.ap,.aq,.ar,.as,.at,.au,.av,.aw,.ax{fill:#000db0;}.ai{fill-opacity:0.02;}.al{fill-opacity:0.04;}.ap{fill-opacity:0.07;}.at{fill-opacity:0.12;}.au{fill-opacity:0.13;}.av{fill-opacity:0.14;}.aw{fill-opacity:0.15;}.ax{fill-opacity:0.16;}.ay{fill:url(#l);}.az{mask:url(#m);}.ba{fill:url(#n);}.bb{fill:url(#p);}.bc{fill:url(#r);}.bd{fill:url(#s);}.be{fill:#009efd;}.bf{fill:url(#v);}.bg{fill:url(#w);}.bh{fill:url(#x);}.bi,.bj,.bk,.bl,.bm,.bn,.bo,.bp,.bq,.br{fill:#1034c0;}.bi{fill-opacity:0.41;}.bj{fill-opacity:0.36;}.bk{fill-opacity:0.32;}.bl{fill-opacity:0.27;}.bm{fill-opacity:0.23;}.bn{fill-opacity:0.18;}.bo{fill-opacity:0.14;}.bs{fill:url(#y);}.bt{fill:url(#z);}.bu{fill:url(#aa);}.bv{fill:url(#ab);}.bw{fill:url(#ac);}.bx{fill:url(#ad);}.by{mask:url(#ae);}.bz{fill:#ff7472;}</style><linearGradient id="a" x1="0.43" y1="781.29" x2="-4.5" y2="781.09" gradientTransform="translate(56.26 -743.02)" gradientUnits="userSpaceOnUse"><stop offset="0" stop-color="#fff"/><stop offset="1"/></linearGradient><linearGradient id="b" x1="0.28" y1="781.01" x2="-2.77" y2="780.94" xlink:href="#a"/><linearGradient id="c" x1="2.37" y1="778.6" x2="7.37" y2="779.49" gradientTransform="translate(18.29 -744.08)" xlink:href="#a"/><radialGradient id="d" cx="90" cy="-501.08" r="32.14" gradientTransform="translate(-105.84 -51.41) rotate(90) scale(1 0.29)" xlink:href="#a"/><linearGradient id="e" x1="-1.69" y1="779.06" x2="-6.22" y2="779.65" gradientTransform="translate(56.24 -743.79)" xlink:href="#a"/><radialGradient id="f" cx="87" cy="165.93" r="3.85" gradientTransform="translate(220.9 -55.09) rotate(90)" xlink:href="#a"/><linearGradient id="g" x1="-4.18" y1="792" x2="-4.18" y2="713.54" gradientTransform="translate(41.68 -707.13)" gradientUnits="userSpaceOnUse"><stop offset="0" stop-color="#fea302"/><stop offset="1" stop-color="#ffda00"/></linearGradient><linearGradient id="h" x1="162.82" y1="573.62" x2="203.19" y2="573.62" gradientTransform="matrix(0.81, 0.59, -0.61, 0.79, 252.13, -530.25)" gradientUnits="userSpaceOnUse"><stop offset="0" stop-color="#0bb6fd"/><stop offset="0.87" stop-color="#2256fc"/><stop offset="1" stop-color="#3451c1"/></linearGradient><linearGradient id="i" x1="90" y1="146.39" x2="121.39" y2="146.39" gradientTransform="translate(201.08 -77.84) rotate(90)" gradientUnits="userSpaceOnUse"><stop offset="0" stop-color="#1f50ea"/><stop offset="0.51" stop-color="#133ec6"/><stop offset="1" stop-color="#476aed"/></linearGradient><linearGradient id="j" x1="-262.31" y1="-20.43" x2="-221.94" y2="-20.43" gradientTransform="matrix(-0.81, 0.59, -0.61, -0.79, -183.96, 158.21)" xlink:href="#h"/><linearGradient id="k" x1="90" y1="184.7" x2="121.39" y2="184.7" gradientTransform="translate(205.92 -77.84) rotate(90)" gradientUnits="userSpaceOnUse"><stop offset="0" stop-color="#1f50ea"/><stop offset="0.51" stop-color="#133ec6"/><stop offset="1" stop-color="#415dc7"/></linearGradient><radialGradient id="l" cx="90" cy="-715.63" r="61.03" gradientTransform="translate(-128.93 -51.54) rotate(90) scale(1 0.23)" gradientUnits="userSpaceOnUse"><stop offset="0" stop-color="#019efd"/><stop offset="1" stop-color="#2353eb"/></radialGradient><mask id="m" x="-7.5" y="-7.5" width="90" height="90" maskUnits="userSpaceOnUse"><rect class="a" x="-7.5" y="-7.5" width="90" height="90"/></mask><linearGradient id="n" x1="-3.59" y1="794.25" x2="-1.51" y2="797.57" gradientTransform="translate(51.73 -750.51)" gradientUnits="userSpaceOnUse"><stop offset="0" stop-color="#2a35bd"/><stop offset="1" stop-color="#338dff"/></linearGradient><linearGradient id="p" x1="-3.59" y1="794.25" x2="-1.51" y2="797.57" gradientTransform="translate(51.73 -750.51)" gradientUnits="userSpaceOnUse"><stop offset="0" stop-color="#323ed5"/><stop offset="1" stop-color="#70aefc"/></linearGradient><linearGradient id="r" x1="3.43" y1="795.14" x2="-1.43" y2="800.45" gradientTransform="translate(22.44 -750.49)" gradientUnits="userSpaceOnUse"><stop offset="0" stop-color="#345adf"/><stop offset="1" stop-color="#599df3"/></linearGradient><radialGradient id="s" cx="90" cy="-715.71" r="61.03" gradientTransform="translate(-129.26 -51.76) rotate(90) scale(1 0.23)" xlink:href="#l"/><linearGradient id="v" x1="176.98" y1="483.14" x2="184.18" y2="483.14" gradientTransform="matrix(0.68, 0.74, -0.74, 0.68, 285.55, -412.34)" xlink:href="#r"/><linearGradient id="w" x1="-5.66" y1="792" x2="-5.66" y2="770.44" gradientTransform="translate(43.16 -724.26)" gradientUnits="userSpaceOnUse"><stop offset="0" stop-color="#0396fc"/><stop offset="1" stop-color="#163598"/></linearGradient><radialGradient id="x" cx="-626" cy="757.55" r="19.83" gradientTransform="translate(-589.96 -562.2) rotate(-90) scale(1 0.83)" gradientUnits="userSpaceOnUse"><stop offset="0" stop-color="#f6221e"/><stop offset="1" stop-color="#a0002a"/></radialGradient><linearGradient id="y" y1="793.07" x2="1.06" y2="793.07" gradientTransform="translate(54.19 -766.65)" gradientUnits="userSpaceOnUse"><stop offset="0" stop-color="#cc0704"/><stop offset="1" stop-color="#ff0e0a"/></linearGradient><linearGradient id="z" x1="-0.65" y1="788.51" x2="1.38" y2="785.8" gradientTransform="translate(54.87 -753.14)" gradientUnits="userSpaceOnUse"><stop offset="0" stop-color="#ca0502"/><stop offset="1" stop-color="#ff2824"/></linearGradient><linearGradient id="aa" x1="-979.68" y1="625.78" x2="-974.62" y2="625.78" gradientTransform="matrix(-0.2, -0.98, 0.65, -1.79, -549.92, 202.93)" gradientUnits="userSpaceOnUse"><stop offset="0" stop-color="#cc0704"/><stop offset="1" stop-color="#ff2824"/></linearGradient><linearGradient id="ab" x1="-20.23" y1="767.07" x2="-15.17" y2="767.07" gradientTransform="matrix(0.2, -0.98, 0.65, 1.79, -443.49, -1350.79)" xlink:href="#aa"/><linearGradient id="ac" x1="0.13" y1="788.97" x2="-2.07" y2="779.04" gradientTransform="translate(53.99 -745.22)" gradientUnits="userSpaceOnUse"><stop offset="0" stop-color="#790200"/><stop offset="1" stop-color="#fb2521"/></linearGradient><linearGradient id="ad" x1="-0.83" y1="789" x2="-0.83" y2="786.52" gradientTransform="translate(55.7 -743.75)" gradientUnits="userSpaceOnUse"><stop offset="0" stop-color="#cc0704"/><stop offset="1" stop-color="#700200"/></linearGradient><mask id="ae" x="-7.5" y="-10.5" width="90" height="90" maskUnits="userSpaceOnUse"><rect class="f" x="-7.5" y="-10.5" width="90" height="90"/></mask></defs><title>6</title><path class="g" d="M0,0V75H75V0Z"/><path class="h" d="M37.5,69.76A32.26,32.26,0,1,1,69.76,37.5,32.27,32.27,0,0,1,37.5,69.76Z"/><path class="i" d="M72.37,29c1.25.49,2.24,1.28,2.35,2.19a7.53,7.53,0,0,1,0,1c-.13.76-.89,1-2.57,1.81-10,4.6-20.13,6.27-30.42,8.84L37.5,42c-.69-10.51-4.57-21.32,0-31.35,3.52,0,7.75,2.9,12,5.35C58.57,21.24,64.33,25.48,72.37,29Z"/><path class="j" d="M72.37,29.93c2.44,1,3.87,3.12-.22,5.09-10,4.73-20.13,7.28-30.42,9.92l-4.23-.82a47.1,47.1,0,0,1,0-32.27c3.52,0,7.75,3,12,5.51C58.57,22.74,64.33,26.27,72.37,29.93Z"/><path class="k" d="M2.64,29C1.38,29.52.39,30.31.28,31.22a7.53,7.53,0,0,0,0,1c.13.76.9,1,2.57,1.81,10,4.6,20.14,6.27,30.43,8.84L37.5,42V10.67c-3.52,0-7.74,2.9-12,5.35C16.43,21.24,10.68,25.48,2.64,29Z"/><path class="l" d="M29.21,70.2C14.51,66.13,9.51,56.12,10,46.14c.51-10.59,13.6-22.47,27.65-20.21,13-.08,25,6.9,26.69,20.21,1.24,9.93-3.53,20-18.24,24.06A34.61,34.61,0,0,1,29.21,70.2Z"/><path class="m" d="M29.68,68.79a33.61,33.61,0,0,0,16,0c13.89-3.74,18.35-13,17.23-22.2-1.67-12.13-13-18.49-25.22-18.44-13.16-2-25.46,8.64-26,18.36C11.14,55.78,15.79,65.05,29.68,68.79Z"/><path class="n" d="M30.09,67.56a32.78,32.78,0,0,0,15.13,0C58.4,64.1,62.59,55.59,61.57,47c-1.67-11.1-12.45-16.92-23.94-16.9-12.38-1.79-24,7.78-24.64,16.75C12.55,55.48,16.91,64.1,30.09,67.56Z"/><path class="o" d="M30.45,66.49a32,32,0,0,0,14.41,0C57.42,63.28,61.37,55.4,60.44,47.32,58.78,37.13,48.51,31.78,37.62,31.77c-11.7-1.6-22.71,7-23.42,15.33C13.79,55.22,17.89,63.28,30.45,66.49Z"/><path class="p" d="M30.76,65.54a31.46,31.46,0,0,0,13.79,0c12-3,15.75-10.31,14.89-17.92C57.78,38.23,48,33.29,37.61,33.27,26.51,31.83,16,39.63,15.28,47.35,14.88,55,18.75,62.54,30.76,65.54Z"/><path class="q" d="M31,64.69a30.75,30.75,0,0,0,13.23,0c11.52-2.8,15.07-9.61,14.28-16.8C56.9,39.2,47.48,34.64,37.6,34.6,27,33.31,17,40.37,16.24,47.57,15.85,54.78,19.52,61.89,31,64.69Z"/><path class="r" d="M31.29,63.94a30.51,30.51,0,0,0,12.73,0c11.08-2.63,14.47-9,13.74-15.81C56.1,40.08,47.05,35.84,37.59,35.79c-10.07-1.16-19.66,5.24-20.5,12C16.72,54.6,20.21,61.31,31.29,63.94Z"/><path class="s" d="M31.52,63.26a30.19,30.19,0,0,0,12.27,0C54.48,60.79,57.71,54.82,57,48.35c-1.65-7.48-10.38-11.42-19.46-11.49-9.64-1-18.84,4.76-19.72,11.08C17.51,54.44,20.83,60.79,31.52,63.26Z"/><path class="t" d="M31.72,62.64a29.84,29.84,0,0,0,11.87,0C53.92,60.31,57,54.71,56.4,48.54c-1.66-7-10.09-10.63-18.82-10.71-9.25-.93-18.11,4.33-19,10.27C18.22,54.29,21.39,60.31,31.72,62.64Z"/><path class="u" d="M31.91,62.08a29.81,29.81,0,0,0,11.49,0c10-2.2,13-7.47,12.41-13.36-1.66-6.49-9.82-9.91-18.24-10-8.89-.83-17.43,3.94-18.37,9.53C18.86,54.15,21.91,59.88,31.91,62.08Z"/><path class="v" d="M32.08,61.57a29.66,29.66,0,0,0,11.15,0c9.71-2.08,12.57-7,12-12.69-1.66-6.06-9.58-9.26-17.71-9.36C29,38.77,20.74,43.1,19.78,48.38,19.45,54,22.37,59.49,32.08,61.57Z"/><path class="w" d="M32.24,61.1a29.7,29.7,0,0,0,10.84,0c9.43-2,12.19-6.67,11.7-12.07-1.66-5.67-9.36-8.66-17.22-8.77-8.27-.66-16.26,3.25-17.25,8.24C20,53.91,22.8,59.13,32.24,61.1Z"/><path class="x" d="M32.38,60.66a29,29,0,0,0,10.55,0c9.19-1.87,11.85-6.3,11.39-11.49-1.65-5.31-9.14-8.11-16.76-8.23-8-.59-15.75,3-16.76,7.67C20.49,53.81,23.19,58.79,32.38,60.66Z"/><path class="y" d="M32.51,60.26a28.93,28.93,0,0,0,10.29,0c9-1.77,11.53-6,11.1-11-1.65-5-8.95-7.6-16.35-7.74-7.74-.51-15.27,2.68-16.3,7.15C21,53.71,23.56,58.49,32.51,60.26Z"/><path class="z" d="M32.63,59.89a29,29,0,0,0,10,0c8.74-1.69,11.23-5.67,10.83-10.48-1.65-4.65-8.77-7.12-16-7.26-7.5-.45-14.83,2.41-15.88,6.66C21.37,53.62,23.89,58.2,32.63,59.89Z"/><path class="aa" d="M32.75,59.55a29.11,29.11,0,0,0,9.81,0c8.54-1.61,11-5.39,10.59-10-1.65-4.37-8.61-6.68-15.61-6.83-7.28-.39-14.41,2.17-15.48,6.21C21.77,53.54,24.21,57.94,32.75,59.55Z"/><path class="ab" d="M32.85,59.23a29.51,29.51,0,0,0,9.61,0c8.35-1.54,10.7-5.13,10.36-9.61-1.65-4.1-8.46-6.27-15.28-6.43-7.08-.33-14,2-15.12,5.79C22.14,53.46,24.5,57.69,32.85,59.23Z"/><path class="ac" d="M33,58.93a29.41,29.41,0,0,0,9.41,0c8.18-1.47,10.46-4.88,10.15-9.21-1.66-3.85-8.32-5.89-15-6.06-6.89-.28-13.68,1.74-14.78,5.4C22.48,53.39,24.77,57.46,33,58.93Z"/><path class="ad" d="M33.05,58.65a29.33,29.33,0,0,0,9.21,0c8-1.4,10.24-4.65,10-8.84C50.56,46.19,44,44.27,37.53,44.1c-6.71-.23-13.34,1.55-14.45,5C22.8,53.32,25,57.25,33.05,58.65Z"/><path class="ae" d="M33.13,58.39c-7.87-1.35-10-5.13-9.76-9.19,2.23-6.55,25.21-6.21,28.57.69.27,4.06-1.89,7.15-9.76,8.5A30.17,30.17,0,0,1,33.13,58.39Z"/><path class="af" d="M2.64,29.93c-2.45,1-3.88,3.12.21,5.09,10,4.73,20.14,7.28,30.43,9.92l4.22-.82c4.78-11.87,7.5-23.26,0-32.27-3.52,0-7.74,3-12,5.51C16.43,22.74,10.68,26.27,2.64,29.93Z"/><path class="ag" d="M37.38,21.89c13.45,0,24.36,5.34,24.36,11.92S50.83,45.73,37.38,45.73,13,40.39,13,33.81,23.94,21.89,37.38,21.89Z"/><path class="ah" d="M13.94,33.94c0,6.19,10.5,11.22,23.44,11.22s23.44-5,23.44-11.22S50.32,22.72,37.38,22.72,13.94,27.74,13.94,33.94Z"/><path class="ai" d="M14.76,34.05c0,5.85,10.14,10.59,22.62,10.59S60,39.9,60,34.05,49.87,23.47,37.38,23.47,14.76,28.21,14.76,34.05Z"/><path class="aj" d="M15.51,34.16c0,5.53,9.8,10,21.87,10s21.88-4.48,21.88-10-9.8-10-21.88-10S15.51,28.63,15.51,34.16Z"/><path class="ak" d="M16.18,34.25c0,5.24,9.5,9.5,21.2,9.5s21.2-4.26,21.2-9.5-9.49-9.49-21.2-9.49S16.18,29,16.18,34.25Z"/><path class="al" d="M16.8,34.34c0,5,9.22,9,20.58,9s20.59-4,20.59-9-9.23-9-20.59-9S16.8,29.36,16.8,34.34Z"/><path class="am" d="M17.37,34.42c0,4.74,9,8.59,20,8.59s20-3.85,20-8.59-9-8.59-20-8.59S17.37,29.68,17.37,34.42Z"/><path class="an" d="M17.89,34.49c0,4.52,8.73,8.19,19.49,8.19s19.5-3.67,19.5-8.19-8.73-8.18-19.5-8.18S17.89,30,17.89,34.49Z"/><path class="ao" d="M18.37,34.56c0,4.31,8.52,7.82,19,7.82s19-3.51,19-7.82-8.52-7.82-19-7.82S18.37,30.24,18.37,34.56Z"/><path class="ap" d="M18.81,34.62c0,4.13,8.32,7.48,18.57,7.48S56,38.75,56,34.62s-8.32-7.47-18.57-7.47S18.81,30.5,18.81,34.62Z"/><path class="aq" d="M19.23,34.68c0,4,8.13,7.15,18.15,7.15s18.16-3.2,18.16-7.15-8.13-7.16-18.16-7.16S19.23,30.73,19.23,34.68Z"/><path class="ar" d="M19.61,34.73c0,3.79,8,6.86,17.77,6.86s17.78-3.07,17.78-6.86-8-6.86-17.78-6.86S19.61,31,19.61,34.73Z"/><path class="as" d="M20,34.78c0,3.64,7.8,6.59,17.41,6.59S54.8,38.42,54.8,34.78,47,28.2,37.38,28.2,20,31.15,20,34.78Z"/><path class="at" d="M20.31,34.83c0,3.49,7.65,6.32,17.07,6.32s17.08-2.83,17.08-6.32-7.65-6.32-17.08-6.32S20.31,31.34,20.31,34.83Z"/><path class="au" d="M20.62,34.88c0,3.35,7.51,6.08,16.76,6.08s16.77-2.73,16.77-6.08-7.52-6.09-16.77-6.09S20.62,31.52,20.62,34.88Z"/><path class="av" d="M20.92,34.92c0,3.23,7.37,5.85,16.46,5.85s16.47-2.62,16.47-5.85-7.38-5.86-16.47-5.86S20.92,31.69,20.92,34.92Z"/><path class="aw" d="M21.2,35c0,3.11,7.25,5.64,16.18,5.64S53.57,38.07,53.57,35s-7.25-5.64-16.19-5.64S21.2,31.84,21.2,35Z"/><path class="ax" d="M37.38,29.55c8.79,0,15.93,2.44,15.93,5.44s-7.14,5.44-15.93,5.44S21.46,38,21.46,35,28.59,29.55,37.38,29.55Z"/><path class="ay" d="M19.3,53c0-6.37.51-17.47,1.8-20.43s7.87-5,16.4-5V58.18C29.23,58.18,19.23,56,19.3,53Z"/><g class="az"><path class="ba" d="M54.3,40.83l.57,12.39C54.49,54.9,52,56,49.09,56.76c-6-5.11-4-9.8,0-13.47A10.2,10.2,0,0,1,54.3,40.83Z"/></g><g class="az"><path class="bb" d="M54.3,40.83l.57,12.39C54.49,54.9,52,56,49.09,56.76c-6-5.11-4-9.8,0-13.47A10.2,10.2,0,0,1,54.3,40.83Z"/></g><g class="az"><path class="bc" d="M19.88,40a127.82,127.82,0,0,0-.58,13.22c.38,1.68,2.91,2.79,5.78,3.54,6-5.11,4-9.8,0-13.47C23.79,42.35,20.36,37.63,19.88,40Z"/></g><path class="bd" d="M55.7,53c0-6.37-.51-17.47-1.8-20.43s-7.87-5-16.4-5c-3.81,10.59-4.39,20.85,0,30.61C45.77,58.18,55.77,56,55.7,53Z"/><g class="az"><path class="be" d="M19.3,53c0-6.37.51-17.47,1.8-20.43s7.87-5,16.4-5,15.07,2,16.4,5S55.7,46.66,55.7,53c.07,2.95-9.93,4.32-18.2,4.32S19.23,56,19.3,53Z"/></g><g class="az"><path class="bf" d="M55.13,40a130.65,130.65,0,0,1,.57,13.22c-.38,1.68-2.91,2.79-5.78,3.54-6-5.11-4-9.8,0-13.47C51.22,42.35,54.64,37.63,55.13,40Z"/></g><path class="bg" d="M19.3,53.22c0-1.34,2-2.84,5.09-3.44,3.92-.7,9,.77,12.21,2.19a1.69,1.69,0,0,0,1.8,0c3.24-1.42,8.29-2.89,12.21-2.19,3.14.74,5.09,2.1,5.09,3.44,0,2.74-8.15,5-18.2,5S19.3,56,19.3,53.22Z"/><path class="bh" d="M50,55.53a13.4,13.4,0,0,0,3.56-1.42c.82-.53.86-.87.86-.89,0-1.15-2.78-2.39-4.74-2.58-3.46-.37-7.84.89-10.82,2.2a2.9,2.9,0,0,1-2.8,0c-3-1.31-7.36-2.57-10.82-2.2s-4.74,1.61-4.74,2.58c0,0,0,.35.86.89A13.4,13.4,0,0,0,25,55.53,50.09,50.09,0,0,0,37.5,56.94,50,50,0,0,0,50,55.53Z"/><path class="bi" d="M20.59,34.37a9,9,0,0,1,.51-1.77c1.33-3.06,7.87-5.86,16.4-5.86S52.78,29.1,53.9,32.6c.19.44.4,2.44.53,1.83C56,26.77,22.17,24.24,20.59,34.37Z"/><path class="bj" d="M20.59,34.37c1.56-9.43,32.05-7.64,33.8-1.06a2.24,2.24,0,0,1,0,1.06c-.12.58-.33-1.36-.53-1.8C52.73,29.09,46,26.74,37.5,26.74s-15.07,2.8-16.4,5.86A9,9,0,0,0,20.59,34.37Z"/><path class="bk" d="M20.59,34.37c1.64-9.23,32.17-7.4,33.8-1a1.73,1.73,0,0,1,0,.93c-.13.55-.33-1.33-.53-1.76C52.67,29.09,46,26.74,37.5,26.74s-15.07,2.8-16.4,5.86A9,9,0,0,0,20.59,34.37Z"/><path class="bl" d="M20.59,34.37c1.73-9,32.31-7.12,33.81-1a1.37,1.37,0,0,1,0,.79c-.12.5-.33-1.29-.53-1.71-1.23-3.4-7.9-5.75-16.33-5.75s-15.07,2.8-16.4,5.86A9,9,0,0,0,20.59,34.37Z"/><path class="bm" d="M20.59,34.37c1.85-8.68,32.48-6.77,33.81-.89,0,.4,0,.37-.07.61-.13.45-.33-1.24-.53-1.65-1.29-3.36-7.92-5.7-16.3-5.7s-15.07,2.8-16.4,5.86A9,9,0,0,0,20.59,34.37Z"/><path class="bn" d="M20.59,34.37c2-8.3,32.7-6.33,33.81-.8,0,.41,0,.2-.11.38-.13.38-.33-1.18-.53-1.58-1.37-3.29-7.94-5.63-16.26-5.63-8.53,0-15.07,2.8-16.4,5.86A9,9,0,0,0,20.59,34.37Z"/><path class="bo" d="M20.59,34.37c2.19-7.8,33-5.75,33.81-.68,0,.42,0,0-.16.08-.13.28-.33-1.1-.53-1.49-1.47-3.21-8-5.54-16.21-5.54-8.53,0-15.07,2.8-16.4,5.86A9,9,0,0,0,20.59,34.37Z"/><path class="bp" d="M20.59,34.37c2.44-7.12,33.38-5,33.82-.52-.07.44-.11-.31-.25-.33-.12.16-.31-1-.52-1.35-1.6-3.1-8-5.43-16.14-5.43-8.53,0-15.07,2.8-16.4,5.86A9,9,0,0,0,20.59,34.37Z"/><path class="bq" d="M20.59,34.37c2.82-6.14,34-3.84,33.83-.3-.14.48-.2-.73-.36-.91-.13,0-.31-.83-.52-1.16-1.79-2.95-8.07-5.26-16-5.26-8.53,0-15.07,2.8-16.4,5.86A9,9,0,0,0,20.59,34.37Z"/><path class="br" d="M20.59,34.37a9,9,0,0,1,.51-1.77c1.33-3.06,7.87-5.86,16.4-5.86s15.07,2.8,16.4,5.86c.19.44.28,2.35.53,1.83C55.43,32.3,24,29.76,20.59,34.37Z"/><path class="bs" d="M52.88,18c.92.5,1,1.22,1.17,2.49V35.42h1.48V21.35a5.25,5.25,0,0,0-.76-3.08A2.72,2.72,0,0,0,52,17.52Z"/><path class="bt" d="M52.16,34.5a2.72,2.72,0,1,1,2.71,2.71A2.71,2.71,0,0,1,52.16,34.5Z"/><path class="bu" d="M54.87,36.4a1.37,1.37,0,0,1,1.41.75,23.93,23.93,0,0,1,2,6.45c0,.74-.74,1.35-3.4,1.65C53.57,43.14,53.48,40.25,54.87,36.4Z"/><path class="bv" d="M54.87,36.4a1.37,1.37,0,0,0-1.4.75,23.93,23.93,0,0,0-2,6.45c0,.74.74,1.35,3.39,1.65Z"/><path class="bw" d="M54.05,38.32V43l-1.15.33v-.2a25.92,25.92,0,0,1,1.15-4.78Z"/><path class="bx" d="M54.87,42.77c1.83,0,3.31.56,3.31,1.24s-1.48,1.24-3.31,1.24S51.56,44.7,51.56,44,53.05,42.77,54.87,42.77Z"/><g class="by"><path class="bz" d="M52.16,34.5a2.72,2.72,0,1,1,2.71,2.71A2.71,2.71,0,0,1,52.16,34.5Z"/></g></svg>