<svg width="135" height="40" viewBox="0 0 135 40" fill="none" xmlns="http://www.w3.org/2000/svg">
<g clip-path="url(#clip0)">
<rect width="135" height="40" fill="white"/>
<path d="M130 40H5C2.2 40 0 37.8 0 35V5C0 2.2 2.2 0 5 0H130C132.8 0 135 2.2 135 5V35C135 37.7 132.8 40 130 40Z" fill="black"/>
<path d="M130 0.8C132.3 0.8 134.2 2.7 134.2 5V35C134.2 37.3 132.3 39.2 130 39.2H5C2.7 39.2 0.8 37.3 0.8 35V5C0.8 2.7 2.7 0.8 5 0.8H130ZM130 0H5C2.2 0 0 2.2 0 5V35C0 37.8 2.2 40 5 40H130C132.8 40 135 37.8 135 35V5C135 2.3 132.8 0 130 0Z" fill="#A6A6A6"/>
<path d="M47.3999 10.2004C47.3999 11.0004 47.1999 11.7004 46.6999 12.2004C46.0999 12.8004 45.3999 13.1004 44.4999 13.1004C43.5999 13.1004 42.8999 12.8004 42.2999 12.2004C41.6999 11.6004 41.3999 10.9004 41.3999 10.0004C41.3999 9.10039 41.6999 8.40039 42.2999 7.80039C42.8999 7.20039 43.5999 6.90039 44.4999 6.90039C44.8999 6.90039 45.2999 7.00039 45.6999 7.20039C46.0999 7.40039 46.3999 7.60039 46.5999 7.90039L46.0999 8.40039C45.6999 7.90039 45.1999 7.70039 44.4999 7.70039C43.8999 7.70039 43.2999 7.90039 42.8999 8.40039C42.3999 8.80039 42.1999 9.40039 42.1999 10.1004C42.1999 10.8004 42.3999 11.4004 42.8999 11.8004C43.3999 12.2004 43.8999 12.5004 44.4999 12.5004C45.1999 12.5004 45.6999 12.3004 46.1999 11.8004C46.4999 11.5004 46.6999 11.1004 46.6999 10.6004H44.4999V9.90039H47.3999C47.3999 9.90039 47.3999 10.1004 47.3999 10.2004Z" fill="white" stroke="white" stroke-width="0.2" stroke-miterlimit="10"/>
<path d="M52 7.7H49.3V9.6H51.8V10.3H49.3V12.2H52V13H48.5V7H52V7.7Z" fill="white" stroke="white" stroke-width="0.2" stroke-miterlimit="10"/>
<path d="M55.2998 13H54.4998V7.7H52.7998V7H56.9998V7.7H55.2998V13Z" fill="white" stroke="white" stroke-width="0.2" stroke-miterlimit="10"/>
<path d="M59.8999 13V7H60.6999V13H59.8999Z" fill="white" stroke="white" stroke-width="0.2" stroke-miterlimit="10"/>
<path d="M64.1001 13H63.3001V7.7H61.6001V7H65.7001V7.7H64.0001V13H64.1001Z" fill="white" stroke="white" stroke-width="0.2" stroke-miterlimit="10"/>
<path d="M73.5998 12.2004C72.9998 12.8004 72.2998 13.1004 71.3998 13.1004C70.4998 13.1004 69.7998 12.8004 69.1998 12.2004C68.5998 11.6004 68.2998 10.9004 68.2998 10.0004C68.2998 9.10039 68.5998 8.40039 69.1998 7.80039C69.7998 7.20039 70.4998 6.90039 71.3998 6.90039C72.2998 6.90039 72.9998 7.20039 73.5998 7.80039C74.1998 8.40039 74.4998 9.10039 74.4998 10.0004C74.4998 10.9004 74.1998 11.6004 73.5998 12.2004ZM69.7998 11.7004C70.1998 12.1004 70.7998 12.4004 71.3998 12.4004C71.9998 12.4004 72.5998 12.2004 72.9998 11.7004C73.3998 11.3004 73.6998 10.7004 73.6998 10.0004C73.6998 9.30039 73.4998 8.70039 72.9998 8.30039C72.5998 7.90039 71.9998 7.60039 71.3998 7.60039C70.7998 7.60039 70.1998 7.80039 69.7998 8.30039C69.3998 8.70039 69.0998 9.30039 69.0998 10.0004C69.0998 10.7004 69.2998 11.3004 69.7998 11.7004Z" fill="white" stroke="white" stroke-width="0.2" stroke-miterlimit="10"/>
<path d="M75.6001 13V7H76.5001L79.4001 11.7V10.5V7H80.2001V13H79.4001L76.3001 8.1V9.3V13H75.6001Z" fill="white" stroke="white" stroke-width="0.2" stroke-miterlimit="10"/>
<path d="M68.1001 21.7996C65.7001 21.7996 63.8001 23.5996 63.8001 26.0996C63.8001 28.4996 65.7001 30.3996 68.1001 30.3996C70.5001 30.3996 72.4001 28.5996 72.4001 26.0996C72.4001 23.4996 70.5001 21.7996 68.1001 21.7996ZM68.1001 28.5996C66.8001 28.5996 65.7001 27.4996 65.7001 25.9996C65.7001 24.4996 66.8001 23.3996 68.1001 23.3996C69.4001 23.3996 70.5001 24.3996 70.5001 25.9996C70.5001 27.4996 69.4001 28.5996 68.1001 28.5996ZM58.8001 21.7996C56.4001 21.7996 54.5001 23.5996 54.5001 26.0996C54.5001 28.4996 56.4001 30.3996 58.8001 30.3996C61.2001 30.3996 63.1001 28.5996 63.1001 26.0996C63.1001 23.4996 61.2001 21.7996 58.8001 21.7996ZM58.8001 28.5996C57.5001 28.5996 56.4001 27.4996 56.4001 25.9996C56.4001 24.4996 57.5001 23.3996 58.8001 23.3996C60.1001 23.3996 61.2001 24.3996 61.2001 25.9996C61.2001 27.4996 60.1001 28.5996 58.8001 28.5996ZM47.7001 23.0996V24.8996H52.0001C51.9001 25.8996 51.5001 26.6996 51.0001 27.1996C50.4001 27.7996 49.4001 28.4996 47.7001 28.4996C45.0001 28.4996 43.0001 26.3996 43.0001 23.6996C43.0001 20.9996 45.1001 18.8996 47.7001 18.8996C49.1001 18.8996 50.2001 19.4996 51.0001 20.1996L52.3001 18.8996C51.2001 17.8996 49.8001 17.0996 47.8001 17.0996C44.2001 17.0996 41.1001 20.0996 41.1001 23.6996C41.1001 27.2996 44.2001 30.2996 47.8001 30.2996C49.8001 30.2996 51.2001 29.6996 52.4001 28.3996C53.6001 27.1996 54.0001 25.4996 54.0001 24.1996C54.0001 23.7996 54.0001 23.3996 53.9001 23.0996H47.7001V23.0996ZM93.1001 24.4996C92.7001 23.4996 91.7001 21.7996 89.5001 21.7996C87.3001 21.7996 85.5001 23.4996 85.5001 26.0996C85.5001 28.4996 87.3001 30.3996 89.7001 30.3996C91.6001 30.3996 92.8001 29.1996 93.2001 28.4996L91.8001 27.4996C91.3001 28.1996 90.7001 28.6996 89.7001 28.6996C88.7001 28.6996 88.1001 28.2996 87.6001 27.3996L93.3001 24.9996L93.1001 24.4996ZM87.3001 25.8996C87.3001 24.2996 88.6001 23.3996 89.5001 23.3996C90.2001 23.3996 90.9001 23.7996 91.1001 24.2996L87.3001 25.8996ZM82.6001 29.9996H84.5001V17.4996H82.6001V29.9996ZM79.6001 22.6996C79.1001 22.1996 78.3001 21.6996 77.3001 21.6996C75.2001 21.6996 73.2001 23.5996 73.2001 25.9996C73.2001 28.3996 75.1001 30.1996 77.3001 30.1996C78.3001 30.1996 79.1001 29.6996 79.5001 29.1996H79.6001V29.7996C79.6001 31.3996 78.7001 32.2996 77.3001 32.2996C76.2001 32.2996 75.4001 31.4996 75.2001 30.7996L73.6001 31.4996C74.1001 32.5996 75.3001 33.9996 77.4001 33.9996C79.6001 33.9996 81.4001 32.6996 81.4001 29.5996V21.9996H79.6001V22.6996V22.6996ZM77.4001 28.5996C76.1001 28.5996 75.0001 27.4996 75.0001 25.9996C75.0001 24.4996 76.1001 23.3996 77.4001 23.3996C78.7001 23.3996 79.7001 24.4996 79.7001 25.9996C79.7001 27.4996 78.7001 28.5996 77.4001 28.5996ZM101.8 17.4996H97.3001V29.9996H99.2001V25.2996H101.8C103.9 25.2996 105.9 23.7996 105.9 21.3996C105.9 18.9996 103.9 17.4996 101.8 17.4996ZM101.9 23.4996H99.2001V19.1996H101.9C103.3 19.1996 104.1 20.3996 104.1 21.2996C104 22.3996 103.2 23.4996 101.9 23.4996ZM113.4 21.6996C112 21.6996 110.6 22.2996 110.1 23.5996L111.8 24.2996C112.2 23.5996 112.8 23.3996 113.5 23.3996C114.5 23.3996 115.4 23.9996 115.5 24.9996V25.0996C115.2 24.8996 114.4 24.5996 113.6 24.5996C111.8 24.5996 110 25.5996 110 27.3996C110 29.0996 111.5 30.1996 113.1 30.1996C114.4 30.1996 115 29.5996 115.5 28.9996H115.6V29.9996H117.4V25.1996C117.2 22.9996 115.5 21.6996 113.4 21.6996ZM113.2 28.5996C112.6 28.5996 111.7 28.2996 111.7 27.4996C111.7 26.4996 112.8 26.1996 113.7 26.1996C114.5 26.1996 114.9 26.3996 115.4 26.5996C115.2 27.7996 114.2 28.5996 113.2 28.5996ZM123.7 21.9996L121.6 27.3996H121.5L119.3 21.9996H117.3L120.6 29.5996L118.7 33.7996H120.6L125.7 21.9996H123.7ZM106.9 29.9996H108.8V17.4996H106.9V29.9996Z" fill="white"/>
<path d="M10.3999 7.5C10.0999 7.8 9.8999 8.3 9.8999 8.9V31C9.8999 31.6 10.0999 32.1 10.3999 32.4L10.4999 32.5L22.8999 20.1V20V19.9L10.3999 7.5Z" fill="url(#paint0_linear)"/>
<path d="M26.9999 24.3008L22.8999 20.2008V20.0008V19.9008L26.9999 15.8008L27.0999 15.9008L31.9999 18.7008C33.3999 19.5008 33.3999 20.8008 31.9999 21.6008L26.9999 24.3008Z" fill="url(#paint1_linear)"/>
<path d="M27.0999 24.2L22.8999 20L10.3999 32.5C10.8999 33 11.5999 33 12.4999 32.6L27.0999 24.2Z" fill="url(#paint2_linear)"/>
<path d="M27.0999 15.8006L12.4999 7.5006C11.5999 7.0006 10.8999 7.1006 10.3999 7.6006L22.8999 20.0006L27.0999 15.8006Z" fill="url(#paint3_linear)"/>
<path opacity="0.2" d="M26.9999 24.1006L12.4999 32.3006C11.6999 32.8006 10.9999 32.7006 10.4999 32.3006L10.3999 32.4006L10.4999 32.5006C10.9999 32.9006 11.6999 33.0006 12.4999 32.5006L26.9999 24.1006Z" fill="black"/>
<path opacity="0.12" d="M10.4 32.3004C10.1 32.0004 10 31.5004 10 30.9004V31.0004C10 31.6004 10.2 32.1004 10.5 32.4004V32.3004H10.4Z" fill="black"/>
<path opacity="0.12" d="M32 21.3L27 24.1L27.1 24.2L32 21.4C32.7 21 33 20.5 33 20C33 20.5 32.6 20.9 32 21.3Z" fill="black"/>
<path opacity="0.25" d="M12.5 7.60037L32 18.7004C32.6 19.1004 33 19.5004 33 20.0004C33 19.5004 32.7 19.0004 32 18.6004L12.5 7.50037C11.1 6.70037 10 7.40037 10 9.00037V9.10037C10 7.50037 11.1 6.80037 12.5 7.60037Z" fill="white"/>
</g>
<defs>
<linearGradient id="paint0_linear" x1="21.7996" y1="8.7097" x2="5.0172" y2="25.4921" gradientUnits="userSpaceOnUse">
<stop stop-color="#00A0FF"/>
<stop offset="0.00657445" stop-color="#00A1FF"/>
<stop offset="0.2601" stop-color="#00BEFF"/>
<stop offset="0.5122" stop-color="#00D2FF"/>
<stop offset="0.7604" stop-color="#00DFFF"/>
<stop offset="1" stop-color="#00E3FF"/>
</linearGradient>
<linearGradient id="paint1_linear" x1="33.8343" y1="20.0022" x2="9.6374" y2="20.0022" gradientUnits="userSpaceOnUse">
<stop stop-color="#FFE000"/>
<stop offset="0.4087" stop-color="#FFBD00"/>
<stop offset="0.7754" stop-color="#FFA500"/>
<stop offset="1" stop-color="#FF9C00"/>
</linearGradient>
<linearGradient id="paint2_linear" x1="24.8269" y1="22.2961" x2="2.0686" y2="45.0544" gradientUnits="userSpaceOnUse">
<stop stop-color="#FF3A44"/>
<stop offset="1" stop-color="#C31162"/>
</linearGradient>
<linearGradient id="paint3_linear" x1="7.2972" y1="0.1768" x2="17.4598" y2="10.3393" gradientUnits="userSpaceOnUse">
<stop stop-color="#32A071"/>
<stop offset="0.0685" stop-color="#2DA771"/>
<stop offset="0.4762" stop-color="#15CF74"/>
<stop offset="0.8009" stop-color="#06E775"/>
<stop offset="1" stop-color="#00F076"/>
</linearGradient>
<clipPath id="clip0">
<rect width="135" height="40" fill="white"/>
</clipPath>
</defs>
</svg>
