<svg width="96" height="121" viewBox="0 0 96 121" fill="none" xmlns="http://www.w3.org/2000/svg">
<path fill-rule="evenodd" clip-rule="evenodd" d="M2.96763 109.7C1.06763 102.8 -0.532359 85.9 0.16764 81.4C0.86764 77.1 2.26762 72.7 6.36762 70.7C13.4676 67.3 20.5676 64.6 28.2676 62.1C33.8676 60 36.5676 56.2 36.1676 50.1C33.2676 48.4 30.9676 44.9 29.6676 40.8C27.7676 34.6 25.2676 25 26.0676 17.5C27.6676 5.6 36.1676 0.100006 46.0676 0.100006C55.9676 0.100006 64.4676 5.6 66.0676 17.5C66.7676 25.1 64.2676 34.6 62.4676 40.8C61.1676 44.8 58.8676 48.4 55.8676 50.1C55.4676 56.2 58.1676 60 63.7676 62.1C71.3676 64.6 78.5676 67.3 85.6676 70.7C92.3676 75.5 97.2676 103.3 95.1676 109.2C91.6676 119.1 83.6676 117.5 77.7676 115.6L62.2676 110.6C61.6676 110.4 60.9676 110.4 60.2676 110.6C55.0676 112.2 30.0676 119.5 14.2676 120.1C7.86762 120.2 4.56763 115.6 2.96763 109.7Z" fill="url(#paint0_linear_106_3)"/>
<path d="M40.0676 42.2C40.0676 42.2 45.9676 36.1 51.8676 42.2" stroke="#D95D2B" stroke-width="2" stroke-miterlimit="79.8403" stroke-linecap="round" stroke-linejoin="round"/>
<path d="M86.5676 100.7L76.2676 95.9C73.9676 94.9 71.4676 94.5 68.9676 94.9L24.1676 97.5L20.7676 82.9C20.7676 82.9 19.2676 75.8 15.5676 73.3" stroke="#D95D2B" stroke-width="2" stroke-miterlimit="79.8403" stroke-linecap="round" stroke-linejoin="round"/>
<defs>
<linearGradient id="paint0_linear_106_3" x1="47.7199" y1="-59.9761" x2="47.7199" y2="176.872" gradientUnits="userSpaceOnUse">
<stop stop-color="#FF884D"/>
<stop offset="1" stop-color="#FF8C5F" stop-opacity="0.2"/>
</linearGradient>
</defs>
</svg>
