<svg width="120" height="120" viewBox="0 0 120 120" fill="none" xmlns="http://www.w3.org/2000/svg">
<path d="M3.99652 60.0027C3.99652 29.0732 29.0686 3.99994 59.9965 3.99994C90.9245 3.99994 115.997 29.0732 115.997 60.0027C115.997 90.9321 90.9245 116.005 59.9965 116.005C29.0686 116.005 3.99652 90.9321 3.99652 60.0027Z" fill="url(#paint0_linear)"/>
<path d="M13.994 60.0029C13.994 34.5978 34.5901 14.0029 59.9967 14.0029C85.4033 14.0029 105.999 34.5978 105.999 60.0029C105.999 85.408 85.4033 106.003 59.9967 106.003C34.5901 106.003 13.994 85.408 13.994 60.0029Z" fill="url(#paint1_linear)"/>
<path d="M35.955 84.0445C22.6782 70.7678 22.6791 49.241 35.9569 35.9632C49.2348 22.6853 70.7615 22.6845 84.0383 35.9612C97.3151 49.238 97.3142 70.7648 84.0364 84.0426C70.7586 97.3205 49.2318 97.3213 35.955 84.0445Z" fill="url(#paint2_linear)"/>
<path d="M59.9807 39.5361V34.2827" stroke="#D95D2B" stroke-width="2" stroke-miterlimit="79.8403" stroke-linecap="round" stroke-linejoin="round"/>
<path d="M71.5273 44.7494C68.666 42.0826 65.7806 39.6826 59.9566 39.6826C54.1246 39.6826 48.666 43.016 48.666 49.4694C48.9193 54.776 53.5459 57.7095 60.698 58.4561C68.8553 59.3895 74.0393 62.9894 72.9913 70.3494C72.0953 75.2294 67.8633 79.7093 60.1006 79.6025C53.0793 79.3093 49.026 75.7894 46.5993 70.6426" stroke="#D95D2B" stroke-width="2" stroke-miterlimit="79.8403" stroke-linecap="round" stroke-linejoin="round"/>
<path d="M59.9807 85.6826V80.4561" stroke="#D95D2B" stroke-width="2" stroke-miterlimit="79.8403" stroke-linecap="round" stroke-linejoin="round"/>
<defs>
<linearGradient id="paint0_linear" x1="132.999" y1="-30" x2="20.9988" y2="111" gradientUnits="userSpaceOnUse">
<stop offset="0.02" stop-color="#FF8C5E"/>
<stop offset="0.06" stop-color="#FF8C5E" stop-opacity="0.86"/>
<stop offset="0.11" stop-color="#FF8C5E" stop-opacity="0.72"/>
<stop offset="0.17" stop-color="#FF8C5E" stop-opacity="0.59"/>
<stop offset="0.23" stop-color="#FF8C5E" stop-opacity="0.48"/>
<stop offset="0.3" stop-color="#FF8C5E" stop-opacity="0.4"/>
<stop offset="0.38" stop-color="#FF8C5E" stop-opacity="0.33"/>
<stop offset="0.48" stop-color="#FF8C5E" stop-opacity="0.28"/>
<stop offset="0.61" stop-color="#FF8C5E" stop-opacity="0.26"/>
<stop offset="1" stop-color="#FF945E" stop-opacity="0.25"/>
</linearGradient>
<linearGradient id="paint1_linear" x1="105.999" y1="8.00025" x2="30.999" y2="97.0002" gradientUnits="userSpaceOnUse">
<stop offset="0.02" stop-color="#FF8C5E"/>
<stop offset="0.06" stop-color="#FF8C5E" stop-opacity="0.86"/>
<stop offset="0.11" stop-color="#FF8C5E" stop-opacity="0.72"/>
<stop offset="0.17" stop-color="#FF8C5E" stop-opacity="0.59"/>
<stop offset="0.23" stop-color="#FF8C5E" stop-opacity="0.48"/>
<stop offset="0.3" stop-color="#FF8C5E" stop-opacity="0.4"/>
<stop offset="0.38" stop-color="#FF8C5E" stop-opacity="0.33"/>
<stop offset="0.48" stop-color="#FF8C5E" stop-opacity="0.28"/>
<stop offset="0.61" stop-color="#FF8C5E" stop-opacity="0.26"/>
<stop offset="1" stop-color="#FF945E" stop-opacity="0.25"/>
</linearGradient>
<linearGradient id="paint2_linear" x1="85.999" y1="34" x2="-17.501" y2="137.5" gradientUnits="userSpaceOnUse">
<stop offset="0.02" stop-color="#FF8C5E"/>
<stop offset="0.06" stop-color="#FF8C5E" stop-opacity="0.86"/>
<stop offset="0.11" stop-color="#FF8C5E" stop-opacity="0.72"/>
<stop offset="0.17" stop-color="#FF8C5E" stop-opacity="0.59"/>
<stop offset="0.23" stop-color="#FF8C5E" stop-opacity="0.48"/>
<stop offset="0.3" stop-color="#FF8C5E" stop-opacity="0.4"/>
<stop offset="0.38" stop-color="#FF8C5E" stop-opacity="0.33"/>
<stop offset="0.48" stop-color="#FF8C5E" stop-opacity="0.28"/>
<stop offset="0.61" stop-color="#FF8C5E" stop-opacity="0.26"/>
<stop offset="1" stop-color="#FF945E" stop-opacity="0.25"/>
</linearGradient>
</defs>
</svg>
