<svg width="244" height="36" viewBox="0 0 244 36" fill="none" xmlns="http://www.w3.org/2000/svg">
<path d="M0 8C0 3.58172 3.58172 0 8 0H236C240.418 0 244 3.58172 244 8V28C244 32.4183 240.418 36 236 36H8.00001C3.58173 36 0 32.4183 0 28V8Z" fill="#2C3C4F"/>
<path d="M17.5448 12.962H20.8208C22.0341 12.962 22.9768 13.2047 23.6488 13.69C24.3208 14.1753 24.6568 14.9453 24.6568 16C24.6568 16.5787 24.5635 17.078 24.3768 17.498C24.1901 17.918 23.9241 18.2633 23.5788 18.534C23.2428 18.8047 22.8321 19.0053 22.3468 19.136C21.8708 19.2573 21.3388 19.318 20.7508 19.318H19.2388V23H17.5448V12.962ZM19.2388 14.432V17.862H20.7508C21.4321 17.862 21.9688 17.7267 22.3608 17.456C22.7528 17.1853 22.9488 16.7187 22.9488 16.056C22.9488 15.4867 22.7668 15.076 22.4028 14.824C22.0481 14.5627 21.5208 14.432 20.8208 14.432H19.2388ZM31.8747 22.468C31.772 22.5333 31.646 22.608 31.4967 22.692C31.3473 22.7667 31.17 22.8367 30.9647 22.902C30.7593 22.9673 30.5213 23.0233 30.2507 23.07C29.98 23.1167 29.672 23.14 29.3267 23.14C27.992 23.14 26.9933 22.8087 26.3307 22.146C25.6773 21.4833 25.3507 20.5547 25.3507 19.36C25.3507 18.772 25.4393 18.2447 25.6167 17.778C25.794 17.3113 26.0413 16.9193 26.3587 16.602C26.676 16.2753 27.054 16.028 27.4927 15.86C27.9313 15.6827 28.412 15.594 28.9347 15.594C29.476 15.594 29.9613 15.6827 30.3907 15.86C30.8293 16.0373 31.1887 16.3033 31.4687 16.658C31.7487 17.0127 31.94 17.4513 32.0427 17.974C32.1547 18.4967 32.1593 19.108 32.0567 19.808H27.0307C27.096 20.4707 27.3153 20.97 27.6887 21.306C28.062 21.6327 28.6453 21.796 29.4387 21.796C30.0173 21.796 30.498 21.726 30.8807 21.586C31.2727 21.4367 31.604 21.2827 31.8747 21.124V22.468ZM28.9347 16.882C28.4587 16.882 28.0573 17.0267 27.7307 17.316C27.404 17.6053 27.1893 18.0347 27.0867 18.604H30.5027C30.5213 18.016 30.3907 17.582 30.1107 17.302C29.8307 17.022 29.4387 16.882 28.9347 16.882ZM42.9443 23H33.5643V15.734H35.1883V21.684H37.4423V15.734H39.0663V21.684H41.3063V15.734H42.9443V23ZM50.8376 22.468C50.7349 22.5333 50.6089 22.608 50.4596 22.692C50.3102 22.7667 50.1329 22.8367 49.9276 22.902C49.7222 22.9673 49.4842 23.0233 49.2136 23.07C48.9429 23.1167 48.6349 23.14 48.2896 23.14C46.9549 23.14 45.9562 22.8087 45.2936 22.146C44.6402 21.4833 44.3136 20.5547 44.3136 19.36C44.3136 18.772 44.4022 18.2447 44.5796 17.778C44.7569 17.3113 45.0042 16.9193 45.3216 16.602C45.6389 16.2753 46.0169 16.028 46.4556 15.86C46.8942 15.6827 47.3749 15.594 47.8976 15.594C48.4389 15.594 48.9242 15.6827 49.3536 15.86C49.7922 16.0373 50.1516 16.3033 50.4316 16.658C50.7116 17.0127 50.9029 17.4513 51.0056 17.974C51.1176 18.4967 51.1222 19.108 51.0196 19.808H45.9936C46.0589 20.4707 46.2782 20.97 46.6516 21.306C47.0249 21.6327 47.6082 21.796 48.4016 21.796C48.9802 21.796 49.4609 21.726 49.8436 21.586C50.2356 21.4367 50.5669 21.2827 50.8376 21.124V22.468ZM47.8976 16.882C47.4216 16.882 47.0202 17.0267 46.6936 17.316C46.3669 17.6053 46.1522 18.0347 46.0496 18.604H49.4656C49.4842 18.016 49.3536 17.582 49.0736 17.302C48.7936 17.022 48.4016 16.882 47.8976 16.882ZM57.2172 19.934H54.1512V23H52.5272V15.734H54.1512V18.618H57.2172V15.734H58.8412V23H57.2172V19.934ZM62.272 20.802L65.632 15.734H67.228V23H65.618V17.96L62.286 23H60.662V15.734H62.272V20.802ZM75.1325 22.468C75.0298 22.5333 74.9038 22.608 74.7545 22.692C74.6052 22.7667 74.4278 22.8367 74.2225 22.902C74.0172 22.9673 73.7792 23.0233 73.5085 23.07C73.2378 23.1167 72.9298 23.14 72.5845 23.14C71.2498 23.14 70.2512 22.8087 69.5885 22.146C68.9352 21.4833 68.6085 20.5547 68.6085 19.36C68.6085 18.772 68.6972 18.2447 68.8745 17.778C69.0518 17.3113 69.2992 16.9193 69.6165 16.602C69.9338 16.2753 70.3118 16.028 70.7505 15.86C71.1892 15.6827 71.6698 15.594 72.1925 15.594C72.7338 15.594 73.2192 15.6827 73.6485 15.86C74.0872 16.0373 74.4465 16.3033 74.7265 16.658C75.0065 17.0127 75.1978 17.4513 75.3005 17.974C75.4125 18.4967 75.4172 19.108 75.3145 19.808H70.2885C70.3538 20.4707 70.5732 20.97 70.9465 21.306C71.3198 21.6327 71.9032 21.796 72.6965 21.796C73.2752 21.796 73.7558 21.726 74.1385 21.586C74.5305 21.4367 74.8618 21.2827 75.1325 21.124V22.468ZM72.1925 16.882C71.7165 16.882 71.3152 17.0267 70.9885 17.316C70.6618 17.6053 70.4472 18.0347 70.3445 18.604H73.7605C73.7792 18.016 73.6485 17.582 73.3685 17.302C73.0885 17.022 72.6965 16.882 72.1925 16.882ZM79.8983 15.734H86.0723V23H84.4483V17.05H81.5223V23H79.8983V15.734ZM91.9003 23.14C91.3497 23.14 90.8737 23.0187 90.4723 22.776C90.0803 22.524 89.763 22.188 89.5203 21.768V25.478H87.8963V15.734H89.3803L89.4923 17.022C89.735 16.5833 90.057 16.238 90.4583 15.986C90.8597 15.7247 91.3497 15.594 91.9283 15.594C92.3577 15.594 92.7637 15.6733 93.1463 15.832C93.5383 15.9813 93.879 16.2147 94.1683 16.532C94.4577 16.84 94.6863 17.232 94.8543 17.708C95.0317 18.1747 95.1203 18.7253 95.1203 19.36C95.1203 20.004 95.0317 20.564 94.8543 21.04C94.6863 21.5067 94.453 21.8987 94.1543 22.216C93.865 22.524 93.5243 22.7573 93.1323 22.916C92.7403 23.0653 92.3297 23.14 91.9003 23.14ZM91.5083 21.782C92.087 21.782 92.5537 21.586 92.9083 21.194C93.2723 20.7927 93.4543 20.1813 93.4543 19.36C93.4543 18.548 93.2723 17.9413 92.9083 17.54C92.5537 17.1387 92.0917 16.938 91.5223 16.938C91.233 16.938 90.967 16.9893 90.7243 17.092C90.4817 17.1853 90.267 17.3347 90.0803 17.54C89.903 17.7453 89.763 18.002 89.6603 18.31C89.5577 18.6087 89.5063 18.9587 89.5063 19.36C89.5063 19.7707 89.5577 20.13 89.6603 20.438C89.763 20.7367 89.903 20.9887 90.0803 21.194C90.2577 21.39 90.4677 21.5393 90.7103 21.642C90.9623 21.7353 91.2283 21.782 91.5083 21.782ZM99.6459 23.14C99.1326 23.14 98.6566 23.056 98.2179 22.888C97.7793 22.72 97.3966 22.4773 97.0699 22.16C96.7526 21.8333 96.5006 21.4367 96.3139 20.97C96.1366 20.5033 96.0479 19.9667 96.0479 19.36C96.0479 18.7533 96.1366 18.2167 96.3139 17.75C96.5006 17.2833 96.7526 16.8913 97.0699 16.574C97.3966 16.2473 97.7793 16.0047 98.2179 15.846C98.6566 15.678 99.1326 15.594 99.6459 15.594C100.159 15.594 100.635 15.678 101.074 15.846C101.513 16.0047 101.895 16.2473 102.222 16.574C102.549 16.8913 102.805 17.2833 102.992 17.75C103.179 18.2167 103.272 18.7533 103.272 19.36C103.272 19.9667 103.179 20.5033 102.992 20.97C102.805 21.4367 102.549 21.8333 102.222 22.16C101.895 22.4773 101.513 22.72 101.074 22.888C100.635 23.056 100.159 23.14 99.6459 23.14ZM99.6459 21.782C100.206 21.782 100.668 21.586 101.032 21.194C101.405 20.802 101.592 20.1907 101.592 19.36C101.592 18.5387 101.405 17.932 101.032 17.54C100.668 17.1387 100.206 16.938 99.6459 16.938C99.0953 16.938 98.6333 17.1387 98.2599 17.54C97.8959 17.932 97.7139 18.5387 97.7139 19.36C97.7139 20.1907 97.8959 20.802 98.2599 21.194C98.6333 21.586 99.0953 21.782 99.6459 21.782ZM111.449 19.388C111.449 19.9947 111.355 20.5313 111.169 20.998C110.982 21.4647 110.725 21.8567 110.399 22.174C110.081 22.4913 109.699 22.734 109.251 22.902C108.812 23.0607 108.336 23.14 107.823 23.14C107.3 23.14 106.819 23.0513 106.381 22.874C105.942 22.6967 105.564 22.4307 105.247 22.076C104.929 21.712 104.677 21.264 104.491 20.732C104.313 20.1907 104.225 19.556 104.225 18.828C104.225 18.1653 104.253 17.5587 104.309 17.008C104.365 16.4573 104.458 15.9627 104.589 15.524C104.729 15.0853 104.915 14.7027 105.149 14.376C105.382 14.04 105.681 13.7507 106.045 13.508C106.474 13.2373 106.931 13.0647 107.417 12.99C107.911 12.9153 108.415 12.8687 108.929 12.85C109.498 12.822 109.927 12.7753 110.217 12.71C110.506 12.6353 110.753 12.542 110.959 12.43V13.872C110.856 13.9373 110.749 13.9933 110.637 14.04C110.525 14.0773 110.394 14.11 110.245 14.138C110.095 14.166 109.923 14.194 109.727 14.222C109.531 14.2407 109.302 14.2593 109.041 14.278C108.565 14.3247 108.131 14.3713 107.739 14.418C107.347 14.4553 106.997 14.572 106.689 14.768C106.334 15.0107 106.073 15.3467 105.905 15.776C105.737 16.2053 105.625 16.728 105.569 17.344C106.035 16.2893 106.936 15.762 108.271 15.762C108.7 15.762 109.106 15.846 109.489 16.014C109.881 16.1727 110.221 16.406 110.511 16.714C110.8 17.022 111.029 17.4 111.197 17.848C111.365 18.296 111.449 18.8093 111.449 19.388ZM107.823 21.782C108.392 21.782 108.859 21.5907 109.223 21.208C109.596 20.816 109.783 20.2187 109.783 19.416C109.783 18.6133 109.596 18.0207 109.223 17.638C108.859 17.246 108.392 17.05 107.823 17.05C107.263 17.05 106.801 17.2413 106.437 17.624C106.082 18.0067 105.905 18.5947 105.905 19.388C105.905 20.2093 106.087 20.816 106.451 21.208C106.815 21.5907 107.272 21.782 107.823 21.782ZM113.259 20.424C113.361 19.948 113.427 19.332 113.455 18.576C113.492 17.8107 113.511 16.8633 113.511 15.734H118.733V23H117.109V17.05H114.995C114.976 18.0113 114.939 18.8607 114.883 19.598C114.827 20.3353 114.71 20.9607 114.533 21.474C114.365 21.978 114.117 22.3653 113.791 22.636C113.473 22.9067 113.044 23.042 112.503 23.042C112.428 23.042 112.353 23.0373 112.279 23.028C112.213 23.028 112.143 23.0233 112.069 23.014V21.502C112.162 21.5207 112.232 21.53 112.279 21.53C112.531 21.53 112.731 21.4413 112.881 21.264C113.039 21.0773 113.165 20.7973 113.259 20.424ZM126.648 22.468C126.545 22.5333 126.419 22.608 126.27 22.692C126.121 22.7667 125.943 22.8367 125.738 22.902C125.533 22.9673 125.295 23.0233 125.024 23.07C124.753 23.1167 124.445 23.14 124.1 23.14C122.765 23.14 121.767 22.8087 121.104 22.146C120.451 21.4833 120.124 20.5547 120.124 19.36C120.124 18.772 120.213 18.2447 120.39 17.778C120.567 17.3113 120.815 16.9193 121.132 16.602C121.449 16.2753 121.827 16.028 122.266 15.86C122.705 15.6827 123.185 15.594 123.708 15.594C124.249 15.594 124.735 15.6827 125.164 15.86C125.603 16.0373 125.962 16.3033 126.242 16.658C126.522 17.0127 126.713 17.4513 126.816 17.974C126.928 18.4967 126.933 19.108 126.83 19.808H121.804C121.869 20.4707 122.089 20.97 122.462 21.306C122.835 21.6327 123.419 21.796 124.212 21.796C124.791 21.796 125.271 21.726 125.654 21.586C126.046 21.4367 126.377 21.2827 126.648 21.124V22.468ZM123.708 16.882C123.232 16.882 122.831 17.0267 122.504 17.316C122.177 17.6053 121.963 18.0347 121.86 18.604H125.276C125.295 18.016 125.164 17.582 124.884 17.302C124.604 17.022 124.212 16.882 123.708 16.882ZM135.156 17.736L133.014 22.3H131.824L129.808 17.694V23H128.338V15.734H130.564L132.552 20.242L134.652 15.734H136.78V23H135.156V17.736ZM143.291 20.802L146.651 15.734H148.247V23H146.637V17.96L143.305 23H141.681V15.734H143.291V20.802ZM153.152 15.734H159.326V23H157.702V17.05H154.776V23H153.152V15.734ZM164.3 23.14C163.787 23.14 163.311 23.056 162.872 22.888C162.434 22.72 162.051 22.4773 161.724 22.16C161.407 21.8333 161.155 21.4367 160.968 20.97C160.791 20.5033 160.702 19.9667 160.702 19.36C160.702 18.7533 160.791 18.2167 160.968 17.75C161.155 17.2833 161.407 16.8913 161.724 16.574C162.051 16.2473 162.434 16.0047 162.872 15.846C163.311 15.678 163.787 15.594 164.3 15.594C164.814 15.594 165.29 15.678 165.728 15.846C166.167 16.0047 166.55 16.2473 166.876 16.574C167.203 16.8913 167.46 17.2833 167.646 17.75C167.833 18.2167 167.926 18.7533 167.926 19.36C167.926 19.9667 167.833 20.5033 167.646 20.97C167.46 21.4367 167.203 21.8333 166.876 22.16C166.55 22.4773 166.167 22.72 165.728 22.888C165.29 23.056 164.814 23.14 164.3 23.14ZM164.3 21.782C164.86 21.782 165.322 21.586 165.686 21.194C166.06 20.802 166.246 20.1907 166.246 19.36C166.246 18.5387 166.06 17.932 165.686 17.54C165.322 17.1387 164.86 16.938 164.3 16.938C163.75 16.938 163.288 17.1387 162.914 17.54C162.55 17.932 162.368 18.5387 162.368 19.36C162.368 20.1907 162.55 20.802 162.914 21.194C163.288 21.586 163.75 21.782 164.3 21.782ZM168.993 21.684C169.208 21.4973 169.376 21.2407 169.497 20.914C169.628 20.5873 169.731 20.1813 169.805 19.696C169.88 19.2013 169.936 18.6273 169.973 17.974C170.011 17.3207 170.043 16.574 170.071 15.734H175.391V21.684H176.483V25.072H175.069L174.943 23H169.931L169.805 25.072H168.377V21.684H168.993ZM173.767 21.684V17.05H171.471C171.425 18.198 171.345 19.15 171.233 19.906C171.131 20.6527 170.958 21.2453 170.715 21.684H173.767ZM177.935 21.684C178.149 21.4973 178.317 21.2407 178.439 20.914C178.569 20.5873 178.672 20.1813 178.747 19.696C178.821 19.2013 178.877 18.6273 178.915 17.974C178.952 17.3207 178.985 16.574 179.013 15.734H184.333V21.684H185.425V25.072H184.011L183.885 23H178.873L178.747 25.072H177.319V21.684H177.935ZM182.709 21.684V17.05H180.413C180.366 18.198 180.287 19.15 180.175 19.906C180.072 20.6527 179.899 21.2453 179.657 21.684H182.709ZM192.56 22.468C192.458 22.5333 192.332 22.608 192.182 22.692C192.033 22.7667 191.856 22.8367 191.65 22.902C191.445 22.9673 191.207 23.0233 190.936 23.07C190.666 23.1167 190.358 23.14 190.012 23.14C188.678 23.14 187.679 22.8087 187.016 22.146C186.363 21.4833 186.036 20.5547 186.036 19.36C186.036 18.772 186.125 18.2447 186.302 17.778C186.48 17.3113 186.727 16.9193 187.044 16.602C187.362 16.2753 187.74 16.028 188.178 15.86C188.617 15.6827 189.098 15.594 189.62 15.594C190.162 15.594 190.647 15.6827 191.076 15.86C191.515 16.0373 191.874 16.3033 192.154 16.658C192.434 17.0127 192.626 17.4513 192.728 17.974C192.84 18.4967 192.845 19.108 192.742 19.808H187.716C187.782 20.4707 188.001 20.97 188.374 21.306C188.748 21.6327 189.331 21.796 190.124 21.796C190.703 21.796 191.184 21.726 191.566 21.586C191.958 21.4367 192.29 21.2827 192.56 21.124V22.468ZM189.62 16.882C189.144 16.882 188.743 17.0267 188.416 17.316C188.09 17.6053 187.875 18.0347 187.772 18.604H191.188C191.207 18.016 191.076 17.582 190.796 17.302C190.516 17.022 190.124 16.882 189.62 16.882ZM198.254 23.14C197.703 23.14 197.227 23.0187 196.826 22.776C196.434 22.524 196.117 22.188 195.874 21.768V25.478H194.25V15.734H195.734L195.846 17.022C196.089 16.5833 196.411 16.238 196.812 15.986C197.213 15.7247 197.703 15.594 198.282 15.594C198.711 15.594 199.117 15.6733 199.5 15.832C199.892 15.9813 200.233 16.2147 200.522 16.532C200.811 16.84 201.04 17.232 201.208 17.708C201.385 18.1747 201.474 18.7253 201.474 19.36C201.474 20.004 201.385 20.564 201.208 21.04C201.04 21.5067 200.807 21.8987 200.508 22.216C200.219 22.524 199.878 22.7573 199.486 22.916C199.094 23.0653 198.683 23.14 198.254 23.14ZM197.862 21.782C198.441 21.782 198.907 21.586 199.262 21.194C199.626 20.7927 199.808 20.1813 199.808 19.36C199.808 18.548 199.626 17.9413 199.262 17.54C198.907 17.1387 198.445 16.938 197.876 16.938C197.587 16.938 197.321 16.9893 197.078 17.092C196.835 17.1853 196.621 17.3347 196.434 17.54C196.257 17.7453 196.117 18.002 196.014 18.31C195.911 18.6087 195.86 18.9587 195.86 19.36C195.86 19.7707 195.911 20.13 196.014 20.438C196.117 20.7367 196.257 20.9887 196.434 21.194C196.611 21.39 196.821 21.5393 197.064 21.642C197.316 21.7353 197.582 21.782 197.862 21.782ZM207.979 15.734V18.73H208.581L210.667 15.734H212.333L209.855 19.22L212.473 23H210.569L208.539 20.046H207.979V23H206.355V20.046H205.795L203.723 23H201.875L204.493 19.29L202.001 15.734H203.723L205.767 18.73H206.355V15.734H207.979ZM215.809 20.046H215.179V23H213.555V15.734H215.179V18.73H215.865L218.175 15.734H219.883L217.139 19.234L219.995 23H218.077L215.809 20.046ZM225.123 21.726C225.049 21.894 224.946 22.062 224.815 22.23C224.694 22.398 224.54 22.552 224.353 22.692C224.176 22.8227 223.961 22.93 223.709 23.014C223.457 23.098 223.163 23.14 222.827 23.14C222.51 23.14 222.216 23.0933 221.945 23C221.675 22.916 221.437 22.7853 221.231 22.608C221.035 22.4307 220.877 22.2113 220.755 21.95C220.643 21.6793 220.587 21.3713 220.587 21.026C220.587 20.2327 220.881 19.64 221.469 19.248C222.057 18.8467 222.888 18.646 223.961 18.646H225.067V18.198C225.067 17.722 224.946 17.3953 224.703 17.218C224.461 17.0313 224.059 16.938 223.499 16.938C223.023 16.938 222.575 17.008 222.155 17.148C221.745 17.2787 221.381 17.4327 221.063 17.61V16.252C221.353 16.0933 221.735 15.944 222.211 15.804C222.687 15.664 223.205 15.594 223.765 15.594C224.699 15.594 225.417 15.79 225.921 16.182C226.435 16.5647 226.691 17.1807 226.691 18.03V21.824C226.691 21.908 226.691 22.006 226.691 22.118C226.701 22.2207 226.705 22.328 226.705 22.44C226.715 22.552 226.724 22.6593 226.733 22.762C226.743 22.8553 226.752 22.9347 226.761 23H225.263C225.235 22.8693 225.207 22.6873 225.179 22.454C225.161 22.2207 225.147 22.0107 225.137 21.824L225.123 21.726ZM223.275 21.88C223.621 21.88 223.905 21.81 224.129 21.67C224.363 21.5207 224.549 21.3527 224.689 21.166C224.829 20.97 224.927 20.7787 224.983 20.592C225.039 20.4053 225.067 20.2747 225.067 20.2V19.71H224.059C223.415 19.71 222.944 19.8127 222.645 20.018C222.347 20.214 222.197 20.494 222.197 20.858C222.197 21.1753 222.286 21.4273 222.463 21.614C222.65 21.7913 222.921 21.88 223.275 21.88Z" fill="white"/>
</svg>
