<?xml version="1.0" encoding="UTF-8" standalone="no"?>
<!-- Created with Inkscape (http://www.inkscape.org/) -->

<svg
   xmlns:dc="http://purl.org/dc/elements/1.1/"
   xmlns:cc="http://creativecommons.org/ns#"
   xmlns:rdf="http://www.w3.org/1999/02/22-rdf-syntax-ns#"
   xmlns:svg="http://www.w3.org/2000/svg"
   xmlns="http://www.w3.org/2000/svg"
   xmlns:sodipodi="http://sodipodi.sourceforge.net/DTD/sodipodi-0.dtd"
   xmlns:inkscape="http://www.inkscape.org/namespaces/inkscape"
   width="27.127993mm"
   height="4.2333331mm"
   viewBox="0 0 96.122808 14.999999"
   id="svg2"
   version="1.1"
   inkscape:version="0.91 r13725"
   sodipodi:docname="balance.svg">
  <defs
     id="defs4" />
  <sodipodi:namedview
     id="base"
     pagecolor="#ffffff"
     bordercolor="#666666"
     borderopacity="1.0"
     inkscape:pageopacity="0.0"
     inkscape:pageshadow="2"
     inkscape:zoom="1.4"
     inkscape:cx="32.531422"
     inkscape:cy="54.971416"
     inkscape:document-units="px"
     inkscape:current-layer="layer1"
     showgrid="false"
     fit-margin-top="0"
     fit-margin-left="0"
     fit-margin-right="0"
     fit-margin-bottom="0"
     inkscape:window-width="1280"
     inkscape:window-height="692"
     inkscape:window-x="0"
     inkscape:window-y="1"
     inkscape:window-maximized="1" />
  <metadata
     id="metadata7">
    <rdf:RDF>
      <cc:Work
         rdf:about="">
        <dc:format>image/svg+xml</dc:format>
        <dc:type
           rdf:resource="http://purl.org/dc/dcmitype/StillImage" />
        <dc:title></dc:title>
      </cc:Work>
    </rdf:RDF>
  </metadata>
  <g
     inkscape:label="Layer 1"
     inkscape:groupmode="layer"
     id="layer1"
     transform="translate(-66.754292,-286.61935)">
    <g
       style="font-style:normal;font-weight:normal;font-size:14.76377964px;line-height:125%;font-family:sans-serif;letter-spacing:0px;word-spacing:0px;fill:#000000;fill-opacity:1;stroke:none;stroke-width:1px;stroke-linecap:butt;stroke-linejoin:miter;stroke-opacity:1"
       id="text3336">
      <path
         d="m 69.736572,299.40478 q -1.018701,0 -1.786418,-0.20669 -0.767716,-0.2067 -1.195866,-0.44292 l 0.457677,-1.78641 q 0.383859,0.19192 0.989174,0.42814 0.605315,0.22146 1.417323,0.22146 2.007874,0 2.007874,-1.47638 0,-1.43208 -2.007874,-1.43208 l -1.284449,0 0,-1.83071 1.358267,0 q 0.708662,0 1.136811,-0.3248 0.442914,-0.33957 0.442914,-0.98918 0,-0.59055 -0.42815,-0.91535 -0.428149,-0.32481 -1.254921,-0.32481 -0.841535,0 -1.417323,0.2067 -0.575787,0.20669 -0.90059,0.39862 l -0.31004,-1.74213 q 0.383858,-0.22145 1.062992,-0.42815 0.693898,-0.22145 1.742126,-0.22145 0.900591,0 1.609252,0.20669 0.708662,0.20669 1.195866,0.59055 0.487205,0.3691 0.738189,0.90059 0.250985,0.51673 0.250985,1.15158 0,0.47244 -0.177166,0.87106 -0.162401,0.38386 -0.457677,0.67913 -0.280512,0.29528 -0.649606,0.48721 -0.354331,0.19193 -0.752953,0.28051 0.487205,0.0738 0.930118,0.28051 0.442914,0.19193 0.782481,0.51673 0.35433,0.32481 0.546259,0.76772 0.206693,0.42815 0.206693,0.97441 0,0.72343 -0.295275,1.31398 -0.295276,0.57578 -0.841536,0.98917 -0.54626,0.41339 -1.343504,0.63484 -0.78248,0.22146 -1.771653,0.22146 z"
         style="font-style:normal;font-variant:normal;font-weight:bold;font-stretch:normal;font-family:'Yandex Sans Text';-inkscape-font-specification:'Yandex Sans Text Bold';fill:#b1b1b1;fill-opacity:1"
         id="path4240" />
      <path
         d="m 75.016699,300.94021 q 0.295276,-0.29527 0.54626,-0.79724 0.265748,-0.50197 0.42815,-1.0187 -0.531496,-0.1624 -0.767717,-0.50197 -0.221457,-0.35433 -0.221457,-0.75295 0,-0.59056 0.413386,-0.98918 0.413386,-0.39862 1.048229,-0.39862 0.679133,0 1.092519,0.41339 0.413386,0.39862 0.413386,1.21063 0,0.44291 -0.132874,0.87106 -0.132874,0.41339 -0.339567,0.78248 -0.191929,0.36909 -0.442913,0.66437 -0.236221,0.31004 -0.457677,0.51673 l -1.579725,0 z"
         style="font-style:normal;font-variant:normal;font-weight:bold;font-stretch:normal;font-family:'Yandex Sans Text';-inkscape-font-specification:'Yandex Sans Text Bold';fill:#b1b1b1;fill-opacity:1"
         id="path4242" />
      <path
         d="m 82.499859,299.40478 q -0.826771,0 -1.520669,-0.29528 -0.679134,-0.31004 -1.181102,-0.95964 -0.501969,-0.66437 -0.782481,-1.69784 -0.265748,-1.03346 -0.265748,-2.49508 0,-1.44685 0.265748,-2.46555 0.280512,-1.03346 0.782481,-1.68307 0.501968,-0.66437 1.181102,-0.95964 0.693898,-0.31004 1.520669,-0.31004 0.812008,0 1.491142,0.31004 0.693898,0.29527 1.181103,0.94488 0.487204,0.6496 0.752952,1.66831 0.280512,1.0187 0.280512,2.46555 0,1.44685 -0.280512,2.49508 -0.265748,1.03346 -0.752952,1.69783 -0.487205,0.66437 -1.181103,0.97441 -0.679134,0.31004 -1.491142,0.31004 z m -0.02953,-1.81595 q 0.354331,0 0.605315,-0.1624 0.265748,-0.17716 0.442913,-0.59055 0.177166,-0.42815 0.250984,-1.12205 0.08858,-0.69389 0.08858,-1.74212 0,-1.03347 -0.08858,-1.72736 -0.07382,-0.6939 -0.23622,-1.10729 -0.162402,-0.42815 -0.42815,-0.60531 -0.250984,-0.17717 -0.605315,-0.17717 -0.35433,0 -0.620078,0.17717 -0.265748,0.17716 -0.442914,0.60531 -0.177165,0.41339 -0.265748,1.10729 -0.07382,0.69389 -0.07382,1.72736 0,1.04823 0.07382,1.74212 0.08858,0.6939 0.250985,1.12205 0.177165,0.41339 0.428149,0.59055 0.265748,0.1624 0.620079,0.1624 z"
         style="font-style:normal;font-variant:normal;font-weight:bold;font-stretch:normal;font-family:'Yandex Sans Text';-inkscape-font-specification:'Yandex Sans Text Bold';fill:#b1b1b1;fill-opacity:1"
         id="path4244" />
      <path
         d="m 90.71798,299.40478 q -0.826772,0 -1.520669,-0.29528 -0.679134,-0.31004 -1.181103,-0.95964 -0.501968,-0.66437 -0.78248,-1.69784 -0.265748,-1.03346 -0.265748,-2.49508 0,-1.44685 0.265748,-2.46555 0.280512,-1.03346 0.78248,-1.68307 0.501969,-0.66437 1.181103,-0.95964 0.693897,-0.31004 1.520669,-0.31004 0.812008,0 1.491142,0.31004 0.693897,0.29527 1.181102,0.94488 0.487205,0.6496 0.752953,1.66831 0.280512,1.0187 0.280512,2.46555 0,1.44685 -0.280512,2.49508 -0.265748,1.03346 -0.752953,1.69783 -0.487205,0.66437 -1.181102,0.97441 -0.679134,0.31004 -1.491142,0.31004 z m -0.02953,-1.81595 q 0.354331,0 0.605315,-0.1624 0.265748,-0.17716 0.442914,-0.59055 0.177165,-0.42815 0.250984,-1.12205 0.08858,-0.69389 0.08858,-1.74212 0,-1.03347 -0.08858,-1.72736 -0.07382,-0.6939 -0.23622,-1.10729 -0.162402,-0.42815 -0.42815,-0.60531 -0.250984,-0.17717 -0.605315,-0.17717 -0.354331,0 -0.620079,0.17717 -0.265748,0.17716 -0.442913,0.60531 -0.177165,0.41339 -0.265748,1.10729 -0.07382,0.69389 -0.07382,1.72736 0,1.04823 0.07382,1.74212 0.08858,0.6939 0.250984,1.12205 0.177165,0.41339 0.42815,0.59055 0.265748,0.1624 0.620078,0.1624 z"
         style="font-style:normal;font-variant:normal;font-weight:bold;font-stretch:normal;font-family:'Yandex Sans Text';-inkscape-font-specification:'Yandex Sans Text Bold';fill:#b1b1b1;fill-opacity:1"
         id="path4246" />
      <path
         d="m 100.52044,301.61935 0,-2.30315 q -0.797247,-0.11811 -1.343507,-0.33957 -0.54626,-0.23622 -0.930118,-0.48721 l 0.310039,-1.91929 q 0.221457,0.1624 0.561024,0.32481 0.35433,0.1624 0.752952,0.29527 0.41339,0.13288 0.87106,0.22146 0.45768,0.0738 0.93012,0.0738 0.63484,0 1.03347,-0.22146 0.41338,-0.23622 0.41338,-0.88583 0,-0.36909 -0.14764,-0.60531 -0.13287,-0.25099 -0.38385,-0.41339 -0.23622,-0.1624 -0.57579,-0.26574 -0.3248,-0.11811 -0.72343,-0.2067 -0.54626,-0.13287 -1.10728,-0.31004 -0.54626,-0.19193 -1.003937,-0.54626 -0.442914,-0.35433 -0.738189,-0.90059 -0.280512,-0.56102 -0.280512,-1.41732 0,-1.25492 0.679134,-2.00787 0.679134,-0.75296 1.830704,-1.01871 l 0,-2.06692 2.15552,0 0,1.96358 q 0.72342,0.0738 1.19586,0.26575 0.47244,0.17716 0.75296,0.33956 l -0.31004,1.90453 q -0.50197,-0.29527 -1.10729,-0.45768 -0.59055,-0.17716 -1.3435,-0.17716 -0.78248,0 -1.19587,0.26575 -0.39862,0.26574 -0.39862,0.812 0,0.31004 0.14764,0.51674 0.1624,0.20669 0.42815,0.35433 0.26575,0.13287 0.60531,0.23622 0.33957,0.0886 0.72343,0.17716 0.60531,0.13288 1.16634,0.35433 0.56102,0.22146 0.98917,0.60532 0.44291,0.36909 0.6939,0.93012 0.26575,0.56102 0.26575,1.37303 0,0.82677 -0.22146,1.41732 -0.22146,0.57579 -0.60532,0.95965 -0.36909,0.38386 -0.88582,0.59055 -0.50197,0.20669 -1.063,0.29527 l 0,2.27363 -2.14074,0 z"
         style="font-style:normal;font-variant:normal;font-weight:bold;font-stretch:normal;font-family:'Yandex Sans Text';-inkscape-font-specification:'Yandex Sans Text Bold';fill:#b1b1b1;fill-opacity:1"
         id="path4248" />
      <path
         d="m 111.64218,301.02879 4.53248,-12.93307 1.875,0 -4.54725,12.93307 -1.86023,0 z"
         style="font-style:normal;font-variant:normal;font-weight:bold;font-stretch:normal;font-family:'Yandex Sans Text';-inkscape-font-specification:'Yandex Sans Text Bold';fill:#b1b1b1;fill-opacity:1"
         id="path4250" />
      <path
         d="m 125.18379,299.25714 3.70571,-8.69587 -4.59153,0 0,-1.875 7.26377,0 0,1.18111 -3.89763,9.38976 -2.48032,0 z"
         style="font-style:normal;font-variant:normal;font-weight:bold;font-stretch:normal;font-family:'Yandex Sans Text';-inkscape-font-specification:'Yandex Sans Text Bold';fill:#66ab3c;fill-opacity:1"
         id="path4252" />
      <path
         d="m 132.45703,300.94021 q 0.29527,-0.29527 0.54626,-0.79724 0.26574,-0.50197 0.42815,-1.0187 -0.5315,-0.1624 -0.76772,-0.50197 -0.22146,-0.35433 -0.22146,-0.75295 0,-0.59056 0.41339,-0.98918 0.41338,-0.39862 1.04823,-0.39862 0.67913,0 1.09252,0.41339 0.41338,0.39862 0.41338,1.21063 0,0.44291 -0.13287,0.87106 -0.13288,0.41339 -0.33957,0.78248 -0.19193,0.36909 -0.44291,0.66437 -0.23622,0.31004 -0.45768,0.51673 l -1.57972,0 z"
         style="font-style:normal;font-variant:normal;font-weight:bold;font-stretch:normal;font-family:'Yandex Sans Text';-inkscape-font-specification:'Yandex Sans Text Bold';fill:#66ab3c;fill-opacity:1"
         id="path4254" />
      <path
         d="m 139.95495,299.40478 q -0.84154,0 -1.53543,-0.19193 -0.67914,-0.20669 -1.18111,-0.57579 -0.50196,-0.38386 -0.78248,-0.91535 -0.26574,-0.54626 -0.26574,-1.24016 0,-1.00394 0.54626,-1.68307 0.56102,-0.6939 1.52067,-1.0187 -0.79725,-0.29528 -1.28445,-0.91536 -0.47244,-0.62007 -0.47244,-1.55019 0,-0.66437 0.25098,-1.1811 0.26575,-0.51674 0.72342,-0.87107 0.47245,-0.35433 1.09252,-0.53149 0.63485,-0.19193 1.3878,-0.19193 0.72343,0 1.35827,0.17716 0.63484,0.17717 1.09252,0.5315 0.45767,0.33957 0.72342,0.8563 0.26575,0.50197 0.26575,1.1811 0,0.94488 -0.4872,1.57972 -0.47245,0.62008 -1.28445,0.91536 0.93012,0.31004 1.47637,0.98917 0.56103,0.67914 0.56103,1.66831 0,0.6939 -0.28051,1.25492 -0.26575,0.54626 -0.76772,0.93012 -0.4872,0.38386 -1.16634,0.59055 -0.67913,0.19193 -1.49114,0.19193 z m 0,-6.4813 q 0.51673,0 0.82677,-0.3248 0.31004,-0.33957 0.31004,-0.95965 0,-0.63484 -0.31004,-0.97441 -0.31004,-0.33957 -0.82677,-0.33957 -0.5315,0 -0.8563,0.33957 -0.31004,0.33957 -0.31004,0.97441 0,0.62008 0.31004,0.95965 0.3248,0.3248 0.8563,0.3248 z m 0,4.69488 q 0.59055,0 0.94488,-0.38386 0.3691,-0.38385 0.3691,-1.12204 0,-0.73819 -0.3691,-1.12205 -0.35433,-0.38386 -0.94488,-0.38386 -0.63484,0 -1.00394,0.38386 -0.36909,0.38386 -0.36909,1.12205 0,0.73819 0.36909,1.12204 0.3691,0.38386 1.00394,0.38386 z"
         style="font-style:normal;font-variant:normal;font-weight:bold;font-stretch:normal;font-family:'Yandex Sans Text';-inkscape-font-specification:'Yandex Sans Text Bold';fill:#66ab3c;fill-opacity:1"
         id="path4256" />
      <path
         d="m 147.8778,299.25714 0,-8.20866 -2.84941,2.21457 0,-2.17028 3.08563,-2.4065 2.12598,0 0,10.57087 -2.3622,0 z"
         style="font-style:normal;font-variant:normal;font-weight:bold;font-stretch:normal;font-family:'Yandex Sans Text';-inkscape-font-specification:'Yandex Sans Text Bold';fill:#66ab3c;fill-opacity:1"
         id="path4258" />
      <path
         d="m 157.96077,301.61935 0,-2.30315 q -0.79725,-0.11811 -1.34351,-0.33957 -0.54626,-0.23622 -0.93011,-0.48721 l 0.31003,-1.91929 q 0.22146,0.1624 0.56103,0.32481 0.35433,0.1624 0.75295,0.29527 0.41339,0.13288 0.87106,0.22146 0.45768,0.0738 0.93012,0.0738 0.63484,0 1.03347,-0.22146 0.41338,-0.23622 0.41338,-0.88583 0,-0.36909 -0.14764,-0.60531 -0.13287,-0.25099 -0.38385,-0.41339 -0.23622,-0.1624 -0.57579,-0.26574 -0.3248,-0.11811 -0.72343,-0.2067 -0.54626,-0.13287 -1.10728,-0.31004 -0.54626,-0.19193 -1.00394,-0.54626 -0.44291,-0.35433 -0.73819,-0.90059 -0.28051,-0.56102 -0.28051,-1.41732 0,-1.25492 0.67914,-2.00787 0.67913,-0.75296 1.83071,-1.01871 l 0,-2.06692 2.15551,0 0,1.96358 q 0.72342,0.0738 1.19586,0.26575 0.47244,0.17716 0.75296,0.33956 l -0.31004,1.90453 q -0.50197,-0.29527 -1.10729,-0.45768 -0.59055,-0.17716 -1.3435,-0.17716 -0.78248,0 -1.19587,0.26575 -0.39862,0.26574 -0.39862,0.812 0,0.31004 0.14764,0.51674 0.1624,0.20669 0.42815,0.35433 0.26575,0.13287 0.60531,0.23622 0.33957,0.0886 0.72343,0.17716 0.60531,0.13288 1.16634,0.35433 0.56102,0.22146 0.98917,0.60532 0.44291,0.36909 0.6939,0.93012 0.26575,0.56102 0.26575,1.37303 0,0.82677 -0.22146,1.41732 -0.22146,0.57579 -0.60532,0.95965 -0.36909,0.38386 -0.88582,0.59055 -0.50197,0.20669 -1.06299,0.29527 l 0,2.27363 -2.14075,0 z"
         style="font-style:normal;font-variant:normal;font-weight:bold;font-stretch:normal;font-family:'Yandex Sans Text';-inkscape-font-specification:'Yandex Sans Text Bold';fill:#66ab3c;fill-opacity:1"
         id="path4260" />
    </g>
  </g>
</svg>
