<?xml version="1.0" encoding="UTF-8"?>
<svg width="20px" height="20px" viewBox="0 0 20 20" version="1.1" xmlns="http://www.w3.org/2000/svg" xmlns:xlink="http://www.w3.org/1999/xlink">
    <!-- Generator: Sketch 48.2 (47327) - http://www.bohemiancoding.com/sketch -->
    <title>map_menu_settings</title>
    <desc>Created with Sketch.</desc>
    <defs></defs>
    <g id="7.-Menu-glyphs" stroke="none" stroke-width="1" fill="none" fill-rule="evenodd" transform="translate(-206.000000, -350.000000)">
        <g id="icons" transform="translate(62.000000, 350.000000)" fill="#666666">
            <g id="map_menu_settings" transform="translate(144.000000, 0.000000)">
                <path d="M11.0059888,20 L8.99401119,20 C8.25307636,20 7.57245018,19.488 7.37479998,18.7825 L6.82188624,16.8085 C6.40124608,16.6155 5.99935735,16.3845 5.62027441,16.1175 L3.60373564,16.634 C2.90131726,16.8145 2.08537671,16.475 1.7250452,15.859 L0.718549598,14.14 C0.348082183,13.5075 0.457549983,12.6695 0.979042418,12.148 L2.46141887,10.662 C2.44216065,10.4425 2.43202474,10.221 2.43202474,10 C2.43202474,9.7785 2.44216065,9.5575 2.46141887,9.3375 L0.978028828,7.8515 C0.457549983,7.3295 0.348082183,6.4915 0.719563189,5.8585 L1.7250452,4.14 C2.08537671,3.525 2.90081046,3.187 3.60322884,3.366 L5.62027441,3.8825 C5.99935735,3.6155 6.40124608,3.3845 6.82188624,3.1915 L7.37479998,1.2175 C7.57245018,0.512 8.25358316,0 8.99401119,0 L11.0059888,0 C11.7469236,0 12.4275498,0.512 12.6252,1.2175 L13.1781138,3.1915 C13.5987539,3.3845 14.0006426,3.6155 14.3797256,3.8825 L16.3962644,3.366 C17.0991895,3.1865 17.9151301,3.525 18.2749548,4.1405 L19.2814504,5.8595 C19.6519178,6.4925 19.54245,7.3305 19.0209576,7.852 L17.5385811,9.3375 C17.5578393,9.5575 17.5679753,9.7785 17.5679753,10 C17.5679753,10.221 17.5578393,10.4425 17.5385811,10.662 L19.0219712,12.1485 C19.54245,12.6705 19.6519178,13.5085 19.2809436,14.141 L18.2749548,15.8595 C17.9146233,16.4745 17.0996963,16.8145 16.3967712,16.634 L14.3797256,16.1175 C14.0006426,16.3845 13.5987539,16.6155 13.1781138,16.8085 L12.6252,18.7825 C12.4275498,19.488 11.7464168,20 11.0059888,20 L11.0059888,20 L11.0059888,20 Z M9.25906517,18 L10.7409348,18 L11.4904852,15.3235 L11.9689,15.1425 C12.5273885,14.932 13.0458402,14.6335 13.5105715,14.2555 L13.9094195,13.9305 L16.6516892,14.633 L17.3926241,13.367 L15.3938231,11.363 L15.4728832,10.8655 C15.517988,10.5825 15.5407938,10.2915 15.5407938,10 C15.5407938,9.7085 15.517988,9.4175 15.4728832,9.1345 L15.3938231,8.637 L17.3926241,6.633 L16.6516892,5.367 L13.9094195,6.069 L13.5105715,5.744 C13.0458402,5.3665 12.5273885,5.068 11.9689,4.857 L11.4904852,4.6765 L10.7409348,2 L9.25906517,2 L8.50951482,4.6765 L8.03109999,4.857 C7.47261149,5.068 6.95415983,5.3665 6.48942847,5.744 L6.09058052,6.069 L3.34831077,5.367 L2.60737594,6.633 L4.60617688,8.637 L4.5271168,9.1345 C4.48201201,9.4175 4.45920622,9.7085 4.45920622,10 C4.45920622,10.2915 4.48201201,10.5825 4.5271168,10.8655 L4.60617688,11.363 L2.60737594,13.367 L3.34831077,14.633 L6.09058052,13.9305 L6.48942847,14.2555 C6.95415983,14.6335 7.47261149,14.932 8.03109999,15.1425 L8.50951482,15.3235 L9.25906517,18 L9.25906517,18 Z M10,13 C8.34314575,13 7,11.6568542 7,10 C7,8.34314575 8.34314575,7 10,7 C11.6568542,7 13,8.34314575 13,10 C13,11.6568542 11.6568542,13 10,13 L10,13 L10,13 Z M11,10 C11,9.44771525 10.5522847,9 10,9 C9.44771525,9 9,9.44771525 9,10 C9,10.5522847 9.44771525,11 10,11 C10.5522847,11 11,10.5522847 11,10 L11,10 Z" id="Shape"></path>
            </g>
        </g>
    </g>
</svg>