<svg width="163" height="36" viewBox="0 0 163 36" fill="none" xmlns="http://www.w3.org/2000/svg">
<rect width="163" height="36" rx="8" fill="#2C3C4F"/>
<path d="M22.0362 23.14C21.2615 23.14 20.5615 23.0233 19.9362 22.79C19.3109 22.5567 18.7742 22.2207 18.3262 21.782C17.8875 21.334 17.5469 20.7927 17.3042 20.158C17.0709 19.514 16.9542 18.7907 16.9542 17.988C16.9542 17.176 17.0662 16.4527 17.2902 15.818C17.5235 15.1833 17.8549 14.6467 18.2842 14.208C18.7229 13.76 19.2549 13.4193 19.8802 13.186C20.5055 12.9527 21.2195 12.836 22.0222 12.836C22.7129 12.836 23.3009 12.906 23.7862 13.046C24.2809 13.1767 24.6729 13.3307 24.9622 13.508V15.02C24.5982 14.7867 24.1595 14.6093 23.6462 14.488C23.1422 14.3573 22.6195 14.292 22.0782 14.292C20.9489 14.292 20.1089 14.6 19.5582 15.216C19.0169 15.8227 18.7462 16.7467 18.7462 17.988C18.7462 20.452 19.8849 21.684 22.1622 21.684C22.6942 21.684 23.1935 21.6187 23.6602 21.488C24.1362 21.3573 24.5702 21.152 24.9622 20.872V22.37C24.7009 22.566 24.3229 22.7433 23.8282 22.902C23.3335 23.0607 22.7362 23.14 22.0362 23.14ZM29.7674 17.05V23H28.1434V17.05H25.9454V15.734H32.0074V17.05H29.7674ZM37.2542 21.726C37.1795 21.894 37.0769 22.062 36.9462 22.23C36.8249 22.398 36.6709 22.552 36.4842 22.692C36.3069 22.8227 36.0922 22.93 35.8402 23.014C35.5882 23.098 35.2942 23.14 34.9582 23.14C34.6409 23.14 34.3469 23.0933 34.0762 23C33.8055 22.916 33.5675 22.7853 33.3622 22.608C33.1662 22.4307 33.0075 22.2113 32.8862 21.95C32.7742 21.6793 32.7182 21.3713 32.7182 21.026C32.7182 20.2327 33.0122 19.64 33.6002 19.248C34.1882 18.8467 35.0189 18.646 36.0922 18.646H37.1982V18.198C37.1982 17.722 37.0769 17.3953 36.8342 17.218C36.5915 17.0313 36.1902 16.938 35.6302 16.938C35.1542 16.938 34.7062 17.008 34.2862 17.148C33.8755 17.2787 33.5115 17.4327 33.1942 17.61V16.252C33.4835 16.0933 33.8662 15.944 34.3422 15.804C34.8182 15.664 35.3362 15.594 35.8962 15.594C36.8295 15.594 37.5482 15.79 38.0522 16.182C38.5655 16.5647 38.8222 17.1807 38.8222 18.03V21.824C38.8222 21.908 38.8222 22.006 38.8222 22.118C38.8315 22.2207 38.8362 22.328 38.8362 22.44C38.8455 22.552 38.8549 22.6593 38.8642 22.762C38.8735 22.8553 38.8829 22.9347 38.8922 23H37.3942C37.3662 22.8693 37.3382 22.6873 37.3102 22.454C37.2915 22.2207 37.2775 22.0107 37.2682 21.824L37.2542 21.726ZM35.4062 21.88C35.7515 21.88 36.0362 21.81 36.2602 21.67C36.4935 21.5207 36.6802 21.3527 36.8202 21.166C36.9602 20.97 37.0582 20.7787 37.1142 20.592C37.1702 20.4053 37.1982 20.2747 37.1982 20.2V19.71H36.1902C35.5462 19.71 35.0749 19.8127 34.7762 20.018C34.4775 20.214 34.3282 20.494 34.3282 20.858C34.3282 21.1753 34.4169 21.4273 34.5942 21.614C34.7809 21.7913 35.0515 21.88 35.4062 21.88ZM43.7264 17.05V23H42.1024V17.05H39.9044V15.734H45.9664V17.05H43.7264ZM53.0569 20.494C53.0569 20.914 52.9776 21.2827 52.8189 21.6C52.6696 21.9173 52.4596 22.1787 52.1889 22.384C51.9183 22.5893 51.5963 22.7433 51.2229 22.846C50.8496 22.9487 50.4389 23 49.9909 23H47.1909V15.734H48.8149V18.086H50.0329C50.9849 18.086 51.7269 18.282 52.2589 18.674C52.7909 19.066 53.0569 19.6727 53.0569 20.494ZM48.8149 19.374V21.726H49.8649C50.3129 21.726 50.6769 21.6373 50.9569 21.46C51.2369 21.2733 51.3769 20.97 51.3769 20.55C51.3769 20.13 51.2509 19.8313 50.9989 19.654C50.7469 19.4673 50.3829 19.374 49.9069 19.374H48.8149ZM60.8048 23.14C60.2168 23.14 59.6895 23.056 59.2228 22.888C58.7562 22.7107 58.3595 22.4633 58.0328 22.146C57.7062 21.8193 57.4542 21.4227 57.2768 20.956C57.0995 20.4893 57.0108 19.9573 57.0108 19.36C57.0108 18.772 57.0995 18.2447 57.2768 17.778C57.4542 17.3113 57.7062 16.9193 58.0328 16.602C58.3595 16.2753 58.7608 16.028 59.2368 15.86C59.7128 15.6827 60.2448 15.594 60.8328 15.594C61.3368 15.594 61.7755 15.65 62.1488 15.762C62.5315 15.874 62.8348 16.014 63.0588 16.182V17.526C62.7695 17.3393 62.4522 17.1947 62.1068 17.092C61.7708 16.9893 61.3788 16.938 60.9308 16.938C59.4282 16.938 58.6768 17.7453 58.6768 19.36C58.6768 20.9747 59.4142 21.782 60.8888 21.782C61.3648 21.782 61.7708 21.7307 62.1068 21.628C62.4522 21.516 62.7695 21.376 63.0588 21.208V22.552C62.8162 22.7107 62.5128 22.8507 62.1488 22.972C61.7848 23.084 61.3368 23.14 60.8048 23.14ZM68.7405 21.726C68.6659 21.894 68.5632 22.062 68.4325 22.23C68.3112 22.398 68.1572 22.552 67.9705 22.692C67.7932 22.8227 67.5785 22.93 67.3265 23.014C67.0745 23.098 66.7805 23.14 66.4445 23.14C66.1272 23.14 65.8332 23.0933 65.5625 23C65.2919 22.916 65.0539 22.7853 64.8485 22.608C64.6525 22.4307 64.4939 22.2113 64.3725 21.95C64.2605 21.6793 64.2045 21.3713 64.2045 21.026C64.2045 20.2327 64.4985 19.64 65.0865 19.248C65.6745 18.8467 66.5052 18.646 67.5785 18.646H68.6845V18.198C68.6845 17.722 68.5632 17.3953 68.3205 17.218C68.0779 17.0313 67.6765 16.938 67.1165 16.938C66.6405 16.938 66.1925 17.008 65.7725 17.148C65.3619 17.2787 64.9979 17.4327 64.6805 17.61V16.252C64.9699 16.0933 65.3525 15.944 65.8285 15.804C66.3045 15.664 66.8225 15.594 67.3825 15.594C68.3159 15.594 69.0345 15.79 69.5385 16.182C70.0519 16.5647 70.3085 17.1807 70.3085 18.03V21.824C70.3085 21.908 70.3085 22.006 70.3085 22.118C70.3179 22.2207 70.3225 22.328 70.3225 22.44C70.3319 22.552 70.3412 22.6593 70.3505 22.762C70.3599 22.8553 70.3692 22.9347 70.3785 23H68.8805C68.8525 22.8693 68.8245 22.6873 68.7965 22.454C68.7779 22.2207 68.7639 22.0107 68.7545 21.824L68.7405 21.726ZM66.8925 21.88C67.2379 21.88 67.5225 21.81 67.7465 21.67C67.9799 21.5207 68.1665 21.3527 68.3065 21.166C68.4465 20.97 68.5445 20.7787 68.6005 20.592C68.6565 20.4053 68.6845 20.2747 68.6845 20.2V19.71H67.6765C67.0325 19.71 66.5612 19.8127 66.2625 20.018C65.9639 20.214 65.8145 20.494 65.8145 20.858C65.8145 21.1753 65.9032 21.4273 66.0805 21.614C66.2672 21.7913 66.5379 21.88 66.8925 21.88ZM78.8784 17.736L76.7364 22.3H75.5464L73.5304 17.694V23H72.0604V15.734H74.2864L76.2744 20.242L78.3744 15.734H80.5024V23H78.8784V17.736ZM85.478 23.14C84.9646 23.14 84.4886 23.056 84.05 22.888C83.6113 22.72 83.2286 22.4773 82.902 22.16C82.5846 21.8333 82.3326 21.4367 82.146 20.97C81.9686 20.5033 81.88 19.9667 81.88 19.36C81.88 18.7533 81.9686 18.2167 82.146 17.75C82.3326 17.2833 82.5846 16.8913 82.902 16.574C83.2286 16.2473 83.6113 16.0047 84.05 15.846C84.4886 15.678 84.9646 15.594 85.478 15.594C85.9913 15.594 86.4673 15.678 86.906 15.846C87.3446 16.0047 87.7273 16.2473 88.054 16.574C88.3806 16.8913 88.6373 17.2833 88.824 17.75C89.0106 18.2167 89.104 18.7533 89.104 19.36C89.104 19.9667 89.0106 20.5033 88.824 20.97C88.6373 21.4367 88.3806 21.8333 88.054 22.16C87.7273 22.4773 87.3446 22.72 86.906 22.888C86.4673 23.056 85.9913 23.14 85.478 23.14ZM85.478 21.782C86.038 21.782 86.5 21.586 86.864 21.194C87.2373 20.802 87.424 20.1907 87.424 19.36C87.424 18.5387 87.2373 17.932 86.864 17.54C86.5 17.1387 86.038 16.938 85.478 16.938C84.9273 16.938 84.4653 17.1387 84.092 17.54C83.728 17.932 83.546 18.5387 83.546 19.36C83.546 20.1907 83.728 20.802 84.092 21.194C84.4653 21.586 84.9273 21.782 85.478 21.782ZM95.7424 20.914C95.7424 21.306 95.6584 21.642 95.4904 21.922C95.3317 22.202 95.1077 22.4353 94.8184 22.622C94.5384 22.7993 94.207 22.93 93.8244 23.014C93.4417 23.098 93.0357 23.14 92.6064 23.14C91.9904 23.14 91.4864 23.0793 91.0944 22.958C90.7024 22.8273 90.399 22.6967 90.1844 22.566V21.236C90.455 21.4133 90.791 21.558 91.1924 21.67C91.603 21.7727 92.0464 21.824 92.5224 21.824C93.017 21.824 93.409 21.7493 93.6984 21.6C93.9877 21.4507 94.1324 21.1987 94.1324 20.844C94.1324 20.508 94.0017 20.27 93.7404 20.13C93.479 19.9807 93.073 19.906 92.5224 19.906H91.5004V18.674H92.5504C92.989 18.674 93.325 18.5993 93.5584 18.45C93.801 18.3007 93.9224 18.0767 93.9224 17.778C93.9224 17.4513 93.787 17.2273 93.5164 17.106C93.255 16.9753 92.9144 16.91 92.4944 16.91C92.037 16.91 91.6264 16.966 91.2624 17.078C90.8984 17.1807 90.5764 17.3207 90.2964 17.498V16.168C90.5297 16.0187 90.847 15.888 91.2484 15.776C91.6497 15.6547 92.1444 15.594 92.7324 15.594C93.6284 15.594 94.3097 15.7573 94.7764 16.084C95.243 16.4107 95.4764 16.8867 95.4764 17.512C95.4764 17.988 95.3457 18.3613 95.0844 18.632C94.823 18.8933 94.4404 19.0847 93.9364 19.206C95.1404 19.3927 95.7424 19.962 95.7424 20.914ZM101.512 21.726C101.437 21.894 101.335 22.062 101.204 22.23C101.083 22.398 100.929 22.552 100.742 22.692C100.565 22.8227 100.35 22.93 100.098 23.014C99.846 23.098 99.552 23.14 99.216 23.14C98.8987 23.14 98.6047 23.0933 98.334 23C98.0633 22.916 97.8253 22.7853 97.62 22.608C97.424 22.4307 97.2653 22.2113 97.144 21.95C97.032 21.6793 96.976 21.3713 96.976 21.026C96.976 20.2327 97.27 19.64 97.858 19.248C98.446 18.8467 99.2767 18.646 100.35 18.646H101.456V18.198C101.456 17.722 101.335 17.3953 101.092 17.218C100.849 17.0313 100.448 16.938 99.888 16.938C99.412 16.938 98.964 17.008 98.544 17.148C98.1333 17.2787 97.7693 17.4327 97.452 17.61V16.252C97.7413 16.0933 98.124 15.944 98.6 15.804C99.076 15.664 99.594 15.594 100.154 15.594C101.087 15.594 101.806 15.79 102.31 16.182C102.823 16.5647 103.08 17.1807 103.08 18.03V21.824C103.08 21.908 103.08 22.006 103.08 22.118C103.089 22.2207 103.094 22.328 103.094 22.44C103.103 22.552 103.113 22.6593 103.122 22.762C103.131 22.8553 103.141 22.9347 103.15 23H101.652C101.624 22.8693 101.596 22.6873 101.568 22.454C101.549 22.2207 101.535 22.0107 101.526 21.824L101.512 21.726ZM99.664 21.88C100.009 21.88 100.294 21.81 100.518 21.67C100.751 21.5207 100.938 21.3527 101.078 21.166C101.218 20.97 101.316 20.7787 101.372 20.592C101.428 20.4053 101.456 20.2747 101.456 20.2V19.71H100.448C99.804 19.71 99.3327 19.8127 99.034 20.018C98.7353 20.214 98.586 20.494 98.586 20.858C98.586 21.1753 98.6747 21.4273 98.852 21.614C99.0387 21.7913 99.3093 21.88 99.664 21.88ZM109.522 19.934H106.456V23H104.832V15.734H106.456V18.618H109.522V15.734H111.146V23H109.522V19.934ZM112.883 18.114C112.883 17.722 112.957 17.3767 113.107 17.078C113.256 16.7793 113.461 16.532 113.723 16.336C113.993 16.1307 114.315 15.9813 114.689 15.888C115.071 15.7853 115.491 15.734 115.949 15.734H118.651V23H117.027V20.536H115.991L114.269 23H112.449L114.451 20.186C113.947 20.0367 113.559 19.794 113.289 19.458C113.018 19.122 112.883 18.674 112.883 18.114ZM117.027 19.248V17.022H116.075C115.627 17.022 115.258 17.106 114.969 17.274C114.689 17.442 114.549 17.722 114.549 18.114C114.549 18.5153 114.675 18.8047 114.927 18.982C115.188 19.1593 115.557 19.248 116.033 19.248H117.027ZM123.721 17.05V23H122.097V17.05H119.899V15.734H125.961V17.05H123.721ZM132.967 20.494C132.967 20.914 132.888 21.2827 132.729 21.6C132.58 21.9173 132.37 22.1787 132.099 22.384C131.828 22.5893 131.506 22.7433 131.133 22.846C130.76 22.9487 130.349 23 129.901 23H127.199V15.734H128.823V18.086H129.957C130.909 18.086 131.646 18.282 132.169 18.674C132.701 19.066 132.967 19.6727 132.967 20.494ZM135.417 23H133.793V15.734H135.417V23ZM128.823 19.374V21.726H129.775C130.223 21.726 130.587 21.6373 130.867 21.46C131.156 21.2733 131.301 20.97 131.301 20.55C131.301 20.13 131.175 19.8313 130.923 19.654C130.671 19.4673 130.307 19.374 129.831 19.374H128.823ZM144.052 17.736L141.91 22.3H140.72L138.704 17.694V23H137.234V15.734H139.46L141.448 20.242L143.548 15.734H145.676V23H144.052V17.736Z" fill="white"/>
</svg>
