<svg xmlns="http://www.w3.org/2000/svg" xmlns:xlink="http://www.w3.org/1999/xlink" fill="none" height="24.390243902439025" viewBox="0 0 41 40" width="25"><linearGradient id="a" gradientUnits="userSpaceOnUse" x1="16.6651" x2="16.6651" y1=".652255" y2="39.4179"><stop offset=".3" stop-color="#ff1b2d"/><stop offset=".438" stop-color="#fa1a2c"/><stop offset=".594" stop-color="#ed1528"/><stop offset=".758" stop-color="#d60e21"/><stop offset=".927" stop-color="#b70519"/><stop offset="1" stop-color="#a70014"/></linearGradient><linearGradient id="b" gradientUnits="userSpaceOnUse" x1="26.7081" x2="26.7081" y1="2.9369" y2="37.2233"><stop offset="0" stop-color="#9c0000"/><stop offset=".7" stop-color="#ff4b4b"/></linearGradient><path d="m13.4168 31.2709c-2.211-2.61-3.64342-6.4693-3.74144-10.7997v-.9424c.09752-4.3304 1.52994-8.1892 3.74144-10.79973 2.8687-3.72646 7.1345-6.08821 11.8968-6.08821 2.9294 0 5.6708.89455 8.0151 2.45031-3.5195-3.14933-8.1619-5.071269-13.2536-5.08967743l-.0746-.00149257c-11.04655 0-20.0005 8.95445-20.0005 20.0005 0 10.7251 8.44399 19.4781 19.0477 19.9756.316.0149.6334.0239.9528.0239 5.1205 0 9.7903-1.9254 13.3287-5.0897-2.3444 1.5548-5.0847 2.4493-8.0151 2.4493-4.7628 0-9.0281-2.3622-11.8973-6.0882z" fill="url(#a)"/><path d="m13.4167 8.72958c1.8349-2.16623 4.2061-3.47273 6.7962-3.47273 5.8211 0 10.5416 6.60115 10.5416 14.74365s-4.7195 14.7437-10.5426 14.7437c-2.5891 0-4.9603-1.3065-6.7947-3.4728 2.8693 3.7265 7.1346 6.0882 11.8974 6.0882 2.9304 0 5.6707-.894 8.0151-2.4488 4.0946-3.6618 6.6718-8.9853 6.6718-14.9108 0-5.924-2.5772-11.24604-6.6703-14.90832-2.3454-1.55576-5.0867-2.45081-8.0171-2.45081-4.7628 0-9.0281 2.36324-11.8974 6.08871z" fill="url(#b)"/></svg>