<svg width="118" height="120" viewBox="0 0 118 120" fill="none" xmlns="http://www.w3.org/2000/svg">
<path fill-rule="evenodd" clip-rule="evenodd" d="M23.6677 119.2C29.5677 117.6 36.2676 105.4 37.8676 103.1L39.0677 120H89.3677C89.8677 111.8 90.4676 99.5 90.7676 98C94.8676 101 96.8677 104.2 96.8677 104.2L91.9677 120H109.568C112.768 114.3 117.268 106 117.368 103.9C117.468 102.1 115.968 99.8 115.168 98.2C113.268 94.2 101.768 69.2 96.3677 63.8C94.1677 61.6 90.8677 60.3 88.1677 59.1C84.7677 57.7 76.0676 55.5 75.5676 55.1C73.8676 54.1 74.9677 49 74.9677 49C83.1676 44.3 84.5677 30.7 85.3677 21.4C86.4677 7.99999 77.7677 0 66.3677 0C55.0677 0 46.1677 7.50002 47.5677 22.3C48.4677 31.8 49.3676 44.3 57.9676 49.1C57.9676 49.1 58.7676 54 57.3676 55.2C56.8676 55.6 41.4676 58.3 36.2676 63.4C32.5676 67.1 24.1676 87 22.2676 91.3C22.2676 91.3 18.0676 77.6 16.3676 70.8C15.9676 69.2 16.1676 67.5 16.9676 66.1C17.5676 65 18.2677 63.4 19.0677 61.2C20.8677 56.1 22.0676 51.4 20.8676 51C17.8676 50.2 17.8676 55.5 15.2676 55.5C14.6676 55.5 14.1676 55.2 13.7676 54.8C13.1676 54.2 12.7676 53.4 12.7676 52.6C12.7676 50.3 12.7677 48 12.6677 45.7C12.6677 43.7 12.8677 41.2 12.1677 39.3C11.5677 37.6 9.06766 37.7 8.66766 39.2C8.36766 40.4 4.96765 40.5 3.96765 40.8C1.56765 41.5 0.367636 42.9 0.267636 45.4C0.0676357 48.8 0.36766 52.3 0.66766 55.7C0.86766 58.5 3.16765 62.9 3.96765 65.6C4.46765 67.1 10.3676 102 13.8676 112.1C16.4676 119.3 22.0677 119.7 23.6677 119.2Z" fill="url(#paint0_linear_106_7)"/>
<path d="M60.1677 39.1C60.1677 39.1 65.9677 45.2 71.9677 39.1" stroke="#D95D2B" stroke-width="2" stroke-miterlimit="79.8403" stroke-linecap="round" stroke-linejoin="round"/>
<defs>
<linearGradient id="paint0_linear_106_7" x1="58.7648" y1="2.9083" x2="58.7648" y2="120.062" gradientUnits="userSpaceOnUse">
<stop stop-color="#FF8C5F" stop-opacity="0.2"/>
<stop offset="1" stop-color="#FF884D"/>
</linearGradient>
</defs>
</svg>
