<svg width="24" height="24" viewBox="0 0 24 24" fill="none" xmlns="http://www.w3.org/2000/svg">
<g clip-path="url(#clip0_1_2)">
<path fill-rule="evenodd" clip-rule="evenodd" d="M7.5 10.7145C7.5 5.87025 9.9075 5.24925 12 5.24925C14.0925 5.24925 16.5 5.87025 16.5 10.7145V12.7507H7.5V10.7145ZM19.4993 12.7507V10.7145C19.4993 3.35025 14.8013 2.25 12 2.25C9.19875 2.25 4.50075 3.35025 4.50075 10.7145V12.7507H3V24.75H21V12.7507H19.4993Z" fill="black"/>
<path fill-rule="evenodd" clip-rule="evenodd" d="M17.25 23.0715C17.25 21.4567 18.0525 21.2498 18.75 21.2498C19.4475 21.2498 20.25 21.4567 20.25 23.0715V23.7502H17.25V23.0715ZM21.2498 23.7502V23.0715C21.2498 20.6168 19.6838 20.25 18.75 20.25C17.8162 20.25 16.2502 20.6168 16.2502 23.0715V23.7502H15.75V27.75H21.75V23.7502H21.2498Z" fill="black"/>
</g>
<defs>
<clipPath id="clip0_1_2">
<rect width="24" height="24" fill="white"/>
</clipPath>
</defs>
</svg>
