<?xml version="1.0" encoding="UTF-8" standalone="no"?>
<svg
   xmlns:dc="http://purl.org/dc/elements/1.1/"
   xmlns:cc="http://creativecommons.org/ns#"
   xmlns:rdf="http://www.w3.org/1999/02/22-rdf-syntax-ns#"
   xmlns:svg="http://www.w3.org/2000/svg"
   xmlns="http://www.w3.org/2000/svg"
   xmlns:sodipodi="http://sodipodi.sourceforge.net/DTD/sodipodi-0.dtd"
   xmlns:inkscape="http://www.inkscape.org/namespaces/inkscape"
   width="17px"
   height="15px"
   viewBox="0 0 17 15"
   version="1.1"
   id="svg2"
   inkscape:version="0.91 r13725"
   sodipodi:docname="loudspeaker1.svg">
  <metadata
     id="metadata15">
    <rdf:RDF>
      <cc:Work
         rdf:about="">
        <dc:format>image/svg+xml</dc:format>
        <dc:type
           rdf:resource="http://purl.org/dc/dcmitype/StillImage" />
        <dc:title></dc:title>
      </cc:Work>
    </rdf:RDF>
  </metadata>
  <defs
     id="defs13" />
  <sodipodi:namedview
     pagecolor="#ffffff"
     bordercolor="#666666"
     borderopacity="1"
     objecttolerance="10"
     gridtolerance="10"
     guidetolerance="10"
     inkscape:pageopacity="0"
     inkscape:pageshadow="2"
     inkscape:window-width="761"
     inkscape:window-height="480"
     id="namedview11"
     showgrid="false"
     inkscape:zoom="15.733333"
     inkscape:cx="8.8177966"
     inkscape:cy="7.5"
     inkscape:window-x="0"
     inkscape:window-y="0"
     inkscape:window-maximized="0"
     inkscape:current-layer="svg2" />
  <g
     id="Page-1"
     stroke="none"
     stroke-width="1"
     fill="none"
     fill-rule="evenodd">
    <g
       id="2"
       transform="translate(-1210.000000, -12.000000)"
       fill="#404040">
      <g
         id="Group-4">
        <g
           id="Group"
           transform="translate(1104.000000, 0.000000)">
          <g
             id="Group-3">
            <g
               id="Group-5">
              <path
                 d="M121.944509,16.6941962 C120.448461,13.21428 118.042177,10.5643208 116.824513,11.0596977 C114.756822,11.9000438 118.055871,15.9360193 107.901826,20.0636089 C107.024646,20.4203841 106.802458,21.8472489 107.169623,22.6996371 C107.535843,23.5527336 108.735797,24.4022884 109.612742,24.0452771 C109.765038,23.9843585 110.322042,23.8044361 110.322042,23.8044361 C110.948465,24.6457267 111.604166,24.1468081 111.836507,24.6806723 C112.116071,25.3226788 112.723841,26.7181398 112.930445,27.1932105 C113.137048,27.6673366 113.605744,28.1062811 113.945991,27.9771243 C114.284585,27.8479674 115.440149,27.4090229 115.881927,27.2401981 C116.323705,27.0723177 116.429014,26.6784719 116.29419,26.3677398 C116.148505,26.0329236 115.551833,25.9351705 115.38112,25.544158 C115.21135,25.153854 114.654347,23.9014808 114.49473,23.507635 C114.277029,22.9707013 114.739113,22.5336457 115.410635,22.4644629 C120.03242,21.9820726 120.896614,24.8367467 122.470345,24.1966291 C123.687773,23.7012523 123.439612,20.1741124 121.944509,16.6941962 Z M121.423395,22.3388478 C121.153039,22.448643 119.334218,21.0144585 118.172042,18.3092475 C117.010102,15.604981 117.155787,13.1321108 117.425907,13.0223156 C117.696263,12.9127566 119.46975,14.6430338 120.631925,17.3473003 C121.794101,20.0525113 121.693515,22.2292888 121.423395,22.3388478 Z"
                 id="Fill-1"
                 transform="translate(115.122626, 19.500000) rotate(24.000000) translate(-115.122626, -19.500000) " />
            </g>
          </g>
        </g>
      </g>
    </g>
  </g>
</svg>
