<svg xmlns="http://www.w3.org/2000/svg" width="24" height="18" viewBox="0 0 24 18">
<g>
	<g transform="translate(0.000000,511.000000) scale(0.100000,-0.100000)">
		<path d="M113.5,5104.8c-9.5-1.7-16.5-5.2-22.7-11.5c-5.5-5.6-9.3-12.2-11.4-20c-1.2-4.9-1.6-15.2-0.6-22.2
			c2.3-17.1,9.5-35.4,22.3-58.1c4.2-7.3,6.7-11.5,14.9-24.3c1-1.7,2-3,2.2-3c0.2,0,1.2,1.3,2.2,3c8.1,12.9,10.7,17,14.9,24.3
			c13.3,23.2,20.5,42.1,22.7,59.7c0.7,6.1,0.2,16.1-0.9,20.6c-4.2,15.4-15.3,26.7-29.9,30.5C124.6,5104.7,115.7,5105.2,113.5,5104.8
			z M124.6,5082c4.8-1.7,9.1-6,11.1-10.7c1.4-3.6,1.4-10.1,0-13.6c-2.1-5.1-7-9.6-12-11.1c-3.2-0.9-8.5-0.8-11.5,0.2
			c-9.3,3.2-14.5,12.9-12.1,22.3C102.9,5079.7,114.1,5085.7,124.6,5082z"/>
		<path d="M45.5,5024.1c-0.7-0.3-1.7-1-2.2-1.6c-0.5-0.6-9-19.7-18.8-42.4c-16.8-38.7-18-41.5-17.8-43.4c0.2-2.1,1.2-3.7,3.2-5.1
			l1.2-0.9h107.3h107.3l1.2,0.9c1.9,1.4,2.9,3,3.2,5.1c0.2,1.8-0.9,4.6-17.8,43.3c-9.9,22.8-18.4,41.9-18.9,42.5
			c-1.9,2.1-2.9,2.2-15.7,2.2h-11.9l-0.5-1.7c-0.2-0.9-1.4-4-2.7-6.8l-2.1-5.2l11.7-0.2l11.6-0.1l14.2-32.6
			c7.8-17.8,14.2-32.8,14.3-33.2c0.2-0.5-15.9-0.6-93.8-0.6c-51.6,0-93.9,0.2-93.9,0.2c0,0.2,6.4,15.1,14.3,33.2l14.3,32.9h11.6
			h11.6l-2.1,5.1c-1.2,2.9-2.3,6.1-2.7,7l-0.5,1.8H58.9C49.9,5024.7,46.6,5024.6,45.5,5024.1z"/>
	</g>
</g>
</svg>
