<?xml version="1.0" encoding="UTF-8" standalone="no"?>
<!-- Created with Inkscape (http://www.inkscape.org/) -->

<svg
   xmlns:dc="http://purl.org/dc/elements/1.1/"
   xmlns:cc="http://creativecommons.org/ns#"
   xmlns:rdf="http://www.w3.org/1999/02/22-rdf-syntax-ns#"
   xmlns:svg="http://www.w3.org/2000/svg"
   xmlns="http://www.w3.org/2000/svg"
   xmlns:sodipodi="http://sodipodi.sourceforge.net/DTD/sodipodi-0.dtd"
   xmlns:inkscape="http://www.inkscape.org/namespaces/inkscape"
   width="5.6444445mm"
   height="4.3585567mm"
   viewBox="0 0 20 15.443705"
   id="svg2"
   version="1.1"
   inkscape:version="0.91 r13725"
   sodipodi:docname="list.svg">
  <defs
     id="defs4" />
  <sodipodi:namedview
     id="base"
     pagecolor="#ffffff"
     bordercolor="#666666"
     borderopacity="1.0"
     inkscape:pageopacity="0.0"
     inkscape:pageshadow="2"
     inkscape:zoom="0.35"
     inkscape:cx="325"
     inkscape:cy="519.99995"
     inkscape:document-units="px"
     inkscape:current-layer="layer1"
     showgrid="false"
     fit-margin-top="0"
     fit-margin-left="0"
     fit-margin-right="0"
     fit-margin-bottom="0"
     inkscape:window-width="1280"
     inkscape:window-height="695"
     inkscape:window-x="0"
     inkscape:window-y="1"
     inkscape:window-maximized="1" />
  <metadata
     id="metadata7">
    <rdf:RDF>
      <cc:Work
         rdf:about="">
        <dc:format>image/svg+xml</dc:format>
        <dc:type
           rdf:resource="http://purl.org/dc/dcmitype/StillImage" />
        <dc:title></dc:title>
      </cc:Work>
    </rdf:RDF>
  </metadata>
  <g
     inkscape:label="Layer 1"
     inkscape:groupmode="layer"
     id="layer1"
     transform="translate(0,-1036.9184)">
    <path
       style="fill:#000000"
       d="M 0.4518076,1052.2414 C 0.08088061,1052.0402 0,1051.7674 0,1050.7177 c 0,-1.5092 0.13727649,-1.6465 1.6464806,-1.6465 1.5092041,0 1.6464806,0.1373 1.6464806,1.6465 0,1.5139 -0.1359013,1.6483 -1.662188,1.6433 -0.69942578,0 -1.02330027,-0.035 -1.1789656,-0.1196 z m 4.5474226,0 c -0.370927,-0.2012 -0.4518076,-0.474 -0.4518076,-1.5237 0,-0.6946 0.031851,-1.0102 0.1189331,-1.1786 0.2534224,-0.4901 -0.1075348,-0.4679 7.6038453,-0.4679 7.711379,0 7.350422,-0.022 7.603844,0.4679 0.16794,0.3247 0.16794,2.0325 0,2.3572 -0.253566,0.4904 0.110099,0.4682 -7.619552,0.4647 -6.0746712,0 -7.0700839,-0.019 -7.2552628,-0.1196 z m -4.7039786,-6.2215 -0.25604968,-0.2288 0,-1.1497 0,-1.1497 0.25604968,-0.2288 0.2560489,-0.2288 1.0951801,0 1.0951801,0 0.2560489,0.2288 0.2560497,0.2288 0,1.1497 0,1.1497 -0.2560497,0.2288 -0.2560489,0.2288 -1.0951801,0 -1.0951801,0 -0.2560489,-0.2288 z m 4.6611881,0.1064 c -0.3318168,-0.2324 -0.4090171,-0.5127 -0.4090171,-1.4849 0,-0.9722 0.0772,-1.2525 0.4090171,-1.4849 0.1552114,-0.1087 0.972932,-0.1224 7.3299693,-0.1224 l 7.155269,0 0.256049,0.2288 0.25605,0.2288 0,1.1497 0,1.1497 -0.25605,0.2288 -0.256049,0.2288 -7.155269,0 c -6.3570373,0 -7.1747579,-0.014 -7.3299701,-0.1224 z m -4.5046321,-6.0374 C 0.08088061,1039.8876 0,1039.6148 0,1038.5651 c 0,-1.5092 0.13727649,-1.6465 1.6464806,-1.6465 1.5092041,0 1.6464806,0.1373 1.6464806,1.6465 0,1.514 -0.1359013,1.6483 -1.662188,1.6433 -0.69942578,0 -1.02330027,-0.035 -1.1789656,-0.1195 z m 4.5474226,0 c -0.370927,-0.2013 -0.4518076,-0.4741 -0.4518076,-1.5238 0,-0.6946 0.031851,-1.0102 0.1189331,-1.1786 0.2534224,-0.4901 -0.1075348,-0.4679 7.6038453,-0.4679 7.711379,0 7.350422,-0.022 7.603844,0.4679 0.16794,0.3247 0.16794,2.0325 0,2.3572 -0.253566,0.4904 0.110099,0.4682 -7.619552,0.4647 -6.0746712,0 -7.0700839,-0.019 -7.2552628,-0.1195 z"
       id="path3465"
       inkscape:connector-curvature="0" />
  </g>
</svg>
