<svg width="120" height="121" viewBox="0 0 120 121" fill="none" xmlns="http://www.w3.org/2000/svg">
<path d="M22.9344 99.0864C3.0177 79.1697 3.01854 46.8774 22.9363 26.9597C42.8541 7.04185 75.1464 7.04102 95.0631 26.9578C114.98 46.8745 114.979 79.1667 95.0612 99.0845C75.1434 119.002 42.8512 119.003 22.9344 99.0864Z" fill="url(#paint0_linear)"/>
<path d="M58.9988 21.0232V27.0232" stroke="#D95D2B" stroke-width="2" stroke-miterlimit="79.8403" stroke-linecap="round" stroke-linejoin="round"/>
<path d="M58.9988 105.023V99.0232" stroke="#D95D2B" stroke-width="2" stroke-miterlimit="79.8403" stroke-linecap="round" stroke-linejoin="round"/>
<path d="M100.999 63.0232H94.9989" stroke="#D95D2B" stroke-width="2" stroke-miterlimit="79.8403" stroke-linecap="round" stroke-linejoin="round"/>
<path d="M16.9988 63.0232H22.9988" stroke="#D95D2B" stroke-width="2" stroke-miterlimit="79.8403" stroke-linecap="round" stroke-linejoin="round"/>
<path fill-rule="evenodd" clip-rule="evenodd" d="M58.9988 63.0232L58.9968 4.90039C59.0028 4.90039 59.0048 4.87441 59.0048 4.86841C58.9702 3.76981 59.3835 2.66308 60.2395 1.84448C60.9062 1.20708 61.7382 0.847004 63.4022 0.764404C74.5035 2.159 90.6662 7.52979 99.5969 15.511C99.6029 15.511 99.6069 15.5371 99.6149 15.5371C100.434 16.2703 100.948 17.3343 100.948 18.5183C100.948 19.7503 100.391 20.8518 99.5135 21.5852C99.5036 21.5852 99.4975 21.6111 99.4955 21.6111L58.9988 63.0232Z" fill="url(#paint1_linear)"/>
<defs>
<linearGradient id="paint0_linear" x1="77.501" y1="6.02026" x2="50.001" y2="136.02" gradientUnits="userSpaceOnUse">
<stop offset="0.02" stop-color="#FF8C5E"/>
<stop offset="0.06" stop-color="#FF8C5E" stop-opacity="0.86"/>
<stop offset="0.11" stop-color="#FF8C5E" stop-opacity="0.72"/>
<stop offset="0.17" stop-color="#FF8C5E" stop-opacity="0.59"/>
<stop offset="0.23" stop-color="#FF8C5E" stop-opacity="0.48"/>
<stop offset="0.3" stop-color="#FF8C5E" stop-opacity="0.4"/>
<stop offset="0.38" stop-color="#FF8C5E" stop-opacity="0.33"/>
<stop offset="0.48" stop-color="#FF8C5E" stop-opacity="0.28"/>
<stop offset="0.61" stop-color="#FF8C5E" stop-opacity="0.26"/>
<stop offset="1" stop-color="#FF945E" stop-opacity="0.25"/>
</linearGradient>
<linearGradient id="paint1_linear" x1="82.4681" y1="1.73275" x2="-50.4991" y2="314.02" gradientUnits="userSpaceOnUse">
<stop offset="0.02" stop-color="#FF8C5E"/>
<stop offset="0.06" stop-color="#FF8C5E" stop-opacity="0.86"/>
<stop offset="0.11" stop-color="#FF8C5E" stop-opacity="0.72"/>
<stop offset="0.17" stop-color="#FF8C5E" stop-opacity="0.59"/>
<stop offset="0.23" stop-color="#FF8C5E" stop-opacity="0.48"/>
<stop offset="0.3" stop-color="#FF8C5E" stop-opacity="0.4"/>
<stop offset="0.38" stop-color="#FF8C5E" stop-opacity="0.33"/>
<stop offset="0.48" stop-color="#FF8C5E" stop-opacity="0.28"/>
<stop offset="0.61" stop-color="#FF8C5E" stop-opacity="0.26"/>
<stop offset="1" stop-color="#FF945E" stop-opacity="0.25"/>
</linearGradient>
</defs>
</svg>
