<svg width="30" height="30" viewBox="0 0 30 30" fill="none" xmlns="http://www.w3.org/2000/svg">
<g clip-path="url(#clip0_201_6727)">
<rect x="0.777588" y="0.888672" width="29" height="29" rx="14.5" fill="#FF8C5F"/>
<path fill-rule="evenodd" clip-rule="evenodd" d="M17.6937 3.76067C17.9026 3.76067 18.0719 3.92999 18.0719 4.13885V14.1008C18.0719 14.3096 17.9026 14.479 17.6937 14.479C17.4849 14.479 17.3156 14.3096 17.3156 14.1008V4.13885C17.3156 3.92999 17.4849 3.76067 17.6937 3.76067Z" fill="white"/>
<path fill-rule="evenodd" clip-rule="evenodd" d="M12.2707 4.83992C12.4637 4.75999 12.6849 4.85162 12.7648 5.04459L16.5772 14.2482C16.6572 14.4412 16.5656 14.6624 16.3726 14.7423C16.1796 14.8223 15.9584 14.7306 15.8785 14.5377L12.066 5.33405C11.9861 5.14109 12.0777 4.91986 12.2707 4.83992Z" fill="white"/>
<path fill-rule="evenodd" clip-rule="evenodd" d="M7.67333 7.91166C7.82102 7.76397 8.06048 7.76397 8.20817 7.91166L15.2525 14.956C15.4002 15.1036 15.4002 15.3431 15.2525 15.4908C15.1048 15.6385 14.8653 15.6385 14.7176 15.4908L7.67333 8.44649C7.52564 8.2988 7.52564 8.05935 7.67333 7.91166Z" fill="white"/>
<path fill-rule="evenodd" clip-rule="evenodd" d="M4.60122 12.5079C4.68115 12.3149 4.90238 12.2233 5.09534 12.3032L14.299 16.1157C14.4919 16.1956 14.5836 16.4168 14.5036 16.6098C14.4237 16.8028 14.2025 16.8944 14.0095 16.8145L4.80588 13.002C4.61291 12.9221 4.52128 12.7009 4.60122 12.5079Z" fill="white"/>
<path fill-rule="evenodd" clip-rule="evenodd" d="M3.52234 17.9322C3.52234 17.7234 3.69166 17.5541 3.90053 17.5541H13.8624C14.0713 17.5541 14.2406 17.7234 14.2406 17.9322C14.2406 18.1411 14.0713 18.3104 13.8624 18.3104H3.90053C3.69166 18.3104 3.52234 18.1411 3.52234 17.9322Z" fill="white"/>
<path fill-rule="evenodd" clip-rule="evenodd" d="M14.5036 19.2541C14.5836 19.4471 14.4919 19.6683 14.299 19.7483L5.09534 23.5607C4.90238 23.6406 4.68115 23.549 4.60122 23.356C4.52128 23.163 4.61291 22.9418 4.80588 22.8619L14.0095 19.0495C14.2025 18.9695 14.4237 19.0612 14.5036 19.2541Z" fill="white"/>
<path fill-rule="evenodd" clip-rule="evenodd" d="M15.2525 20.3742C15.4002 20.5219 15.4002 20.7613 15.2525 20.909L8.20817 27.9533C8.06048 28.101 7.82102 28.101 7.67333 27.9533C7.52564 27.8056 7.52564 27.5662 7.67333 27.4185L14.7176 20.3742C14.8653 20.2265 15.1048 20.2265 15.2525 20.3742Z" fill="white"/>
<path fill-rule="evenodd" clip-rule="evenodd" d="M16.3726 21.1227C16.5656 21.2026 16.6572 21.4239 16.5772 21.6168L12.7648 30.8204C12.6849 31.0134 12.4637 31.105 12.2707 31.0251C12.0777 30.9452 11.9861 30.724 12.066 30.531L15.8785 21.3274C15.9584 21.1344 16.1796 21.0428 16.3726 21.1227Z" fill="white"/>
<path fill-rule="evenodd" clip-rule="evenodd" d="M17.6937 21.3866C17.9026 21.3866 18.0719 21.5559 18.0719 21.7648V31.7267C18.0719 31.9356 17.9026 32.1049 17.6937 32.1049C17.4849 32.1049 17.3156 31.9356 17.3156 31.7267V21.7648C17.3156 21.5559 17.4849 21.3866 17.6937 21.3866Z" fill="white"/>
<path fill-rule="evenodd" clip-rule="evenodd" d="M19.0156 21.1227C19.2086 21.0428 19.4298 21.1344 19.5097 21.3274L23.3222 30.531C23.4021 30.724 23.3105 30.9452 23.1175 31.0251C22.9245 31.105 22.7033 31.0134 22.6234 30.8204L18.8109 21.6168C18.731 21.4239 18.8226 21.2026 19.0156 21.1227Z" fill="white"/>
<path fill-rule="evenodd" clip-rule="evenodd" d="M20.1359 20.3742C20.2835 20.2265 20.523 20.2265 20.6707 20.3742L27.715 27.4185C27.8627 27.5662 27.8627 27.8056 27.715 27.9533C27.5673 28.101 27.3278 28.101 27.1802 27.9533L20.1359 20.909C19.9882 20.7613 19.9882 20.5219 20.1359 20.3742Z" fill="white"/>
<path fill-rule="evenodd" clip-rule="evenodd" d="M20.8844 19.2541C20.9643 19.0612 21.1856 18.9695 21.3785 19.0495L30.5821 22.8619C30.7751 22.9418 30.8667 23.163 30.7868 23.356C30.7069 23.549 30.4856 23.6406 30.2927 23.5607L21.0891 19.7483C20.8961 19.6683 20.8045 19.4471 20.8844 19.2541Z" fill="white"/>
<path fill-rule="evenodd" clip-rule="evenodd" d="M21.1475 17.9322C21.1475 17.7234 21.3168 17.5541 21.5257 17.5541H31.4876C31.6965 17.5541 31.8658 17.7234 31.8658 17.9322C31.8658 18.1411 31.6965 18.3104 31.4876 18.3104H21.5257C21.3168 18.3104 21.1475 18.1411 21.1475 17.9322Z" fill="white"/>
<path fill-rule="evenodd" clip-rule="evenodd" d="M30.7868 12.5079C30.8667 12.7009 30.7751 12.9221 30.5821 13.002L21.3785 16.8145C21.1856 16.8944 20.9643 16.8028 20.8844 16.6098C20.8045 16.4168 20.8961 16.1956 21.0891 16.1157L30.2927 12.3032C30.4856 12.2233 30.7069 12.3149 30.7868 12.5079Z" fill="white"/>
<path fill-rule="evenodd" clip-rule="evenodd" d="M27.715 7.91166C27.8627 8.05935 27.8627 8.2988 27.715 8.44649L20.6707 15.4908C20.523 15.6385 20.2835 15.6385 20.1359 15.4908C19.9882 15.3431 19.9882 15.1036 20.1359 14.956L27.1802 7.91166C27.3278 7.76397 27.5673 7.76397 27.715 7.91166Z" fill="white"/>
<path fill-rule="evenodd" clip-rule="evenodd" d="M23.1175 4.83992C23.3105 4.91986 23.4021 5.14109 23.3222 5.33405L19.5097 14.5377C19.4298 14.7306 19.2086 14.8223 19.0156 14.7423C18.8226 14.6624 18.731 14.4412 18.8109 14.2482L22.6234 5.04459C22.7033 4.85162 22.9245 4.75999 23.1175 4.83992Z" fill="white"/>
<path fill-rule="evenodd" clip-rule="evenodd" d="M17.6937 3.13084C18.2507 3.13084 18.7022 3.58236 18.7022 4.13934V9.02703C18.7022 9.58401 18.2507 10.0355 17.6937 10.0355C17.1367 10.0355 16.6852 9.58401 16.6852 9.02703V4.13934C16.6852 3.58236 17.1367 3.13084 17.6937 3.13084Z" fill="white"/>
<path fill-rule="evenodd" clip-rule="evenodd" d="M12.0294 4.25824C12.544 4.0451 13.1339 4.28946 13.3471 4.80405L15.5382 10.0939C15.7513 10.6084 15.5069 11.1984 14.9924 11.4115C14.4778 11.6247 13.8878 11.3803 13.6747 10.8657L11.4836 5.57591C11.2705 5.06133 11.5148 4.47139 12.0294 4.25824Z" fill="white"/>
<path fill-rule="evenodd" clip-rule="evenodd" d="M7.22739 7.46645C7.62123 7.07261 8.25978 7.07261 8.65362 7.46645L13.1561 11.9689C13.5499 12.3628 13.5499 13.0013 13.1561 13.3951C12.7622 13.789 12.1237 13.789 11.7298 13.3951L7.22739 8.89268C6.83355 8.49884 6.83355 7.86029 7.22739 7.46645Z" fill="white"/>
<path fill-rule="evenodd" clip-rule="evenodd" d="M4.01882 12.2673C4.23199 11.7527 4.82194 11.5084 5.33651 11.7216L11.5833 14.3094C12.0979 14.5225 12.3422 15.1125 12.1291 15.6271C11.9159 16.1416 11.3259 16.386 10.8114 16.1728L4.56456 13.585C4.04999 13.3718 3.80565 12.7819 4.01882 12.2673Z" fill="white"/>
<path fill-rule="evenodd" clip-rule="evenodd" d="M2.89197 17.9327C2.89197 17.3758 3.34349 16.9242 3.90047 16.9242H10.7974C11.3544 16.9242 11.8059 17.3758 11.8059 17.9327C11.8059 18.4897 11.3544 18.9412 10.7974 18.9412H3.90047C3.34349 18.9412 2.89197 18.4897 2.89197 17.9327Z" fill="white"/>
<path fill-rule="evenodd" clip-rule="evenodd" d="M12.1291 20.2374C12.3422 20.752 12.0979 21.3419 11.5833 21.5551L5.33651 24.1429C4.82194 24.3561 4.23199 24.1117 4.01882 23.5972C3.80565 23.0826 4.04999 22.4926 4.56456 22.2795L10.8114 19.6917C11.3259 19.4785 11.9159 19.7228 12.1291 20.2374Z" fill="white"/>
<path fill-rule="evenodd" clip-rule="evenodd" d="M13.156 22.4692C13.5499 22.863 13.55 23.5015 13.1561 23.8954L8.65368 28.3986C8.25986 28.7924 7.62132 28.7925 7.22744 28.3987C6.83357 28.0049 6.83352 27.3663 7.22734 26.9724L11.7298 22.4693C12.1236 22.0754 12.7622 22.0754 13.156 22.4692Z" fill="white"/>
<path fill-rule="evenodd" clip-rule="evenodd" d="M14.9924 24.4542C15.5069 24.6673 15.7513 25.2573 15.5382 25.7718L13.3471 31.0617C13.1339 31.5762 12.544 31.8206 12.0294 31.6075C11.5148 31.3943 11.2705 30.8044 11.4836 30.2898L13.6747 25C13.8878 24.4854 14.4778 24.241 14.9924 24.4542Z" fill="white"/>
<path fill-rule="evenodd" clip-rule="evenodd" d="M17.6937 25.8306C18.2507 25.8306 18.7022 26.2822 18.7022 26.8391V31.7268C18.7022 32.2838 18.2507 32.7353 17.6937 32.7353C17.1367 32.7353 16.6852 32.2838 16.6852 31.7268V26.8391C16.6852 26.2822 17.1367 25.8306 17.6937 25.8306Z" fill="white"/>
<path fill-rule="evenodd" clip-rule="evenodd" d="M21.0687 26.0801C21.5833 25.8669 22.1733 26.1112 22.3864 26.6258L23.9044 30.2895C24.1176 30.8041 23.8733 31.3941 23.3587 31.6073C22.8441 31.8204 22.2542 31.5761 22.041 31.0616L20.523 27.3978C20.3099 26.8833 20.5542 26.2933 21.0687 26.0801Z" fill="white"/>
<path fill-rule="evenodd" clip-rule="evenodd" d="M24.5302 24.7691C24.9241 24.3753 25.5626 24.3753 25.9565 24.7691L28.1604 26.9731C28.5542 27.3669 28.5542 28.0054 28.1604 28.3993C27.7666 28.7931 27.128 28.7931 26.7342 28.3993L24.5302 26.1954C24.1364 25.8015 24.1364 25.163 24.5302 24.7691Z" fill="white"/>
<path fill-rule="evenodd" clip-rule="evenodd" d="M27.1821 21.8623C27.3953 21.3477 27.9852 21.1033 28.4998 21.3164L30.8233 22.2788C31.3379 22.492 31.5823 23.0819 31.3692 23.5965C31.156 24.1111 30.5661 24.3554 30.0515 24.1423L27.7279 23.1799C27.2134 22.9668 26.969 22.3768 27.1821 21.8623Z" fill="white"/>
<path fill-rule="evenodd" clip-rule="evenodd" d="M28.18 17.9327C28.18 17.3758 28.6315 16.9242 29.1885 16.9242H31.4877C32.0447 16.9242 32.4962 17.3758 32.4962 17.9327C32.4962 18.4897 32.0447 18.9412 31.4877 18.9412H29.1885C28.6315 18.9412 28.18 18.4897 28.18 17.9327Z" fill="white"/>
<path fill-rule="evenodd" clip-rule="evenodd" d="M31.3692 12.2674C31.5823 12.782 31.3379 13.3719 30.8233 13.585L28.4998 14.5474C27.9852 14.7606 27.3953 14.5162 27.1821 14.0016C26.969 13.487 27.2134 12.8971 27.7279 12.684L30.0515 11.7216C30.5661 11.5084 31.156 11.7528 31.3692 12.2674Z" fill="white"/>
<path fill-rule="evenodd" clip-rule="evenodd" d="M28.1604 7.46645C28.5542 7.86029 28.5542 8.49884 28.1604 8.89268L25.9565 11.0966C25.5626 11.4904 24.9241 11.4904 24.5302 11.0966C24.1364 10.7028 24.1364 10.0642 24.5302 9.67037L26.7342 7.46645C27.128 7.07261 27.7666 7.07261 28.1604 7.46645Z" fill="white"/>
<path fill-rule="evenodd" clip-rule="evenodd" d="M23.3587 4.25828C23.8733 4.47147 24.1176 5.06143 23.9044 5.57599L22.3864 9.23973C22.1733 9.7543 21.5833 9.99861 21.0687 9.78542C20.5542 9.57223 20.3099 8.98226 20.523 8.4677L22.041 4.80396C22.2542 4.2894 22.8441 4.04509 23.3587 4.25828Z" fill="white"/>
</g>
<defs>
<clipPath id="clip0_201_6727">
<rect x="0.777588" y="0.888672" width="29" height="29" rx="14.5" fill="white"/>
</clipPath>
</defs>
</svg>
