<svg width="120" height="121" viewBox="0 0 120 121" fill="none" xmlns="http://www.w3.org/2000/svg">
<path fill-rule="evenodd" clip-rule="evenodd" d="M17.9978 112.036V14.0171C17.9978 11.8143 19.7898 10.022 21.9924 10.022H50.1951C51.1231 5.45937 55.1605 2.02197 59.9978 2.02197C64.8325 2.02197 68.8699 5.45937 69.7979 10.022H97.9979C100.201 10.022 101.993 11.8143 101.993 14.0171V112.036C101.993 114.238 100.201 116.03 97.9979 116.03H21.9924C19.7898 116.03 17.9978 114.238 17.9978 112.036Z" fill="url(#paint0_linear)"/>
<path d="M42.9978 17.022V23.022C42.9978 25.7608 44.9738 27.022 46.9978 27.022H72.9979C75.0219 27.022 76.9979 25.7608 76.9979 23.022V17.022" stroke="#D95D2B" stroke-width="2" stroke-miterlimit="79.8403" stroke-linecap="round" stroke-linejoin="round"/>
<path d="M31.9978 44.022L37.9978 50.022L47.9978 40.022" stroke="#D95D2B" stroke-width="2" stroke-miterlimit="79.8403" stroke-linecap="round" stroke-linejoin="round"/>
<path d="M31.9978 64.022L37.9978 70.022L47.9978 60.022" stroke="#D95D2B" stroke-width="2" stroke-miterlimit="79.8403" stroke-linecap="round" stroke-linejoin="round"/>
<path d="M31.9978 84.022L37.9978 90.022L47.9978 80.022" stroke="#D95D2B" stroke-width="2" stroke-miterlimit="79.8403" stroke-linecap="round" stroke-linejoin="round"/>
<path d="M54.9978 45.022H82.9979" stroke="#D95D2B" stroke-width="2" stroke-miterlimit="79.8403" stroke-linecap="round" stroke-linejoin="round"/>
<path d="M54.9978 65.022H82.9979" stroke="#D95D2B" stroke-width="2" stroke-miterlimit="79.8403" stroke-linecap="round" stroke-linejoin="round"/>
<path d="M54.9978 85.022H82.9979" stroke="#D95D2B" stroke-width="2" stroke-miterlimit="79.8403" stroke-linecap="round" stroke-linejoin="round"/>
<defs>
<linearGradient id="paint0_linear" x1="59.9851" y1="4.17574" x2="59.9851" y2="113.937" gradientUnits="userSpaceOnUse">
<stop offset="0.02" stop-color="#FF8C5E"/>
<stop offset="0.06" stop-color="#FF8C5E" stop-opacity="0.86"/>
<stop offset="0.11" stop-color="#FF8C5E" stop-opacity="0.72"/>
<stop offset="0.17" stop-color="#FF8C5E" stop-opacity="0.59"/>
<stop offset="0.23" stop-color="#FF8C5E" stop-opacity="0.48"/>
<stop offset="0.3" stop-color="#FF8C5E" stop-opacity="0.4"/>
<stop offset="0.38" stop-color="#FF8C5E" stop-opacity="0.33"/>
<stop offset="0.48" stop-color="#FF8C5E" stop-opacity="0.28"/>
<stop offset="0.61" stop-color="#FF8C5E" stop-opacity="0.26"/>
<stop offset="1" stop-color="#FF945E" stop-opacity="0.25"/>
</linearGradient>
</defs>
</svg>
