<svg width="120" height="121" viewBox="0 0 120 121" fill="none" xmlns="http://www.w3.org/2000/svg">
<path d="M22.9336 99.0862C3.01685 79.1695 3.01768 46.8772 22.9355 26.9594C42.8533 7.04161 75.1455 7.04077 95.0623 26.9575C114.979 46.8742 114.978 79.1665 95.0604 99.0843C75.1426 119.002 42.8503 119.003 22.9336 99.0862Z" fill="url(#paint0_linear)"/>
<path d="M58.9978 21.0229V27.0229" stroke="#D95D2B" stroke-width="2" stroke-miterlimit="79.8403" stroke-linecap="round" stroke-linejoin="round"/>
<path d="M58.9978 105.023V99.0229" stroke="#D95D2B" stroke-width="2" stroke-miterlimit="79.8403" stroke-linecap="round" stroke-linejoin="round"/>
<path d="M100.998 63.0229H94.998" stroke="#D95D2B" stroke-width="2" stroke-miterlimit="79.8403" stroke-linecap="round" stroke-linejoin="round"/>
<path d="M16.9978 63.0229H22.9978" stroke="#D95D2B" stroke-width="2" stroke-miterlimit="79.8403" stroke-linecap="round" stroke-linejoin="round"/>
<path fill-rule="evenodd" clip-rule="evenodd" d="M58.9979 63.0229L58.9958 4.90015C59.0018 4.90015 59.0038 4.87416 59.0038 4.86816C58.9692 3.76956 59.3825 2.66284 60.2385 1.84424C60.9052 1.20684 61.7372 0.84676 63.4012 0.76416C74.5025 2.15876 90.6652 7.52954 99.5959 15.5107C99.6019 15.5107 99.6059 15.5369 99.6139 15.5369C100.433 16.2701 100.947 17.3341 100.947 18.5181C100.947 19.7501 100.39 20.8516 99.5126 21.585C99.5026 21.585 99.4966 21.6108 99.4946 21.6108L58.9979 63.0229Z" fill="url(#paint1_linear)"/>
<defs>
<linearGradient id="paint0_linear" x1="77.5001" y1="6.02002" x2="50.0001" y2="136.02" gradientUnits="userSpaceOnUse">
<stop offset="0.02" stop-color="#FF8C5E"/>
<stop offset="0.06" stop-color="#FF8C5E" stop-opacity="0.86"/>
<stop offset="0.11" stop-color="#FF8C5E" stop-opacity="0.72"/>
<stop offset="0.17" stop-color="#FF8C5E" stop-opacity="0.59"/>
<stop offset="0.23" stop-color="#FF8C5E" stop-opacity="0.48"/>
<stop offset="0.3" stop-color="#FF8C5E" stop-opacity="0.4"/>
<stop offset="0.38" stop-color="#FF8C5E" stop-opacity="0.33"/>
<stop offset="0.48" stop-color="#FF8C5E" stop-opacity="0.28"/>
<stop offset="0.61" stop-color="#FF8C5E" stop-opacity="0.26"/>
<stop offset="1" stop-color="#FF945E" stop-opacity="0.25"/>
</linearGradient>
<linearGradient id="paint1_linear" x1="82.4671" y1="1.73251" x2="-50.5" y2="314.02" gradientUnits="userSpaceOnUse">
<stop offset="0.02" stop-color="#FF8C5E"/>
<stop offset="0.06" stop-color="#FF8C5E" stop-opacity="0.86"/>
<stop offset="0.11" stop-color="#FF8C5E" stop-opacity="0.72"/>
<stop offset="0.17" stop-color="#FF8C5E" stop-opacity="0.59"/>
<stop offset="0.23" stop-color="#FF8C5E" stop-opacity="0.48"/>
<stop offset="0.3" stop-color="#FF8C5E" stop-opacity="0.4"/>
<stop offset="0.38" stop-color="#FF8C5E" stop-opacity="0.33"/>
<stop offset="0.48" stop-color="#FF8C5E" stop-opacity="0.28"/>
<stop offset="0.61" stop-color="#FF8C5E" stop-opacity="0.26"/>
<stop offset="1" stop-color="#FF945E" stop-opacity="0.25"/>
</linearGradient>
</defs>
</svg>
